<?xml version="1.0" encoding="utf-8" standalone="no"?>
<!DOCTYPE svg PUBLIC "-//W3C//DTD SVG 1.1//EN"
  "http://www.w3.org/Graphics/SVG/1.1/DTD/svg11.dtd">
<!-- Created with matplotlib (https://matplotlib.org/) -->
<svg height="345.6pt" version="1.1" viewBox="0 0 460.8 345.6" width="460.8pt" xmlns="http://www.w3.org/2000/svg" xmlns:xlink="http://www.w3.org/1999/xlink">
 <metadata>
  <rdf:RDF xmlns:cc="http://creativecommons.org/ns#" xmlns:dc="http://purl.org/dc/elements/1.1/" xmlns:rdf="http://www.w3.org/1999/02/22-rdf-syntax-ns#">
   <cc:Work>
    <dc:type rdf:resource="http://purl.org/dc/dcmitype/StillImage"/>
    <dc:date>2022-08-16T11:43:29.268824</dc:date>
    <dc:format>image/svg+xml</dc:format>
    <dc:creator>
     <cc:Agent>
      <dc:title>Matplotlib v3.3.4, https://matplotlib.org/</dc:title>
     </cc:Agent>
    </dc:creator>
   </cc:Work>
  </rdf:RDF>
 </metadata>
 <defs>
  <style type="text/css">*{stroke-linecap:butt;stroke-linejoin:round;}</style>
 </defs>
 <g id="figure_1">
  <g id="patch_1">
   <path d="M 0 345.6 
L 460.8 345.6 
L 460.8 0 
L 0 0 
z
" style="fill:#ffffff;"/>
  </g>
  <g id="axes_1">
   <g id="patch_2">
    <path d="M 70.67 293.56 
L 450 293.56 
L 450 57.552 
L 70.67 57.552 
z
" style="fill:#ffffff;"/>
   </g>
   <g id="matplotlib.axis_1">
    <g id="xtick_1">
     <g id="line2d_1">
      <defs>
       <path d="M 0 0 
L 0 3.5 
" id="m3403758e87" style="stroke:#000000;stroke-width:0.8;"/>
      </defs>
      <g>
       <use style="stroke:#000000;stroke-width:0.8;" x="87.912273" xlink:href="#m3403758e87" y="293.56"/>
      </g>
     </g>
     <g id="text_1">
      <!-- −0.5 -->
      <g transform="translate(72.128445 310.437969)scale(0.13 -0.13)">
       <defs>
        <path d="M 10.59375 35.5 
L 73.1875 35.5 
L 73.1875 27.203125 
L 10.59375 27.203125 
z
" id="DejaVuSans-8722"/>
        <path d="M 31.78125 66.40625 
Q 24.171875 66.40625 20.328125 58.90625 
Q 16.5 51.421875 16.5 36.375 
Q 16.5 21.390625 20.328125 13.890625 
Q 24.171875 6.390625 31.78125 6.390625 
Q 39.453125 6.390625 43.28125 13.890625 
Q 47.125 21.390625 47.125 36.375 
Q 47.125 51.421875 43.28125 58.90625 
Q 39.453125 66.40625 31.78125 66.40625 
z
M 31.78125 74.21875 
Q 44.046875 74.21875 50.515625 64.515625 
Q 56.984375 54.828125 56.984375 36.375 
Q 56.984375 17.96875 50.515625 8.265625 
Q 44.046875 -1.421875 31.78125 -1.421875 
Q 19.53125 -1.421875 13.0625 8.265625 
Q 6.59375 17.96875 6.59375 36.375 
Q 6.59375 54.828125 13.0625 64.515625 
Q 19.53125 74.21875 31.78125 74.21875 
z
" id="DejaVuSans-48"/>
        <path d="M 10.6875 12.40625 
L 21 12.40625 
L 21 0 
L 10.6875 0 
z
" id="DejaVuSans-46"/>
        <path d="M 10.796875 72.90625 
L 49.515625 72.90625 
L 49.515625 64.59375 
L 19.828125 64.59375 
L 19.828125 46.734375 
Q 21.96875 47.46875 24.109375 47.828125 
Q 26.265625 48.1875 28.421875 48.1875 
Q 40.625 48.1875 47.75 41.5 
Q 54.890625 34.8125 54.890625 23.390625 
Q 54.890625 11.625 47.5625 5.09375 
Q 40.234375 -1.421875 26.90625 -1.421875 
Q 22.3125 -1.421875 17.546875 -0.640625 
Q 12.796875 0.140625 7.71875 1.703125 
L 7.71875 11.625 
Q 12.109375 9.234375 16.796875 8.0625 
Q 21.484375 6.890625 26.703125 6.890625 
Q 35.15625 6.890625 40.078125 11.328125 
Q 45.015625 15.765625 45.015625 23.390625 
Q 45.015625 31 40.078125 35.4375 
Q 35.15625 39.890625 26.703125 39.890625 
Q 22.75 39.890625 18.8125 39.015625 
Q 14.890625 38.140625 10.796875 36.28125 
z
" id="DejaVuSans-53"/>
       </defs>
       <use xlink:href="#DejaVuSans-8722"/>
       <use x="83.789062" xlink:href="#DejaVuSans-48"/>
       <use x="147.412109" xlink:href="#DejaVuSans-46"/>
       <use x="179.199219" xlink:href="#DejaVuSans-53"/>
      </g>
     </g>
    </g>
    <g id="xtick_2">
     <g id="line2d_2">
      <g>
       <use style="stroke:#000000;stroke-width:0.8;" x="145.386515" xlink:href="#m3403758e87" y="293.56"/>
      </g>
     </g>
     <g id="text_2">
      <!-- 0.0 -->
      <g transform="translate(135.049484 310.437969)scale(0.13 -0.13)">
       <use xlink:href="#DejaVuSans-48"/>
       <use x="63.623047" xlink:href="#DejaVuSans-46"/>
       <use x="95.410156" xlink:href="#DejaVuSans-48"/>
      </g>
     </g>
    </g>
    <g id="xtick_3">
     <g id="line2d_3">
      <g>
       <use style="stroke:#000000;stroke-width:0.8;" x="202.860758" xlink:href="#m3403758e87" y="293.56"/>
      </g>
     </g>
     <g id="text_3">
      <!-- 0.5 -->
      <g transform="translate(192.523726 310.437969)scale(0.13 -0.13)">
       <use xlink:href="#DejaVuSans-48"/>
       <use x="63.623047" xlink:href="#DejaVuSans-46"/>
       <use x="95.410156" xlink:href="#DejaVuSans-53"/>
      </g>
     </g>
    </g>
    <g id="xtick_4">
     <g id="line2d_4">
      <g>
       <use style="stroke:#000000;stroke-width:0.8;" x="260.335" xlink:href="#m3403758e87" y="293.56"/>
      </g>
     </g>
     <g id="text_4">
      <!-- 1.0 -->
      <g transform="translate(249.997969 310.437969)scale(0.13 -0.13)">
       <defs>
        <path d="M 12.40625 8.296875 
L 28.515625 8.296875 
L 28.515625 63.921875 
L 10.984375 60.40625 
L 10.984375 69.390625 
L 28.421875 72.90625 
L 38.28125 72.90625 
L 38.28125 8.296875 
L 54.390625 8.296875 
L 54.390625 0 
L 12.40625 0 
z
" id="DejaVuSans-49"/>
       </defs>
       <use xlink:href="#DejaVuSans-49"/>
       <use x="63.623047" xlink:href="#DejaVuSans-46"/>
       <use x="95.410156" xlink:href="#DejaVuSans-48"/>
      </g>
     </g>
    </g>
    <g id="xtick_5">
     <g id="line2d_5">
      <g>
       <use style="stroke:#000000;stroke-width:0.8;" x="317.809242" xlink:href="#m3403758e87" y="293.56"/>
      </g>
     </g>
     <g id="text_5">
      <!-- 1.5 -->
      <g transform="translate(307.472211 310.437969)scale(0.13 -0.13)">
       <use xlink:href="#DejaVuSans-49"/>
       <use x="63.623047" xlink:href="#DejaVuSans-46"/>
       <use x="95.410156" xlink:href="#DejaVuSans-53"/>
      </g>
     </g>
    </g>
    <g id="xtick_6">
     <g id="line2d_6">
      <g>
       <use style="stroke:#000000;stroke-width:0.8;" x="375.283485" xlink:href="#m3403758e87" y="293.56"/>
      </g>
     </g>
     <g id="text_6">
      <!-- 2.0 -->
      <g transform="translate(364.946454 310.437969)scale(0.13 -0.13)">
       <defs>
        <path d="M 19.1875 8.296875 
L 53.609375 8.296875 
L 53.609375 0 
L 7.328125 0 
L 7.328125 8.296875 
Q 12.9375 14.109375 22.625 23.890625 
Q 32.328125 33.6875 34.8125 36.53125 
Q 39.546875 41.84375 41.421875 45.53125 
Q 43.3125 49.21875 43.3125 52.78125 
Q 43.3125 58.59375 39.234375 62.25 
Q 35.15625 65.921875 28.609375 65.921875 
Q 23.96875 65.921875 18.8125 64.3125 
Q 13.671875 62.703125 7.8125 59.421875 
L 7.8125 69.390625 
Q 13.765625 71.78125 18.9375 73 
Q 24.125 74.21875 28.421875 74.21875 
Q 39.75 74.21875 46.484375 68.546875 
Q 53.21875 62.890625 53.21875 53.421875 
Q 53.21875 48.921875 51.53125 44.890625 
Q 49.859375 40.875 45.40625 35.40625 
Q 44.1875 33.984375 37.640625 27.21875 
Q 31.109375 20.453125 19.1875 8.296875 
z
" id="DejaVuSans-50"/>
       </defs>
       <use xlink:href="#DejaVuSans-50"/>
       <use x="63.623047" xlink:href="#DejaVuSans-46"/>
       <use x="95.410156" xlink:href="#DejaVuSans-48"/>
      </g>
     </g>
    </g>
    <g id="xtick_7">
     <g id="line2d_7">
      <g>
       <use style="stroke:#000000;stroke-width:0.8;" x="432.757727" xlink:href="#m3403758e87" y="293.56"/>
      </g>
     </g>
     <g id="text_7">
      <!-- 2.5 -->
      <g transform="translate(422.420696 310.437969)scale(0.13 -0.13)">
       <use xlink:href="#DejaVuSans-50"/>
       <use x="63.623047" xlink:href="#DejaVuSans-46"/>
       <use x="95.410156" xlink:href="#DejaVuSans-53"/>
      </g>
     </g>
    </g>
    <g id="text_8">
     <!-- x -->
     <g transform="translate(255.008125 330.81875)scale(0.18 -0.18)">
      <defs>
       <path d="M 54.890625 54.6875 
L 35.109375 28.078125 
L 55.90625 0 
L 45.3125 0 
L 29.390625 21.484375 
L 13.484375 0 
L 2.875 0 
L 24.125 28.609375 
L 4.6875 54.6875 
L 15.28125 54.6875 
L 29.78125 35.203125 
L 44.28125 54.6875 
z
" id="DejaVuSans-120"/>
      </defs>
      <use xlink:href="#DejaVuSans-120"/>
     </g>
    </g>
   </g>
   <g id="matplotlib.axis_2">
    <g id="ytick_1">
     <g id="line2d_8">
      <defs>
       <path d="M 0 0 
L -3.5 0 
" id="m8477061580" style="stroke:#000000;stroke-width:0.8;"/>
      </defs>
      <g>
       <use style="stroke:#000000;stroke-width:0.8;" x="70.67" xlink:href="#m8477061580" y="276.395357"/>
      </g>
     </g>
     <g id="text_9">
      <!-- −2.5 -->
      <g transform="translate(32.102344 281.334341)scale(0.13 -0.13)">
       <use xlink:href="#DejaVuSans-8722"/>
       <use x="83.789062" xlink:href="#DejaVuSans-50"/>
       <use x="147.412109" xlink:href="#DejaVuSans-46"/>
       <use x="179.199219" xlink:href="#DejaVuSans-53"/>
      </g>
     </g>
    </g>
    <g id="ytick_2">
     <g id="line2d_9">
      <g>
       <use style="stroke:#000000;stroke-width:0.8;" x="70.67" xlink:href="#m8477061580" y="249.310196"/>
      </g>
     </g>
     <g id="text_10">
      <!-- 0.0 -->
      <g transform="translate(42.995937 254.24918)scale(0.13 -0.13)">
       <use xlink:href="#DejaVuSans-48"/>
       <use x="63.623047" xlink:href="#DejaVuSans-46"/>
       <use x="95.410156" xlink:href="#DejaVuSans-48"/>
      </g>
     </g>
    </g>
    <g id="ytick_3">
     <g id="line2d_10">
      <g>
       <use style="stroke:#000000;stroke-width:0.8;" x="70.67" xlink:href="#m8477061580" y="222.225035"/>
      </g>
     </g>
     <g id="text_11">
      <!-- 2.5 -->
      <g transform="translate(42.995937 227.164019)scale(0.13 -0.13)">
       <use xlink:href="#DejaVuSans-50"/>
       <use x="63.623047" xlink:href="#DejaVuSans-46"/>
       <use x="95.410156" xlink:href="#DejaVuSans-53"/>
      </g>
     </g>
    </g>
    <g id="ytick_4">
     <g id="line2d_11">
      <g>
       <use style="stroke:#000000;stroke-width:0.8;" x="70.67" xlink:href="#m8477061580" y="195.139874"/>
      </g>
     </g>
     <g id="text_12">
      <!-- 5.0 -->
      <g transform="translate(42.995937 200.078858)scale(0.13 -0.13)">
       <use xlink:href="#DejaVuSans-53"/>
       <use x="63.623047" xlink:href="#DejaVuSans-46"/>
       <use x="95.410156" xlink:href="#DejaVuSans-48"/>
      </g>
     </g>
    </g>
    <g id="ytick_5">
     <g id="line2d_12">
      <g>
       <use style="stroke:#000000;stroke-width:0.8;" x="70.67" xlink:href="#m8477061580" y="168.054712"/>
      </g>
     </g>
     <g id="text_13">
      <!-- 7.5 -->
      <g transform="translate(42.995937 172.993697)scale(0.13 -0.13)">
       <defs>
        <path d="M 8.203125 72.90625 
L 55.078125 72.90625 
L 55.078125 68.703125 
L 28.609375 0 
L 18.3125 0 
L 43.21875 64.59375 
L 8.203125 64.59375 
z
" id="DejaVuSans-55"/>
       </defs>
       <use xlink:href="#DejaVuSans-55"/>
       <use x="63.623047" xlink:href="#DejaVuSans-46"/>
       <use x="95.410156" xlink:href="#DejaVuSans-53"/>
      </g>
     </g>
    </g>
    <g id="ytick_6">
     <g id="line2d_13">
      <g>
       <use style="stroke:#000000;stroke-width:0.8;" x="70.67" xlink:href="#m8477061580" y="140.969551"/>
      </g>
     </g>
     <g id="text_14">
      <!-- 10.0 -->
      <g transform="translate(34.724688 145.908536)scale(0.13 -0.13)">
       <use xlink:href="#DejaVuSans-49"/>
       <use x="63.623047" xlink:href="#DejaVuSans-48"/>
       <use x="127.246094" xlink:href="#DejaVuSans-46"/>
       <use x="159.033203" xlink:href="#DejaVuSans-48"/>
      </g>
     </g>
    </g>
    <g id="ytick_7">
     <g id="line2d_14">
      <g>
       <use style="stroke:#000000;stroke-width:0.8;" x="70.67" xlink:href="#m8477061580" y="113.88439"/>
      </g>
     </g>
     <g id="text_15">
      <!-- 12.5 -->
      <g transform="translate(34.724688 118.823375)scale(0.13 -0.13)">
       <use xlink:href="#DejaVuSans-49"/>
       <use x="63.623047" xlink:href="#DejaVuSans-50"/>
       <use x="127.246094" xlink:href="#DejaVuSans-46"/>
       <use x="159.033203" xlink:href="#DejaVuSans-53"/>
      </g>
     </g>
    </g>
    <g id="ytick_8">
     <g id="line2d_15">
      <g>
       <use style="stroke:#000000;stroke-width:0.8;" x="70.67" xlink:href="#m8477061580" y="86.799229"/>
      </g>
     </g>
     <g id="text_16">
      <!-- 15.0 -->
      <g transform="translate(34.724688 91.738214)scale(0.13 -0.13)">
       <use xlink:href="#DejaVuSans-49"/>
       <use x="63.623047" xlink:href="#DejaVuSans-53"/>
       <use x="127.246094" xlink:href="#DejaVuSans-46"/>
       <use x="159.033203" xlink:href="#DejaVuSans-48"/>
      </g>
     </g>
    </g>
    <g id="ytick_9">
     <g id="line2d_16">
      <g>
       <use style="stroke:#000000;stroke-width:0.8;" x="70.67" xlink:href="#m8477061580" y="59.714068"/>
      </g>
     </g>
     <g id="text_17">
      <!-- 17.5 -->
      <g transform="translate(34.724688 64.653053)scale(0.13 -0.13)">
       <use xlink:href="#DejaVuSans-49"/>
       <use x="63.623047" xlink:href="#DejaVuSans-55"/>
       <use x="127.246094" xlink:href="#DejaVuSans-46"/>
       <use x="159.033203" xlink:href="#DejaVuSans-53"/>
      </g>
     </g>
    </g>
    <g id="text_18">
     <!-- y -->
     <g transform="translate(24.358906 180.882875)rotate(-90)scale(0.18 -0.18)">
      <defs>
       <path d="M 32.171875 -5.078125 
Q 28.375 -14.84375 24.75 -17.8125 
Q 21.140625 -20.796875 15.09375 -20.796875 
L 7.90625 -20.796875 
L 7.90625 -13.28125 
L 13.1875 -13.28125 
Q 16.890625 -13.28125 18.9375 -11.515625 
Q 21 -9.765625 23.484375 -3.21875 
L 25.09375 0.875 
L 2.984375 54.6875 
L 12.5 54.6875 
L 29.59375 11.921875 
L 46.6875 54.6875 
L 56.203125 54.6875 
z
" id="DejaVuSans-121"/>
      </defs>
      <use xlink:href="#DejaVuSans-121"/>
     </g>
    </g>
   </g>
   <g id="line2d_17">
    <path clip-path="url(#p972562ce60)" d="M 87.912273 194.462744 
L 90.441139 190.386624 
L 91.245779 189.495178 
L 91.93547 189.025634 
L 92.510212 188.883465 
L 93.084955 188.995153 
L 93.659697 189.380297 
L 94.234439 190.052082 
L 94.92413 191.244988 
L 95.72877 193.16493 
L 96.648358 196.016084 
L 97.797842 200.428949 
L 99.407121 207.690054 
L 102.280833 220.798688 
L 103.430318 224.922169 
L 104.234958 227.120178 
L 104.924648 228.46999 
L 105.499391 229.18535 
L 105.959185 229.47811 
L 106.418979 229.518137 
L 106.878773 229.30547 
L 107.338567 228.843977 
L 107.913309 227.929338 
L 108.603 226.368595 
L 109.407639 223.983971 
L 110.557124 219.762873 
L 114.465373 204.55915 
L 115.270012 202.605654 
L 115.844755 201.692038 
L 116.304548 201.288833 
L 116.764342 201.199968 
L 117.109188 201.349968 
L 117.568982 201.849317 
L 118.028776 202.698697 
L 118.603518 204.258206 
L 119.293209 206.853181 
L 120.097848 210.836156 
L 121.017436 216.526157 
L 122.28187 225.923168 
L 126.534964 259.308692 
L 127.339603 263.568193 
L 128.029294 266.152038 
L 128.489088 267.245319 
L 128.948882 267.787556 
L 129.293727 267.811205 
L 129.638573 267.492115 
L 129.983418 266.819324 
L 130.443212 265.356856 
L 131.017955 262.599481 
L 131.707645 257.910143 
L 132.512285 250.54931 
L 133.431873 239.744271 
L 134.466409 224.814373 
L 135.730842 203.283428 
L 137.684967 165.675496 
L 140.213833 117.493938 
L 141.478267 97.308732 
L 142.512803 84.134607 
L 143.317442 76.419707 
L 144.007133 71.768114 
L 144.581876 69.356868 
L 144.926721 68.568203 
L 145.271567 68.279636 
L 145.501464 68.366309 
L 145.731361 68.676301 
L 146.076206 69.558715 
L 146.536 71.507536 
L 147.110742 75.159618 
L 147.800433 81.256151 
L 148.605073 90.571847 
L 149.639609 105.62772 
L 150.904042 127.779092 
L 152.858167 166.774498 
L 155.501982 219.1545 
L 156.881364 242.201966 
L 158.030848 257.730434 
L 158.950436 267.35202 
L 159.755076 273.602828 
L 160.444767 277.332806 
L 161.019509 279.313119 
L 161.479303 280.183187 
L 161.824148 280.435174 
L 162.168994 280.357929 
L 162.513839 279.966067 
L 162.973633 278.982475 
L 163.548376 277.072557 
L 164.238067 273.905293 
L 165.157655 268.484742 
L 166.422088 259.551441 
L 169.525697 237.119104 
L 170.560233 231.376051 
L 171.364873 227.949164 
L 172.054564 225.826661 
L 172.629306 224.661486 
L 173.0891 224.129881 
L 173.548894 223.951779 
L 173.893739 224.045748 
L 174.353533 224.464907 
L 174.813327 225.20514 
L 175.38807 226.551058 
L 176.077761 228.71945 
L 176.997348 232.388142 
L 178.261782 238.429963 
L 181.480339 254.256292 
L 182.514876 258.125192 
L 183.319515 260.407226 
L 184.009206 261.7919 
L 184.583948 262.521852 
L 185.043742 262.824282 
L 185.503536 262.878242 
L 185.96333 262.6893 
L 186.423124 262.266546 
L 186.997867 261.428496 
L 187.687558 260.010407 
L 188.607145 257.529874 
L 189.871579 253.339478 
L 193.320033 241.4459 
L 194.35457 238.864517 
L 195.159209 237.422154 
L 195.8489 236.627108 
L 196.423642 236.290419 
L 196.883436 236.236582 
L 197.34323 236.372217 
L 197.917973 236.800334 
L 198.607664 237.671676 
L 199.412303 239.130929 
L 200.331891 241.282056 
L 201.711273 245.161015 
L 204.699933 253.773177 
L 205.73447 256.054708 
L 206.539109 257.387746 
L 207.2288 258.178378 
L 207.918491 258.623159 
L 208.493233 258.72419 
L 209.067976 258.582452 
L 209.642718 258.20622 
L 210.332409 257.464944 
L 211.137048 256.243663 
L 212.171585 254.216932 
L 213.665915 250.724664 
L 216.079833 245.073333 
L 217.229318 242.967275 
L 218.148906 241.74767 
L 218.838597 241.150011 
L 219.528288 240.843026 
L 220.10303 240.813721 
L 220.677773 240.988253 
L 221.367464 241.456399 
L 222.172103 242.331635 
L 223.091691 243.705281 
L 224.356124 246.074678 
L 228.379321 254.02796 
L 229.298909 255.256004 
L 230.103548 256.00396 
L 230.793239 256.378104 
L 231.48293 256.495978 
L 232.172621 256.357703 
L 232.862312 255.972325 
L 233.666952 255.234215 
L 234.586539 254.061545 
L 235.850973 252.02152 
L 239.989118 244.94677 
L 240.908706 243.909875 
L 241.713345 243.292436 
L 242.403036 242.99918 
L 243.092727 242.931732 
L 243.782418 243.08932 
L 244.472109 243.463309 
L 245.276748 244.151283 
L 246.311285 245.375055 
L 247.690667 247.427761 
L 251.139121 252.770677 
L 252.173658 253.917342 
L 253.093245 254.615795 
L 253.897885 254.946828 
L 254.587576 255.012267 
L 255.277267 254.87614 
L 256.081906 254.472695 
L 257.001494 253.718319 
L 258.03603 252.559226 
L 259.530361 250.500215 
L 262.404073 246.458926 
L 263.553558 245.24998 
L 264.473145 244.579022 
L 265.277785 244.241537 
L 266.082424 244.15105 
L 266.887064 244.308593 
L 267.691703 244.703362 
L 268.611291 245.416346 
L 269.760776 246.627089 
L 271.485003 248.844526 
L 273.783973 251.776826 
L 274.933458 252.912857 
L 275.967994 253.62117 
L 276.772633 253.930838 
L 277.577273 254.015174 
L 278.381912 253.87282 
L 279.186552 253.513249 
L 280.106139 252.862057 
L 281.255624 251.753969 
L 282.979852 249.719766 
L 285.39377 246.902647 
L 286.543255 245.881981 
L 287.577791 245.257012 
L 288.497379 244.973699 
L 289.302018 244.948339 
L 290.106658 245.129639 
L 291.026245 245.575051 
L 292.060782 246.341204 
L 293.440164 247.687413 
L 297.578309 251.99157 
L 298.612845 252.674851 
L 299.532433 253.042856 
L 300.452021 253.163076 
L 301.371609 253.029994 
L 302.291197 252.653882 
L 303.325733 251.972202 
L 304.590167 250.847818 
L 306.889136 248.415575 
L 308.613364 246.730783 
L 309.762848 245.875135 
L 310.797385 245.365912 
L 311.716973 245.150645 
L 312.636561 245.168645 
L 313.556148 245.414167 
L 314.590685 245.936945 
L 315.855118 246.861163 
L 317.809242 248.633067 
L 319.878315 250.442282 
L 321.142748 251.261177 
L 322.177285 251.677333 
L 323.096873 251.823611 
L 324.016461 251.748031 
L 324.936048 251.453892 
L 325.970585 250.883072 
L 327.235018 249.901921 
L 329.074194 248.137581 
L 331.603061 245.743854 
L 332.867494 244.845669 
L 333.90203 244.351136 
L 334.936567 244.104701 
L 335.856155 244.101135 
L 336.890691 244.329352 
L 338.040176 244.835212 
L 339.419558 245.70141 
L 343.557703 248.484359 
L 344.707188 248.903112 
L 345.741724 249.041457 
L 346.661312 248.956063 
L 347.695848 248.622934 
L 348.730385 248.054125 
L 349.994818 247.088754 
L 351.719045 245.454563 
L 354.822655 242.468775 
L 356.202036 241.480374 
L 357.351521 240.927128 
L 358.386058 240.66407 
L 359.420594 240.623596 
L 360.570079 240.81647 
L 361.834512 241.259591 
L 364.018533 242.317403 
L 365.972658 243.169111 
L 367.237091 243.476462 
L 368.271627 243.51601 
L 369.306164 243.335189 
L 370.3407 242.924171 
L 371.490185 242.207428 
L 372.754618 241.144201 
L 374.478845 239.369234 
L 378.272145 235.355594 
L 379.651527 234.261728 
L 380.915961 233.548978 
L 382.065445 233.157539 
L 383.21493 232.996509 
L 384.479364 233.039776 
L 386.318539 233.35359 
L 388.732458 233.747054 
L 389.996891 233.731684 
L 391.146376 233.495731 
L 392.295861 233.009743 
L 393.445345 232.259896 
L 394.709779 231.143316 
L 396.204109 229.492828 
L 398.38813 226.692394 
L 401.261842 223.059506 
L 402.871121 221.396194 
L 404.250503 220.289469 
L 405.514936 219.545358 
L 406.894318 218.995782 
L 408.618545 218.577208 
L 411.837103 217.869521 
L 413.216485 217.291219 
L 414.480918 216.496943 
L 415.745352 215.409677 
L 417.009785 214.022424 
L 418.504115 212.03215 
L 420.458239 209.010045 
L 425.171127 201.546991 
L 426.895355 199.339281 
L 428.389685 197.767218 
L 429.998964 196.391968 
L 432.182985 194.850752 
L 432.757727 194.462744 
L 432.757727 194.462744 
" style="fill:none;stroke:#808080;stroke-linecap:square;stroke-width:1.5;"/>
   </g>
   <g id="line2d_18">
    <path clip-path="url(#p972562ce60)" d="M 87.912273 154.95537 
L 88.372067 154.587946 
L 88.716912 154.569363 
L 89.061758 154.772803 
L 89.521552 155.389676 
L 89.981345 156.398733 
L 90.556088 158.200978 
L 91.245779 161.127466 
L 92.050418 165.524492 
L 93.084955 172.550101 
L 94.349388 182.798219 
L 96.418461 201.75431 
L 98.832379 223.353145 
L 100.096812 232.848561 
L 101.131348 239.151034 
L 102.050936 243.455638 
L 102.855576 246.144282 
L 103.430318 247.433232 
L 104.005061 248.197648 
L 104.464855 248.43879 
L 104.8097 248.409673 
L 105.269494 248.101031 
L 105.729288 247.498358 
L 106.30403 246.359898 
L 106.993721 244.48519 
L 107.913309 241.262097 
L 109.177742 235.868549 
L 112.856094 219.519662 
L 113.89063 216.208035 
L 114.69527 214.351385 
L 115.384961 213.328427 
L 115.959703 212.902581 
L 116.419497 212.848969 
L 116.879291 213.052297 
L 117.339085 213.51066 
L 117.913827 214.433998 
L 118.603518 216.032017 
L 119.408158 218.514287 
L 120.442694 222.532024 
L 121.822076 228.900735 
L 124.925685 243.592924 
L 125.960221 247.315185 
L 126.764861 249.422201 
L 127.339603 250.418591 
L 127.799397 250.876068 
L 128.259191 251.010192 
L 128.604036 250.888364 
L 129.06383 250.418001 
L 129.523624 249.58548 
L 130.098367 248.023605 
L 130.788058 245.375315 
L 131.592697 241.223527 
L 132.512285 235.124585 
L 133.546821 226.669075 
L 134.811255 214.383942 
L 136.535482 195.219123 
L 140.213833 153.679572 
L 141.478267 142.158791 
L 142.512803 134.729052 
L 143.317442 130.440649 
L 144.007133 127.915372 
L 144.581876 126.671699 
L 144.926721 126.313411 
L 145.271567 126.251083 
L 145.616412 126.487263 
L 145.961258 127.023142 
L 146.421052 128.203319 
L 146.995794 130.420166 
L 147.685485 134.143041 
L 148.490124 139.885033 
L 149.409712 148.145614 
L 150.559197 160.672635 
L 152.053527 179.718816 
L 157.456106 251.465721 
L 158.605591 262.753723 
L 159.640127 270.73082 
L 160.444767 275.373626 
L 161.134458 278.227022 
L 161.7092 279.808226 
L 162.168994 280.5591 
L 162.513839 280.82905 
L 162.858685 280.854325 
L 163.20353 280.64231 
L 163.663324 280.00558 
L 164.238067 278.674582 
L 164.927758 276.364465 
L 165.732397 272.822395 
L 166.766933 267.223422 
L 168.491161 256.414881 
L 170.675182 242.930348 
L 171.824667 237.105468 
L 172.744255 233.460888 
L 173.548894 231.138463 
L 174.238585 229.838569 
L 174.813327 229.253992 
L 175.273121 229.111269 
L 175.732915 229.251176 
L 176.192709 229.663942 
L 176.767452 230.542885 
L 177.457142 232.084699 
L 178.261782 234.46269 
L 179.411267 238.677986 
L 183.664361 255.272815 
L 184.583948 257.577376 
L 185.273639 258.755512 
L 185.848382 259.342241 
L 186.308176 259.542071 
L 186.76797 259.498473 
L 187.227764 259.211791 
L 187.802506 258.517994 
L 188.377248 257.466401 
L 189.066939 255.76635 
L 189.986527 252.850831 
L 191.136012 248.410544 
L 195.274158 231.546891 
L 196.193745 229.0121 
L 196.883436 227.659254 
L 197.458179 226.932804 
L 197.917973 226.629244 
L 198.377767 226.579705 
L 198.837561 226.787108 
L 199.297355 227.250755 
L 199.872097 228.183749 
L 200.561788 229.799191 
L 201.366427 232.310479 
L 202.400964 236.377679 
L 203.780345 242.827326 
L 206.998903 258.29886 
L 208.033439 262.152536 
L 208.838079 264.454188 
L 209.52777 265.865176 
L 210.102512 266.614148 
L 210.562306 266.923975 
L 211.0221 266.97363 
L 211.481894 266.764318 
L 211.941688 266.300949 
L 212.51643 265.377843 
L 213.206121 263.799083 
L 214.010761 261.382036 
L 215.045297 257.547937 
L 216.769524 250.13559 
L 218.723648 241.971641 
L 219.758185 238.507866 
L 220.562824 236.476728 
L 221.252515 235.288066 
L 221.827258 234.725652 
L 222.287052 234.570292 
L 222.746845 234.683032 
L 223.206639 235.065566 
L 223.781382 235.919419 
L 224.471073 237.476924 
L 225.275712 239.976737 
L 226.1953 243.616508 
L 227.459733 249.64477 
L 231.367982 269.209356 
L 232.28757 272.502374 
L 233.092209 274.592328 
L 233.666952 275.569768 
L 234.126745 276.019914 
L 234.586539 276.163906 
L 234.931385 276.067137 
L 235.391179 275.663013 
L 235.850973 274.945646 
L 236.425715 273.616619 
L 237.115406 271.413941 
L 237.920045 268.072191 
L 238.954582 262.73165 
L 240.333964 254.297019 
L 243.897367 231.768397 
L 244.931903 226.750721 
L 245.736542 223.740825 
L 246.426233 221.880621 
L 247.000976 220.879156 
L 247.46077 220.452209 
L 247.805615 220.354378 
L 248.150461 220.448285 
L 248.610255 220.870892 
L 249.070048 221.629051 
L 249.644791 223.035357 
L 250.334482 225.361399 
L 251.139121 228.877991 
L 252.173658 234.475955 
L 253.553039 243.293565 
L 257.461288 269.197774 
L 258.610773 275.025834 
L 259.530361 278.617971 
L 260.335 280.882975 
L 261.024691 282.139696 
L 261.599433 282.699445 
L 262.059227 282.832364 
L 262.519021 282.693008 
L 262.978815 282.291844 
L 263.553558 281.443051 
L 264.243248 279.958742 
L 265.047888 277.671184 
L 266.082424 274.044028 
L 267.806652 267.045959 
L 269.875724 258.82136 
L 271.025209 255.0944 
L 271.944797 252.801372 
L 272.749436 251.384063 
L 273.439127 250.639593 
L 274.01387 250.359434 
L 274.473664 250.357551 
L 274.933458 250.54958 
L 275.5082 251.053043 
L 276.197891 252.021036 
L 277.00253 253.60306 
L 278.037067 256.235722 
L 279.416448 260.485374 
L 283.439645 273.416394 
L 284.58913 276.222823 
L 285.623667 278.162972 
L 286.428306 279.256906 
L 287.232945 279.983317 
L 287.922636 280.321651 
L 288.612327 280.412486 
L 289.302018 280.275853 
L 290.106658 279.861761 
L 291.026245 279.106942 
L 292.17573 277.843977 
L 293.899958 275.557767 
L 298.497897 269.302566 
L 302.636042 263.87974 
L 304.245321 261.34151 
L 305.8546 258.392169 
L 307.693776 254.544919 
L 312.981406 243.137267 
L 314.245839 241.075375 
L 315.395324 239.613481 
L 316.429861 238.657533 
L 317.349448 238.08772 
L 318.269036 237.756674 
L 319.303573 237.619064 
L 320.682955 237.689006 
L 323.096873 237.85751 
L 324.131409 237.686047 
L 325.050997 237.307217 
L 325.970585 236.670226 
L 326.890173 235.750459 
L 327.924709 234.37387 
L 329.074194 232.455348 
L 330.568524 229.50085 
L 333.90203 222.734435 
L 334.936567 221.163336 
L 335.741206 220.28382 
L 336.430897 219.818199 
L 337.005639 219.657572 
L 337.580382 219.719297 
L 338.155124 220.014268 
L 338.729867 220.549483 
L 339.419558 221.512633 
L 340.224197 223.07393 
L 341.143785 225.409382 
L 342.178321 228.671619 
L 343.442755 233.405271 
L 345.396879 241.711352 
L 348.270591 253.837238 
L 349.649973 258.68878 
L 350.799458 261.943981 
L 351.719045 263.956893 
L 352.523685 265.266374 
L 353.328324 266.155297 
L 354.018015 266.594256 
L 354.707706 266.753493 
L 355.397397 266.656873 
L 356.087088 266.333332 
L 356.891727 265.712991 
L 357.926264 264.618266 
L 359.535542 262.522059 
L 362.409255 258.733365 
L 363.903585 257.158462 
L 365.282967 256.022831 
L 366.892245 255.006198 
L 370.915442 252.644822 
L 372.409773 251.389701 
L 374.019052 249.726389 
L 377.812352 245.625825 
L 378.846888 244.905842 
L 379.651527 244.596699 
L 380.341218 244.543667 
L 381.030909 244.710629 
L 381.7206 245.114531 
L 382.410291 245.765221 
L 383.21493 246.83815 
L 384.134518 248.461506 
L 385.284003 251.015149 
L 386.778333 254.956411 
L 389.652045 262.670039 
L 390.686582 264.791939 
L 391.491221 265.975371 
L 392.180912 266.589157 
L 392.755655 266.780992 
L 393.215448 266.708522 
L 393.675242 266.425108 
L 394.249985 265.764076 
L 394.824727 264.755362 
L 395.514418 263.085031 
L 396.319058 260.518169 
L 397.238645 256.824585 
L 398.38813 251.229268 
L 399.997409 242.126522 
L 403.215967 223.663213 
L 404.365452 218.451321 
L 405.285039 215.249462 
L 405.97473 213.514281 
L 406.549473 212.543045 
L 407.009267 212.090052 
L 407.469061 211.930687 
L 407.928855 212.066207 
L 408.388648 212.494068 
L 408.963391 213.429923 
L 409.653082 215.112427 
L 410.457721 217.777653 
L 411.492258 222.134224 
L 412.871639 229.050427 
L 415.745352 243.68025 
L 416.779888 247.671307 
L 417.584527 249.901119 
L 418.15927 250.93387 
L 418.619064 251.389646 
L 418.963909 251.503166 
L 419.308755 251.413993 
L 419.6536 251.117262 
L 420.113394 250.392908 
L 420.688136 248.953803 
L 421.377827 246.447554 
L 422.182467 242.481631 
L 423.102055 236.673406 
L 424.251539 227.771747 
L 425.74587 214.246641 
L 429.424221 180.093285 
L 430.573706 171.827878 
L 431.493294 166.787538 
L 432.182985 164.084171 
L 432.757727 162.600682 
L 432.757727 162.600682 
" style="fill:none;stroke:#8ac6d1;stroke-linecap:square;stroke-width:1.5;"/>
   </g>
   <g id="patch_3">
    <path d="M 70.67 293.56 
L 70.67 57.552 
" style="fill:none;stroke:#000000;stroke-linecap:square;stroke-linejoin:miter;stroke-width:1.5;"/>
   </g>
   <g id="patch_4">
    <path d="M 70.67 293.56 
L 450 293.56 
" style="fill:none;stroke:#000000;stroke-linecap:square;stroke-linejoin:miter;stroke-width:1.5;"/>
   </g>
   <g id="text_19">
    <!-- Gramacy &amp; Lee Interpolation -->
    <g transform="translate(101.594687 26.916812)scale(0.22 -0.22)">
     <defs>
      <path d="M 59.515625 10.40625 
L 59.515625 29.984375 
L 43.40625 29.984375 
L 43.40625 38.09375 
L 69.28125 38.09375 
L 69.28125 6.78125 
Q 63.578125 2.734375 56.6875 0.65625 
Q 49.8125 -1.421875 42 -1.421875 
Q 24.90625 -1.421875 15.25 8.5625 
Q 5.609375 18.5625 5.609375 36.375 
Q 5.609375 54.25 15.25 64.234375 
Q 24.90625 74.21875 42 74.21875 
Q 49.125 74.21875 55.546875 72.453125 
Q 61.96875 70.703125 67.390625 67.28125 
L 67.390625 56.78125 
Q 61.921875 61.421875 55.765625 63.765625 
Q 49.609375 66.109375 42.828125 66.109375 
Q 29.4375 66.109375 22.71875 58.640625 
Q 16.015625 51.171875 16.015625 36.375 
Q 16.015625 21.625 22.71875 14.15625 
Q 29.4375 6.6875 42.828125 6.6875 
Q 48.046875 6.6875 52.140625 7.59375 
Q 56.25 8.5 59.515625 10.40625 
z
" id="DejaVuSans-71"/>
      <path d="M 41.109375 46.296875 
Q 39.59375 47.171875 37.8125 47.578125 
Q 36.03125 48 33.890625 48 
Q 26.265625 48 22.1875 43.046875 
Q 18.109375 38.09375 18.109375 28.8125 
L 18.109375 0 
L 9.078125 0 
L 9.078125 54.6875 
L 18.109375 54.6875 
L 18.109375 46.1875 
Q 20.953125 51.171875 25.484375 53.578125 
Q 30.03125 56 36.53125 56 
Q 37.453125 56 38.578125 55.875 
Q 39.703125 55.765625 41.0625 55.515625 
z
" id="DejaVuSans-114"/>
      <path d="M 34.28125 27.484375 
Q 23.390625 27.484375 19.1875 25 
Q 14.984375 22.515625 14.984375 16.5 
Q 14.984375 11.71875 18.140625 8.90625 
Q 21.296875 6.109375 26.703125 6.109375 
Q 34.1875 6.109375 38.703125 11.40625 
Q 43.21875 16.703125 43.21875 25.484375 
L 43.21875 27.484375 
z
M 52.203125 31.203125 
L 52.203125 0 
L 43.21875 0 
L 43.21875 8.296875 
Q 40.140625 3.328125 35.546875 0.953125 
Q 30.953125 -1.421875 24.3125 -1.421875 
Q 15.921875 -1.421875 10.953125 3.296875 
Q 6 8.015625 6 15.921875 
Q 6 25.140625 12.171875 29.828125 
Q 18.359375 34.515625 30.609375 34.515625 
L 43.21875 34.515625 
L 43.21875 35.40625 
Q 43.21875 41.609375 39.140625 45 
Q 35.0625 48.390625 27.6875 48.390625 
Q 23 48.390625 18.546875 47.265625 
Q 14.109375 46.140625 10.015625 43.890625 
L 10.015625 52.203125 
Q 14.9375 54.109375 19.578125 55.046875 
Q 24.21875 56 28.609375 56 
Q 40.484375 56 46.34375 49.84375 
Q 52.203125 43.703125 52.203125 31.203125 
z
" id="DejaVuSans-97"/>
      <path d="M 52 44.1875 
Q 55.375 50.25 60.0625 53.125 
Q 64.75 56 71.09375 56 
Q 79.640625 56 84.28125 50.015625 
Q 88.921875 44.046875 88.921875 33.015625 
L 88.921875 0 
L 79.890625 0 
L 79.890625 32.71875 
Q 79.890625 40.578125 77.09375 44.375 
Q 74.3125 48.1875 68.609375 48.1875 
Q 61.625 48.1875 57.5625 43.546875 
Q 53.515625 38.921875 53.515625 30.90625 
L 53.515625 0 
L 44.484375 0 
L 44.484375 32.71875 
Q 44.484375 40.625 41.703125 44.40625 
Q 38.921875 48.1875 33.109375 48.1875 
Q 26.21875 48.1875 22.15625 43.53125 
Q 18.109375 38.875 18.109375 30.90625 
L 18.109375 0 
L 9.078125 0 
L 9.078125 54.6875 
L 18.109375 54.6875 
L 18.109375 46.1875 
Q 21.1875 51.21875 25.484375 53.609375 
Q 29.78125 56 35.6875 56 
Q 41.65625 56 45.828125 52.96875 
Q 50 49.953125 52 44.1875 
z
" id="DejaVuSans-109"/>
      <path d="M 48.78125 52.59375 
L 48.78125 44.1875 
Q 44.96875 46.296875 41.140625 47.34375 
Q 37.3125 48.390625 33.40625 48.390625 
Q 24.65625 48.390625 19.8125 42.84375 
Q 14.984375 37.3125 14.984375 27.296875 
Q 14.984375 17.28125 19.8125 11.734375 
Q 24.65625 6.203125 33.40625 6.203125 
Q 37.3125 6.203125 41.140625 7.25 
Q 44.96875 8.296875 48.78125 10.40625 
L 48.78125 2.09375 
Q 45.015625 0.34375 40.984375 -0.53125 
Q 36.96875 -1.421875 32.421875 -1.421875 
Q 20.0625 -1.421875 12.78125 6.34375 
Q 5.515625 14.109375 5.515625 27.296875 
Q 5.515625 40.671875 12.859375 48.328125 
Q 20.21875 56 33.015625 56 
Q 37.15625 56 41.109375 55.140625 
Q 45.0625 54.296875 48.78125 52.59375 
z
" id="DejaVuSans-99"/>
      <path id="DejaVuSans-32"/>
      <path d="M 24.3125 39.203125 
Q 19.875 35.25 17.796875 31.3125 
Q 15.71875 27.390625 15.71875 23.09375 
Q 15.71875 15.96875 20.890625 11.234375 
Q 26.078125 6.5 33.890625 6.5 
Q 38.53125 6.5 42.578125 8.03125 
Q 46.625 9.578125 50.203125 12.703125 
z
M 31.203125 44.671875 
L 56 19.28125 
Q 58.890625 23.640625 60.5 28.59375 
Q 62.109375 33.546875 62.40625 39.109375 
L 71.484375 39.109375 
Q 70.90625 32.671875 68.359375 26.359375 
Q 65.828125 20.0625 61.28125 13.921875 
L 74.90625 0 
L 62.59375 0 
L 55.609375 7.171875 
Q 50.53125 2.828125 44.96875 0.703125 
Q 39.40625 -1.421875 33.015625 -1.421875 
Q 21.234375 -1.421875 13.765625 5.296875 
Q 6.296875 12.015625 6.296875 22.515625 
Q 6.296875 28.765625 9.5625 34.25 
Q 12.84375 39.75 19.390625 44.578125 
Q 17.046875 47.65625 15.8125 50.703125 
Q 14.59375 53.765625 14.59375 56.6875 
Q 14.59375 64.59375 20.015625 69.40625 
Q 25.4375 74.21875 34.421875 74.21875 
Q 38.484375 74.21875 42.5 73.34375 
Q 46.53125 72.46875 50.6875 70.703125 
L 50.6875 61.8125 
Q 46.4375 64.109375 42.578125 65.296875 
Q 38.71875 66.5 35.40625 66.5 
Q 30.28125 66.5 27.078125 63.78125 
Q 23.875 61.078125 23.875 56.78125 
Q 23.875 54.296875 25.3125 51.78125 
Q 26.765625 49.265625 31.203125 44.671875 
z
" id="DejaVuSans-38"/>
      <path d="M 9.8125 72.90625 
L 19.671875 72.90625 
L 19.671875 8.296875 
L 55.171875 8.296875 
L 55.171875 0 
L 9.8125 0 
z
" id="DejaVuSans-76"/>
      <path d="M 56.203125 29.59375 
L 56.203125 25.203125 
L 14.890625 25.203125 
Q 15.484375 15.921875 20.484375 11.0625 
Q 25.484375 6.203125 34.421875 6.203125 
Q 39.59375 6.203125 44.453125 7.46875 
Q 49.3125 8.734375 54.109375 11.28125 
L 54.109375 2.78125 
Q 49.265625 0.734375 44.1875 -0.34375 
Q 39.109375 -1.421875 33.890625 -1.421875 
Q 20.796875 -1.421875 13.15625 6.1875 
Q 5.515625 13.8125 5.515625 26.8125 
Q 5.515625 40.234375 12.765625 48.109375 
Q 20.015625 56 32.328125 56 
Q 43.359375 56 49.78125 48.890625 
Q 56.203125 41.796875 56.203125 29.59375 
z
M 47.21875 32.234375 
Q 47.125 39.59375 43.09375 43.984375 
Q 39.0625 48.390625 32.421875 48.390625 
Q 24.90625 48.390625 20.390625 44.140625 
Q 15.875 39.890625 15.1875 32.171875 
z
" id="DejaVuSans-101"/>
      <path d="M 9.8125 72.90625 
L 19.671875 72.90625 
L 19.671875 0 
L 9.8125 0 
z
" id="DejaVuSans-73"/>
      <path d="M 54.890625 33.015625 
L 54.890625 0 
L 45.90625 0 
L 45.90625 32.71875 
Q 45.90625 40.484375 42.875 44.328125 
Q 39.84375 48.1875 33.796875 48.1875 
Q 26.515625 48.1875 22.3125 43.546875 
Q 18.109375 38.921875 18.109375 30.90625 
L 18.109375 0 
L 9.078125 0 
L 9.078125 54.6875 
L 18.109375 54.6875 
L 18.109375 46.1875 
Q 21.34375 51.125 25.703125 53.5625 
Q 30.078125 56 35.796875 56 
Q 45.21875 56 50.046875 50.171875 
Q 54.890625 44.34375 54.890625 33.015625 
z
" id="DejaVuSans-110"/>
      <path d="M 18.3125 70.21875 
L 18.3125 54.6875 
L 36.8125 54.6875 
L 36.8125 47.703125 
L 18.3125 47.703125 
L 18.3125 18.015625 
Q 18.3125 11.328125 20.140625 9.421875 
Q 21.96875 7.515625 27.59375 7.515625 
L 36.8125 7.515625 
L 36.8125 0 
L 27.59375 0 
Q 17.1875 0 13.234375 3.875 
Q 9.28125 7.765625 9.28125 18.015625 
L 9.28125 47.703125 
L 2.6875 47.703125 
L 2.6875 54.6875 
L 9.28125 54.6875 
L 9.28125 70.21875 
z
" id="DejaVuSans-116"/>
      <path d="M 18.109375 8.203125 
L 18.109375 -20.796875 
L 9.078125 -20.796875 
L 9.078125 54.6875 
L 18.109375 54.6875 
L 18.109375 46.390625 
Q 20.953125 51.265625 25.265625 53.625 
Q 29.59375 56 35.59375 56 
Q 45.5625 56 51.78125 48.09375 
Q 58.015625 40.1875 58.015625 27.296875 
Q 58.015625 14.40625 51.78125 6.484375 
Q 45.5625 -1.421875 35.59375 -1.421875 
Q 29.59375 -1.421875 25.265625 0.953125 
Q 20.953125 3.328125 18.109375 8.203125 
z
M 48.6875 27.296875 
Q 48.6875 37.203125 44.609375 42.84375 
Q 40.53125 48.484375 33.40625 48.484375 
Q 26.265625 48.484375 22.1875 42.84375 
Q 18.109375 37.203125 18.109375 27.296875 
Q 18.109375 17.390625 22.1875 11.75 
Q 26.265625 6.109375 33.40625 6.109375 
Q 40.53125 6.109375 44.609375 11.75 
Q 48.6875 17.390625 48.6875 27.296875 
z
" id="DejaVuSans-112"/>
      <path d="M 30.609375 48.390625 
Q 23.390625 48.390625 19.1875 42.75 
Q 14.984375 37.109375 14.984375 27.296875 
Q 14.984375 17.484375 19.15625 11.84375 
Q 23.34375 6.203125 30.609375 6.203125 
Q 37.796875 6.203125 41.984375 11.859375 
Q 46.1875 17.53125 46.1875 27.296875 
Q 46.1875 37.015625 41.984375 42.703125 
Q 37.796875 48.390625 30.609375 48.390625 
z
M 30.609375 56 
Q 42.328125 56 49.015625 48.375 
Q 55.71875 40.765625 55.71875 27.296875 
Q 55.71875 13.875 49.015625 6.21875 
Q 42.328125 -1.421875 30.609375 -1.421875 
Q 18.84375 -1.421875 12.171875 6.21875 
Q 5.515625 13.875 5.515625 27.296875 
Q 5.515625 40.765625 12.171875 48.375 
Q 18.84375 56 30.609375 56 
z
" id="DejaVuSans-111"/>
      <path d="M 9.421875 75.984375 
L 18.40625 75.984375 
L 18.40625 0 
L 9.421875 0 
z
" id="DejaVuSans-108"/>
      <path d="M 9.421875 54.6875 
L 18.40625 54.6875 
L 18.40625 0 
L 9.421875 0 
z
M 9.421875 75.984375 
L 18.40625 75.984375 
L 18.40625 64.59375 
L 9.421875 64.59375 
z
" id="DejaVuSans-105"/>
     </defs>
     <use xlink:href="#DejaVuSans-71"/>
     <use x="77.490234" xlink:href="#DejaVuSans-114"/>
     <use x="118.603516" xlink:href="#DejaVuSans-97"/>
     <use x="179.882812" xlink:href="#DejaVuSans-109"/>
     <use x="277.294922" xlink:href="#DejaVuSans-97"/>
     <use x="338.574219" xlink:href="#DejaVuSans-99"/>
     <use x="393.554688" xlink:href="#DejaVuSans-121"/>
     <use x="452.734375" xlink:href="#DejaVuSans-32"/>
     <use x="484.521484" xlink:href="#DejaVuSans-38"/>
     <use x="562.5" xlink:href="#DejaVuSans-32"/>
     <use x="594.287109" xlink:href="#DejaVuSans-76"/>
     <use x="648.25" xlink:href="#DejaVuSans-101"/>
     <use x="709.773438" xlink:href="#DejaVuSans-101"/>
     <use x="771.296875" xlink:href="#DejaVuSans-32"/>
     <use x="803.083984" xlink:href="#DejaVuSans-73"/>
     <use x="832.576172" xlink:href="#DejaVuSans-110"/>
     <use x="895.955078" xlink:href="#DejaVuSans-116"/>
     <use x="935.164062" xlink:href="#DejaVuSans-101"/>
     <use x="996.6875" xlink:href="#DejaVuSans-114"/>
     <use x="1037.800781" xlink:href="#DejaVuSans-112"/>
     <use x="1101.277344" xlink:href="#DejaVuSans-111"/>
     <use x="1162.458984" xlink:href="#DejaVuSans-108"/>
     <use x="1190.242188" xlink:href="#DejaVuSans-97"/>
     <use x="1251.521484" xlink:href="#DejaVuSans-116"/>
     <use x="1290.730469" xlink:href="#DejaVuSans-105"/>
     <use x="1318.513672" xlink:href="#DejaVuSans-111"/>
     <use x="1379.695312" xlink:href="#DejaVuSans-110"/>
    </g>
    <!--  (Hyperopt) -->
    <g transform="translate(197.420156 51.552)scale(0.22 -0.22)">
     <defs>
      <path d="M 31 75.875 
Q 24.46875 64.65625 21.28125 53.65625 
Q 18.109375 42.671875 18.109375 31.390625 
Q 18.109375 20.125 21.3125 9.0625 
Q 24.515625 -2 31 -13.1875 
L 23.1875 -13.1875 
Q 15.875 -1.703125 12.234375 9.375 
Q 8.59375 20.453125 8.59375 31.390625 
Q 8.59375 42.28125 12.203125 53.3125 
Q 15.828125 64.359375 23.1875 75.875 
z
" id="DejaVuSans-40"/>
      <path d="M 9.8125 72.90625 
L 19.671875 72.90625 
L 19.671875 43.015625 
L 55.515625 43.015625 
L 55.515625 72.90625 
L 65.375 72.90625 
L 65.375 0 
L 55.515625 0 
L 55.515625 34.71875 
L 19.671875 34.71875 
L 19.671875 0 
L 9.8125 0 
z
" id="DejaVuSans-72"/>
      <path d="M 8.015625 75.875 
L 15.828125 75.875 
Q 23.140625 64.359375 26.78125 53.3125 
Q 30.421875 42.28125 30.421875 31.390625 
Q 30.421875 20.453125 26.78125 9.375 
Q 23.140625 -1.703125 15.828125 -13.1875 
L 8.015625 -13.1875 
Q 14.5 -2 17.703125 9.0625 
Q 20.90625 20.125 20.90625 31.390625 
Q 20.90625 42.671875 17.703125 53.65625 
Q 14.5 64.65625 8.015625 75.875 
z
" id="DejaVuSans-41"/>
     </defs>
     <use xlink:href="#DejaVuSans-32"/>
     <use x="31.787109" xlink:href="#DejaVuSans-40"/>
     <use x="70.800781" xlink:href="#DejaVuSans-72"/>
     <use x="145.996094" xlink:href="#DejaVuSans-121"/>
     <use x="205.175781" xlink:href="#DejaVuSans-112"/>
     <use x="268.652344" xlink:href="#DejaVuSans-101"/>
     <use x="330.175781" xlink:href="#DejaVuSans-114"/>
     <use x="369.039062" xlink:href="#DejaVuSans-111"/>
     <use x="430.220703" xlink:href="#DejaVuSans-112"/>
     <use x="493.697266" xlink:href="#DejaVuSans-116"/>
     <use x="532.90625" xlink:href="#DejaVuSans-41"/>
    </g>
   </g>
   <g id="legend_1">
    <g id="patch_5">
     <path d="M 310.6425 102.3795 
L 441.6 102.3795 
Q 444 102.3795 444 99.9795 
L 444 65.952 
Q 444 63.552 441.6 63.552 
L 310.6425 63.552 
Q 308.2425 63.552 308.2425 65.952 
L 308.2425 99.9795 
Q 308.2425 102.3795 310.6425 102.3795 
z
" style="fill:#ffffff;opacity:0.8;stroke:#cccccc;stroke-linejoin:miter;"/>
    </g>
    <g id="line2d_19">
     <path d="M 313.0425 73.270125 
L 337.0425 73.270125 
" style="fill:none;stroke:#808080;stroke-linecap:square;stroke-width:1.5;"/>
    </g>
    <g id="line2d_20"/>
    <g id="text_20">
     <!-- Gramacy &amp; Lee -->
     <g transform="translate(346.6425 77.470125)scale(0.12 -0.12)">
      <use xlink:href="#DejaVuSans-71"/>
      <use x="77.490234" xlink:href="#DejaVuSans-114"/>
      <use x="118.603516" xlink:href="#DejaVuSans-97"/>
      <use x="179.882812" xlink:href="#DejaVuSans-109"/>
      <use x="277.294922" xlink:href="#DejaVuSans-97"/>
      <use x="338.574219" xlink:href="#DejaVuSans-99"/>
      <use x="393.554688" xlink:href="#DejaVuSans-121"/>
      <use x="452.734375" xlink:href="#DejaVuSans-32"/>
      <use x="484.521484" xlink:href="#DejaVuSans-38"/>
      <use x="562.5" xlink:href="#DejaVuSans-32"/>
      <use x="594.287109" xlink:href="#DejaVuSans-76"/>
      <use x="648.25" xlink:href="#DejaVuSans-101"/>
      <use x="709.773438" xlink:href="#DejaVuSans-101"/>
     </g>
    </g>
    <g id="line2d_21">
     <path d="M 313.0425 90.883875 
L 337.0425 90.883875 
" style="fill:none;stroke:#8ac6d1;stroke-linecap:square;stroke-width:1.5;"/>
    </g>
    <g id="line2d_22"/>
    <g id="text_21">
     <!-- Hyperopt -->
     <g transform="translate(346.6425 95.083875)scale(0.12 -0.12)">
      <use xlink:href="#DejaVuSans-72"/>
      <use x="75.195312" xlink:href="#DejaVuSans-121"/>
      <use x="134.375" xlink:href="#DejaVuSans-112"/>
      <use x="197.851562" xlink:href="#DejaVuSans-101"/>
      <use x="259.375" xlink:href="#DejaVuSans-114"/>
      <use x="298.238281" xlink:href="#DejaVuSans-111"/>
      <use x="359.419922" xlink:href="#DejaVuSans-112"/>
      <use x="422.896484" xlink:href="#DejaVuSans-116"/>
     </g>
    </g>
   </g>
  </g>
 </g>
 <defs>
  <clipPath id="p972562ce60">
   <rect height="236.008" width="379.33" x="70.67" y="57.552"/>
  </clipPath>
 </defs>
</svg>
