<?xml version="1.0" encoding="utf-8" standalone="no"?>
<!DOCTYPE svg PUBLIC "-//W3C//DTD SVG 1.1//EN"
  "http://www.w3.org/Graphics/SVG/1.1/DTD/svg11.dtd">
<!-- Created with matplotlib (https://matplotlib.org/) -->
<svg height="345.6pt" version="1.1" viewBox="0 0 460.8 345.6" width="460.8pt" xmlns="http://www.w3.org/2000/svg" xmlns:xlink="http://www.w3.org/1999/xlink">
 <metadata>
  <rdf:RDF xmlns:cc="http://creativecommons.org/ns#" xmlns:dc="http://purl.org/dc/elements/1.1/" xmlns:rdf="http://www.w3.org/1999/02/22-rdf-syntax-ns#">
   <cc:Work>
    <dc:type rdf:resource="http://purl.org/dc/dcmitype/StillImage"/>
    <dc:date>2022-08-16T11:43:29.626241</dc:date>
    <dc:format>image/svg+xml</dc:format>
    <dc:creator>
     <cc:Agent>
      <dc:title>Matplotlib v3.3.4, https://matplotlib.org/</dc:title>
     </cc:Agent>
    </dc:creator>
   </cc:Work>
  </rdf:RDF>
 </metadata>
 <defs>
  <style type="text/css">*{stroke-linecap:butt;stroke-linejoin:round;}</style>
 </defs>
 <g id="figure_1">
  <g id="patch_1">
   <path d="M 0 345.6 
L 460.8 345.6 
L 460.8 0 
L 0 0 
z
" style="fill:#ffffff;"/>
  </g>
  <g id="axes_1">
   <g id="patch_2">
    <path d="M 58.25 293.56 
L 450 293.56 
L 450 57.552 
L 58.25 57.552 
z
" style="fill:#ffffff;"/>
   </g>
   <g id="matplotlib.axis_1">
    <g id="xtick_1">
     <g id="line2d_1">
      <defs>
       <path d="M 0 0 
L 0 3.5 
" id="mdd7a37111f" style="stroke:#000000;stroke-width:0.8;"/>
      </defs>
      <g>
       <use style="stroke:#000000;stroke-width:0.8;" x="76.056818" xlink:href="#mdd7a37111f" y="293.56"/>
      </g>
     </g>
     <g id="text_1">
      <!-- −0.5 -->
      <g transform="translate(60.27299 310.437969)scale(0.13 -0.13)">
       <defs>
        <path d="M 10.59375 35.5 
L 73.1875 35.5 
L 73.1875 27.203125 
L 10.59375 27.203125 
z
" id="DejaVuSans-8722"/>
        <path d="M 31.78125 66.40625 
Q 24.171875 66.40625 20.328125 58.90625 
Q 16.5 51.421875 16.5 36.375 
Q 16.5 21.390625 20.328125 13.890625 
Q 24.171875 6.390625 31.78125 6.390625 
Q 39.453125 6.390625 43.28125 13.890625 
Q 47.125 21.390625 47.125 36.375 
Q 47.125 51.421875 43.28125 58.90625 
Q 39.453125 66.40625 31.78125 66.40625 
z
M 31.78125 74.21875 
Q 44.046875 74.21875 50.515625 64.515625 
Q 56.984375 54.828125 56.984375 36.375 
Q 56.984375 17.96875 50.515625 8.265625 
Q 44.046875 -1.421875 31.78125 -1.421875 
Q 19.53125 -1.421875 13.0625 8.265625 
Q 6.59375 17.96875 6.59375 36.375 
Q 6.59375 54.828125 13.0625 64.515625 
Q 19.53125 74.21875 31.78125 74.21875 
z
" id="DejaVuSans-48"/>
        <path d="M 10.6875 12.40625 
L 21 12.40625 
L 21 0 
L 10.6875 0 
z
" id="DejaVuSans-46"/>
        <path d="M 10.796875 72.90625 
L 49.515625 72.90625 
L 49.515625 64.59375 
L 19.828125 64.59375 
L 19.828125 46.734375 
Q 21.96875 47.46875 24.109375 47.828125 
Q 26.265625 48.1875 28.421875 48.1875 
Q 40.625 48.1875 47.75 41.5 
Q 54.890625 34.8125 54.890625 23.390625 
Q 54.890625 11.625 47.5625 5.09375 
Q 40.234375 -1.421875 26.90625 -1.421875 
Q 22.3125 -1.421875 17.546875 -0.640625 
Q 12.796875 0.140625 7.71875 1.703125 
L 7.71875 11.625 
Q 12.109375 9.234375 16.796875 8.0625 
Q 21.484375 6.890625 26.703125 6.890625 
Q 35.15625 6.890625 40.078125 11.328125 
Q 45.015625 15.765625 45.015625 23.390625 
Q 45.015625 31 40.078125 35.4375 
Q 35.15625 39.890625 26.703125 39.890625 
Q 22.75 39.890625 18.8125 39.015625 
Q 14.890625 38.140625 10.796875 36.28125 
z
" id="DejaVuSans-53"/>
       </defs>
       <use xlink:href="#DejaVuSans-8722"/>
       <use x="83.789062" xlink:href="#DejaVuSans-48"/>
       <use x="147.412109" xlink:href="#DejaVuSans-46"/>
       <use x="179.199219" xlink:href="#DejaVuSans-53"/>
      </g>
     </g>
    </g>
    <g id="xtick_2">
     <g id="line2d_2">
      <g>
       <use style="stroke:#000000;stroke-width:0.8;" x="135.412879" xlink:href="#mdd7a37111f" y="293.56"/>
      </g>
     </g>
     <g id="text_2">
      <!-- 0.0 -->
      <g transform="translate(125.075848 310.437969)scale(0.13 -0.13)">
       <use xlink:href="#DejaVuSans-48"/>
       <use x="63.623047" xlink:href="#DejaVuSans-46"/>
       <use x="95.410156" xlink:href="#DejaVuSans-48"/>
      </g>
     </g>
    </g>
    <g id="xtick_3">
     <g id="line2d_3">
      <g>
       <use style="stroke:#000000;stroke-width:0.8;" x="194.768939" xlink:href="#mdd7a37111f" y="293.56"/>
      </g>
     </g>
     <g id="text_3">
      <!-- 0.5 -->
      <g transform="translate(184.431908 310.437969)scale(0.13 -0.13)">
       <use xlink:href="#DejaVuSans-48"/>
       <use x="63.623047" xlink:href="#DejaVuSans-46"/>
       <use x="95.410156" xlink:href="#DejaVuSans-53"/>
      </g>
     </g>
    </g>
    <g id="xtick_4">
     <g id="line2d_4">
      <g>
       <use style="stroke:#000000;stroke-width:0.8;" x="254.125" xlink:href="#mdd7a37111f" y="293.56"/>
      </g>
     </g>
     <g id="text_4">
      <!-- 1.0 -->
      <g transform="translate(243.787969 310.437969)scale(0.13 -0.13)">
       <defs>
        <path d="M 12.40625 8.296875 
L 28.515625 8.296875 
L 28.515625 63.921875 
L 10.984375 60.40625 
L 10.984375 69.390625 
L 28.421875 72.90625 
L 38.28125 72.90625 
L 38.28125 8.296875 
L 54.390625 8.296875 
L 54.390625 0 
L 12.40625 0 
z
" id="DejaVuSans-49"/>
       </defs>
       <use xlink:href="#DejaVuSans-49"/>
       <use x="63.623047" xlink:href="#DejaVuSans-46"/>
       <use x="95.410156" xlink:href="#DejaVuSans-48"/>
      </g>
     </g>
    </g>
    <g id="xtick_5">
     <g id="line2d_5">
      <g>
       <use style="stroke:#000000;stroke-width:0.8;" x="313.481061" xlink:href="#mdd7a37111f" y="293.56"/>
      </g>
     </g>
     <g id="text_5">
      <!-- 1.5 -->
      <g transform="translate(303.144029 310.437969)scale(0.13 -0.13)">
       <use xlink:href="#DejaVuSans-49"/>
       <use x="63.623047" xlink:href="#DejaVuSans-46"/>
       <use x="95.410156" xlink:href="#DejaVuSans-53"/>
      </g>
     </g>
    </g>
    <g id="xtick_6">
     <g id="line2d_6">
      <g>
       <use style="stroke:#000000;stroke-width:0.8;" x="372.837121" xlink:href="#mdd7a37111f" y="293.56"/>
      </g>
     </g>
     <g id="text_6">
      <!-- 2.0 -->
      <g transform="translate(362.50009 310.437969)scale(0.13 -0.13)">
       <defs>
        <path d="M 19.1875 8.296875 
L 53.609375 8.296875 
L 53.609375 0 
L 7.328125 0 
L 7.328125 8.296875 
Q 12.9375 14.109375 22.625 23.890625 
Q 32.328125 33.6875 34.8125 36.53125 
Q 39.546875 41.84375 41.421875 45.53125 
Q 43.3125 49.21875 43.3125 52.78125 
Q 43.3125 58.59375 39.234375 62.25 
Q 35.15625 65.921875 28.609375 65.921875 
Q 23.96875 65.921875 18.8125 64.3125 
Q 13.671875 62.703125 7.8125 59.421875 
L 7.8125 69.390625 
Q 13.765625 71.78125 18.9375 73 
Q 24.125 74.21875 28.421875 74.21875 
Q 39.75 74.21875 46.484375 68.546875 
Q 53.21875 62.890625 53.21875 53.421875 
Q 53.21875 48.921875 51.53125 44.890625 
Q 49.859375 40.875 45.40625 35.40625 
Q 44.1875 33.984375 37.640625 27.21875 
Q 31.109375 20.453125 19.1875 8.296875 
z
" id="DejaVuSans-50"/>
       </defs>
       <use xlink:href="#DejaVuSans-50"/>
       <use x="63.623047" xlink:href="#DejaVuSans-46"/>
       <use x="95.410156" xlink:href="#DejaVuSans-48"/>
      </g>
     </g>
    </g>
    <g id="xtick_7">
     <g id="line2d_7">
      <g>
       <use style="stroke:#000000;stroke-width:0.8;" x="432.193182" xlink:href="#mdd7a37111f" y="293.56"/>
      </g>
     </g>
     <g id="text_7">
      <!-- 2.5 -->
      <g transform="translate(421.856151 310.437969)scale(0.13 -0.13)">
       <use xlink:href="#DejaVuSans-50"/>
       <use x="63.623047" xlink:href="#DejaVuSans-46"/>
       <use x="95.410156" xlink:href="#DejaVuSans-53"/>
      </g>
     </g>
    </g>
    <g id="text_8">
     <!-- x -->
     <g transform="translate(248.798125 330.81875)scale(0.18 -0.18)">
      <defs>
       <path d="M 54.890625 54.6875 
L 35.109375 28.078125 
L 55.90625 0 
L 45.3125 0 
L 29.390625 21.484375 
L 13.484375 0 
L 2.875 0 
L 24.125 28.609375 
L 4.6875 54.6875 
L 15.28125 54.6875 
L 29.78125 35.203125 
L 44.28125 54.6875 
z
" id="DejaVuSans-120"/>
      </defs>
      <use xlink:href="#DejaVuSans-120"/>
     </g>
    </g>
   </g>
   <g id="matplotlib.axis_2">
    <g id="ytick_1">
     <g id="line2d_8">
      <defs>
       <path d="M 0 0 
L -3.5 0 
" id="m45b7abe6cd" style="stroke:#000000;stroke-width:0.8;"/>
      </defs>
      <g>
       <use style="stroke:#000000;stroke-width:0.8;" x="58.25" xlink:href="#m45b7abe6cd" y="288.447397"/>
      </g>
     </g>
     <g id="text_9">
      <!-- −5 -->
      <g transform="translate(32.085156 293.386382)scale(0.13 -0.13)">
       <use xlink:href="#DejaVuSans-8722"/>
       <use x="83.789062" xlink:href="#DejaVuSans-53"/>
      </g>
     </g>
    </g>
    <g id="ytick_2">
     <g id="line2d_9">
      <g>
       <use style="stroke:#000000;stroke-width:0.8;" x="58.25" xlink:href="#m45b7abe6cd" y="237.73943"/>
      </g>
     </g>
     <g id="text_10">
      <!-- 0 -->
      <g transform="translate(42.97875 242.678415)scale(0.13 -0.13)">
       <use xlink:href="#DejaVuSans-48"/>
      </g>
     </g>
    </g>
    <g id="ytick_3">
     <g id="line2d_10">
      <g>
       <use style="stroke:#000000;stroke-width:0.8;" x="58.25" xlink:href="#m45b7abe6cd" y="187.031463"/>
      </g>
     </g>
     <g id="text_11">
      <!-- 5 -->
      <g transform="translate(42.97875 191.970448)scale(0.13 -0.13)">
       <use xlink:href="#DejaVuSans-53"/>
      </g>
     </g>
    </g>
    <g id="ytick_4">
     <g id="line2d_11">
      <g>
       <use style="stroke:#000000;stroke-width:0.8;" x="58.25" xlink:href="#m45b7abe6cd" y="136.323496"/>
      </g>
     </g>
     <g id="text_12">
      <!-- 10 -->
      <g transform="translate(34.7075 141.262481)scale(0.13 -0.13)">
       <use xlink:href="#DejaVuSans-49"/>
       <use x="63.623047" xlink:href="#DejaVuSans-48"/>
      </g>
     </g>
    </g>
    <g id="ytick_5">
     <g id="line2d_12">
      <g>
       <use style="stroke:#000000;stroke-width:0.8;" x="58.25" xlink:href="#m45b7abe6cd" y="85.615529"/>
      </g>
     </g>
     <g id="text_13">
      <!-- 15 -->
      <g transform="translate(34.7075 90.554514)scale(0.13 -0.13)">
       <use xlink:href="#DejaVuSans-49"/>
       <use x="63.623047" xlink:href="#DejaVuSans-53"/>
      </g>
     </g>
    </g>
    <g id="text_14">
     <!-- y -->
     <g transform="translate(24.341719 180.882875)rotate(-90)scale(0.18 -0.18)">
      <defs>
       <path d="M 32.171875 -5.078125 
Q 28.375 -14.84375 24.75 -17.8125 
Q 21.140625 -20.796875 15.09375 -20.796875 
L 7.90625 -20.796875 
L 7.90625 -13.28125 
L 13.1875 -13.28125 
Q 16.890625 -13.28125 18.9375 -11.515625 
Q 21 -9.765625 23.484375 -3.21875 
L 25.09375 0.875 
L 2.984375 54.6875 
L 12.5 54.6875 
L 29.59375 11.921875 
L 46.6875 54.6875 
L 56.203125 54.6875 
z
" id="DejaVuSans-121"/>
      </defs>
      <use xlink:href="#DejaVuSans-121"/>
     </g>
    </g>
   </g>
   <g id="line2d_13">
    <path clip-path="url(#pfc0fb848c8)" d="M 76.056818 186.397614 
L 78.668485 182.582023 
L 79.49947 181.747555 
L 80.211742 181.308022 
L 80.805303 181.17494 
L 81.398864 181.27949 
L 81.992424 181.640016 
L 82.585985 182.268864 
L 83.298258 183.385524 
L 84.129242 185.182751 
L 85.078939 187.85167 
L 86.266061 191.982482 
L 87.809318 198.270851 
L 90.895833 211.050267 
L 92.082955 214.910191 
L 92.913939 216.967712 
L 93.626212 218.23125 
L 94.219773 218.900886 
L 94.694621 219.174934 
L 95.16947 219.212403 
L 95.644318 219.013328 
L 96.119167 218.581332 
L 96.712727 217.725154 
L 97.425 216.264167 
L 98.255985 214.031959 
L 99.324394 210.506469 
L 101.579924 202.010409 
L 103.00447 197.173624 
L 103.954167 194.720166 
L 104.666439 193.457881 
L 105.26 192.854885 
L 105.734848 192.696494 
L 106.090985 192.77809 
L 106.565833 193.164738 
L 107.040682 193.877381 
L 107.634242 195.233619 
L 108.346515 197.540814 
L 109.1775 201.135637 
L 110.127197 206.3289 
L 111.314318 214.147977 
L 113.332424 229.281906 
L 115.113106 242.101258 
L 116.181515 248.352827 
L 117.0125 252.003264 
L 117.606061 253.807032 
L 118.080909 254.704837 
L 118.437045 255.03579 
L 118.793182 255.057928 
L 119.149318 254.759232 
L 119.505455 254.129444 
L 119.980303 252.760451 
L 120.573864 250.179317 
L 121.286136 245.789702 
L 122.117121 238.899346 
L 123.066818 228.784923 
L 124.135227 214.809285 
L 125.441061 194.654514 
L 127.459167 159.450334 
L 130.070833 114.348352 
L 131.376667 95.453306 
L 132.445076 83.12122 
L 133.276061 75.899426 
L 133.988333 71.545144 
L 134.581894 69.288016 
L 134.93803 68.549759 
L 135.294167 68.279636 
L 135.531591 68.360769 
L 135.887727 68.874295 
L 136.243864 69.855973 
L 136.718712 71.884838 
L 137.312273 75.551803 
L 138.024545 81.540936 
L 138.85553 90.561469 
L 139.923939 104.982446 
L 141.229773 126.009621 
L 143.247879 162.694763 
L 145.859545 209.511169 
L 147.284091 231.085531 
L 148.3525 244.326686 
L 149.302197 253.636132 
L 150.133182 259.760934 
L 150.845455 263.485957 
L 151.439015 265.529257 
L 151.913864 266.489898 
L 152.27 266.831267 
L 152.626136 266.860248 
L 152.982273 266.589985 
L 153.338409 266.035189 
L 153.813258 264.880968 
L 154.406818 262.831561 
L 155.237803 258.992052 
L 156.306212 252.786793 
L 158.086894 240.80217 
L 159.986288 228.385158 
L 161.173409 222.032287 
L 162.123106 218.14487 
L 162.835379 216.037176 
L 163.428939 214.842679 
L 163.903788 214.261748 
L 164.378636 214.012796 
L 164.734773 214.040486 
L 165.209621 214.355238 
L 165.68447 214.974631 
L 166.27803 216.149797 
L 166.990303 218.09059 
L 167.94 221.431304 
L 169.245833 227.011394 
L 172.807197 242.814768 
L 173.875606 246.335169 
L 174.706591 248.378526 
L 175.418864 249.589201 
L 176.012424 250.199386 
L 176.487273 250.424036 
L 176.962121 250.417083 
L 177.43697 250.184578 
L 178.03053 249.591233 
L 178.742803 248.468896 
L 179.573788 246.66502 
L 180.642197 243.731387 
L 182.304167 238.388939 
L 184.440985 231.659176 
L 185.509394 228.948152 
L 186.459091 227.12851 
L 187.171364 226.189872 
L 187.764924 225.707315 
L 188.358485 225.504271 
L 188.952045 225.580238 
L 189.545606 225.928049 
L 190.139167 226.534182 
L 190.851439 227.574796 
L 191.801136 229.420362 
L 192.988258 232.279443 
L 197.261894 243.170856 
L 198.211591 244.814459 
L 199.042576 245.829407 
L 199.754848 246.354977 
L 200.348409 246.541414 
L 200.94197 246.499005 
L 201.53553 246.233357 
L 202.247803 245.635556 
L 203.078788 244.589834 
L 204.028485 243.009924 
L 205.334318 240.366297 
L 208.77697 233.126926 
L 209.845379 231.476676 
L 210.676364 230.548657 
L 211.388636 230.033756 
L 212.100909 229.792531 
L 212.69447 229.803576 
L 213.406742 230.066827 
L 214.119015 230.589399 
L 214.95 231.496233 
L 216.018409 233.05454 
L 217.442955 235.59964 
L 220.52947 241.274443 
L 221.597879 242.7738 
L 222.547576 243.742572 
L 223.378561 244.265258 
L 224.090833 244.455968 
L 224.803106 244.405922 
L 225.515379 244.120837 
L 226.346364 243.510033 
L 227.296061 242.488751 
L 228.483182 240.833266 
L 230.501288 237.524678 
L 232.400682 234.568637 
L 233.587803 233.130998 
L 234.5375 232.321 
L 235.368485 231.899989 
L 236.080758 231.766103 
L 236.79303 231.843942 
L 237.505303 232.127843 
L 238.336288 232.702061 
L 239.285985 233.639132 
L 240.473106 235.136421 
L 242.847348 238.615121 
L 244.509318 240.84042 
L 245.577727 241.949412 
L 246.527424 242.641177 
L 247.358409 242.987123 
L 248.189394 243.077048 
L 249.020379 242.910426 
L 249.851364 242.498951 
L 250.801061 241.759091 
L 251.988182 240.506302 
L 253.650152 238.377522 
L 256.143106 235.201332 
L 257.330227 234.035763 
L 258.279924 233.374089 
L 259.110909 233.025878 
L 259.941894 232.907823 
L 260.772879 233.022495 
L 261.603864 233.361334 
L 262.553561 233.998075 
L 263.740682 235.102351 
L 265.402652 237.014178 
L 268.13303 240.167758 
L 269.320152 241.200463 
L 270.269848 241.774864 
L 271.219545 242.089072 
L 272.05053 242.137542 
L 272.881515 241.974464 
L 273.831212 241.542684 
L 274.899621 240.781489 
L 276.205455 239.547731 
L 281.072652 234.612534 
L 282.141061 233.99584 
L 283.090758 233.699481 
L 284.040455 233.656367 
L 284.990152 233.865614 
L 285.939848 234.310603 
L 287.008258 235.053742 
L 288.432803 236.336124 
L 292.469015 240.163721 
L 293.656136 240.88903 
L 294.605833 241.233514 
L 295.55553 241.34605 
L 296.505227 241.221474 
L 297.454924 240.869401 
L 298.523333 240.231292 
L 299.829167 239.178774 
L 302.322121 236.788076 
L 304.102803 235.233698 
L 305.289924 234.458685 
L 306.358333 234.010276 
L 307.30803 233.835885 
L 308.257727 233.879932 
L 309.207424 234.135331 
L 310.275833 234.649542 
L 311.581667 235.536759 
L 313.837197 237.407732 
L 315.736591 238.879977 
L 317.042424 239.620491 
L 318.110833 239.98353 
L 319.06053 240.094773 
L 320.010227 239.998017 
L 321.078636 239.646881 
L 322.265758 238.98696 
L 323.690303 237.904837 
L 328.913636 233.625043 
L 330.100758 233.097335 
L 331.169167 232.866651 
L 332.237576 232.876012 
L 333.305985 233.113878 
L 334.493106 233.609403 
L 336.036364 234.513427 
L 339.835152 236.860615 
L 341.022273 237.299653 
L 342.090682 237.478771 
L 343.159091 237.428165 
L 344.2275 237.142055 
L 345.414621 236.563643 
L 346.720455 235.659974 
L 348.501136 234.130235 
L 351.706364 231.335287 
L 353.130909 230.41006 
L 354.31803 229.892175 
L 355.386439 229.645931 
L 356.454848 229.608044 
L 357.64197 229.788591 
L 359.066515 230.249586 
L 361.796894 231.456146 
L 363.458864 232.060294 
L 364.764697 232.303574 
L 365.951818 232.282877 
L 367.020227 232.041997 
L 368.088636 231.58622 
L 369.275758 230.843567 
L 370.700303 229.679424 
L 372.837121 227.597837 
L 375.5675 224.974498 
L 377.110758 223.803143 
L 378.416591 223.086349 
L 379.603712 222.674461 
L 380.790833 222.482745 
L 382.096667 222.488364 
L 383.877348 222.736983 
L 386.845152 223.177964 
L 388.150985 223.144256 
L 389.338106 222.901194 
L 390.525227 222.421779 
L 391.712348 221.695321 
L 393.018182 220.625717 
L 394.561439 219.058846 
L 397.054394 216.139665 
L 399.666061 213.166582 
L 401.32803 211.609583 
L 402.752576 210.573595 
L 404.177121 209.825082 
L 405.601667 209.32937 
L 407.501061 208.930267 
L 410.587576 208.308321 
L 412.012121 207.766981 
L 413.317955 207.023472 
L 414.623788 206.0057 
L 415.929621 204.707115 
L 417.472879 202.844052 
L 419.490985 200.015108 
L 424.358182 193.029063 
L 426.138864 190.962461 
L 427.800833 189.389508 
L 429.462803 188.121084 
L 431.955758 186.543429 
L 432.193182 186.397614 
L 432.193182 186.397614 
" style="fill:none;stroke:#808080;stroke-linecap:square;stroke-width:1.5;"/>
   </g>
   <g id="line2d_14">
    <path clip-path="url(#pfc0fb848c8)" d="M 76.056818 209.743201 
L 77.956212 198.652318 
L 79.143333 192.936321 
L 80.09303 189.362607 
L 80.924015 187.0986 
L 81.517576 186.018855 
L 81.992424 185.491321 
L 82.467273 185.26791 
L 82.823409 185.300653 
L 83.298258 185.609581 
L 83.773106 186.216468 
L 84.366667 187.379914 
L 85.078939 189.335086 
L 85.909924 192.310042 
L 86.978333 197.043008 
L 88.521591 205.072383 
L 91.370682 220.135795 
L 92.557803 225.154329 
L 93.5075 228.202399 
L 94.219773 229.821192 
L 94.813333 230.696874 
L 95.288182 231.076573 
L 95.76303 231.167783 
L 96.237879 230.97187 
L 96.712727 230.494375 
L 97.306288 229.516657 
L 98.018561 227.8227 
L 98.849545 225.213402 
L 99.917955 221.068501 
L 101.817348 212.571022 
L 103.479318 205.502442 
L 104.547727 201.913542 
L 105.26 200.162208 
L 105.853561 199.174257 
L 106.328409 198.724305 
L 106.803258 198.596255 
L 107.159394 198.71954 
L 107.634242 199.183589 
L 108.109091 199.994156 
L 108.702652 201.493621 
L 109.414924 203.988467 
L 110.245909 207.798112 
L 111.314318 213.931797 
L 112.738864 223.671901 
L 115.944091 246.202004 
L 116.893788 251.273523 
L 117.606061 254.134586 
L 118.199621 255.777215 
L 118.67447 256.548962 
L 119.030606 256.788082 
L 119.386742 256.721584 
L 119.742879 256.338324 
L 120.099015 255.628998 
L 120.573864 254.163571 
L 121.167424 251.481103 
L 121.879697 247.005514 
L 122.710682 240.077256 
L 123.660379 230.023458 
L 124.728788 216.281048 
L 126.153333 194.806619 
L 131.376667 112.375204 
L 132.445076 100.629298 
L 133.276061 93.827496 
L 133.988333 89.826027 
L 134.463182 88.156754 
L 134.819318 87.446531 
L 135.175455 87.208501 
L 135.412879 87.314349 
L 135.769015 87.87144 
L 136.125152 88.906157 
L 136.6 91.023448 
L 137.193561 94.834278 
L 137.905833 101.051725 
L 138.736818 110.421736 
L 139.805227 125.422953 
L 141.111061 147.326434 
L 143.247879 187.803247 
L 145.622121 231.617309 
L 146.927955 251.805291 
L 147.996364 265.058812 
L 148.827348 272.972884 
L 149.539621 277.950969 
L 150.133182 280.781334 
L 150.60803 282.174156 
L 150.964167 282.712361 
L 151.201591 282.832364 
L 151.439015 282.763581 
L 151.795152 282.311985 
L 152.151288 281.451656 
L 152.626136 279.690943 
L 153.219697 276.555781 
L 153.93197 271.536862 
L 154.881667 263.000822 
L 156.068788 250.043668 
L 158.086894 224.994029 
L 160.223712 199.377648 
L 161.410833 187.570219 
L 162.36053 180.020106 
L 163.191515 175.022838 
L 163.903788 172.024309 
L 164.497348 170.458394 
L 164.972197 169.818401 
L 165.328333 169.692169 
L 165.68447 169.863863 
L 166.040606 170.326711 
L 166.515455 171.381755 
L 167.109015 173.368593 
L 167.821288 176.653373 
L 168.652273 181.572384 
L 169.720682 189.272386 
L 171.382652 203.166151 
L 174.350455 228.12556 
L 175.656288 237.111715 
L 176.724697 242.968175 
L 177.555682 246.478911 
L 178.386667 249.046255 
L 179.098939 250.506752 
L 179.6925 251.224661 
L 180.167348 251.491489 
L 180.642197 251.503813 
L 181.117045 251.281883 
L 181.710606 250.709538 
L 182.422879 249.653915 
L 183.372576 247.766869 
L 184.915833 244.05225 
L 186.933939 239.261373 
L 188.002348 237.245048 
L 188.952045 235.920215 
L 189.78303 235.165612 
L 190.495303 234.825132 
L 191.207576 234.755916 
L 191.919848 234.934062 
L 192.750833 235.407649 
L 193.819242 236.326854 
L 197.380606 239.685263 
L 198.211591 240.059642 
L 198.923864 240.153995 
L 199.636136 240.016391 
L 200.348409 239.636808 
L 201.060682 239.016853 
L 201.891667 238.008014 
L 202.960076 236.323771 
L 204.503333 233.379565 
L 206.877576 228.806342 
L 207.945985 227.220048 
L 208.77697 226.354049 
L 209.489242 225.923529 
L 210.082803 225.808616 
L 210.676364 225.928297 
L 211.269924 226.288586 
L 211.982197 227.037984 
L 212.69447 228.121447 
L 213.525455 229.774022 
L 214.593864 232.417568 
L 216.137121 236.918326 
L 218.748788 244.570154 
L 219.817197 247.014503 
L 220.648182 248.418254 
L 221.360455 249.203981 
L 221.954015 249.532943 
L 222.428864 249.570643 
L 222.903712 249.402098 
L 223.497273 248.898205 
L 224.090833 248.070905 
L 224.803106 246.665291 
L 225.634091 244.496305 
L 226.7025 240.987343 
L 228.127045 235.405727 
L 231.450985 221.964599 
L 232.519394 218.668418 
L 233.350379 216.764555 
L 234.062652 215.676706 
L 234.656212 215.19099 
L 235.131061 215.092345 
L 235.605909 215.258409 
L 236.080758 215.69206 
L 236.674318 216.609232 
L 237.386591 218.247424 
L 238.217576 220.859183 
L 239.167273 224.670925 
L 240.354394 230.437431 
L 242.253788 241.01732 
L 244.509318 253.397399 
L 245.696439 258.811967 
L 246.646136 262.237296 
L 247.477121 264.439563 
L 248.189394 265.677622 
L 248.664242 266.154445 
L 249.139091 266.347566 
L 249.613939 266.256785 
L 250.088788 265.885426 
L 250.682348 265.037326 
L 251.275909 263.782294 
L 251.988182 261.779558 
L 252.937879 258.371676 
L 254.125 253.189313 
L 256.261818 242.585129 
L 258.161212 233.620517 
L 259.348333 229.055575 
L 260.29803 226.258563 
L 261.010303 224.742075 
L 261.603864 223.88726 
L 262.197424 223.416128 
L 262.672273 223.317766 
L 263.147121 223.465027 
L 263.62197 223.852796 
L 264.21553 224.663092 
L 264.927803 226.082987 
L 265.758788 228.291964 
L 266.827197 231.850754 
L 268.370455 237.934649 
L 271.45697 250.322092 
L 272.644091 254.096597 
L 273.593788 256.415139 
L 274.424773 257.850681 
L 275.018333 258.513773 
L 275.611894 258.867069 
L 276.086742 258.926262 
L 276.561591 258.789462 
L 277.155152 258.350492 
L 277.748712 257.627358 
L 278.460985 256.411743 
L 279.410682 254.26964 
L 280.597803 250.921374 
L 282.259773 245.451669 
L 285.465 234.802037 
L 286.889545 230.925577 
L 288.076667 228.345092 
L 289.145076 226.571231 
L 290.094773 225.425416 
L 290.925758 224.733373 
L 291.756742 224.300552 
L 292.706439 224.075828 
L 293.656136 224.079471 
L 294.843258 224.307422 
L 296.980076 224.999977 
L 299.591742 225.782591 
L 304.458939 227.06069 
L 305.646061 227.690874 
L 306.833182 228.581366 
L 308.020303 229.76716 
L 309.326136 231.413466 
L 310.869394 233.748719 
L 315.617879 241.283372 
L 316.686288 242.43935 
L 317.635985 243.133892 
L 318.46697 243.44682 
L 319.179242 243.480058 
L 319.891515 243.290348 
L 320.603788 242.878866 
L 321.434773 242.129505 
L 322.38447 240.948612 
L 323.571591 239.068328 
L 325.233561 235.948515 
L 327.963939 230.79998 
L 329.151061 229.034433 
L 330.100758 227.987441 
L 330.931742 227.389393 
L 331.644015 227.134922 
L 332.356288 227.128649 
L 333.068561 227.372323 
L 333.780833 227.860336 
L 334.611818 228.721165 
L 335.561515 230.049773 
L 336.748636 232.132041 
L 338.410606 235.55081 
L 341.497121 241.956338 
L 342.802955 244.152784 
L 343.871364 245.575988 
L 344.939773 246.629092 
L 345.88947 247.257087 
L 346.839167 247.619727 
L 347.907576 247.763303 
L 349.213409 247.674259 
L 352.537348 247.291457 
L 353.605758 247.446195 
L 354.674167 247.838796 
L 355.742576 248.48578 
L 356.929697 249.480266 
L 358.591667 251.21246 
L 360.965909 253.695905 
L 362.034318 254.496966 
L 362.865303 254.864493 
L 363.577576 254.955352 
L 364.289848 254.807883 
L 365.002121 254.398506 
L 365.714394 253.71076 
L 366.545379 252.54581 
L 367.376364 250.992542 
L 368.444773 248.456673 
L 369.631894 245.022739 
L 371.293864 239.454049 
L 374.617803 228.136244 
L 375.804924 224.911269 
L 376.754621 222.903997 
L 377.585606 221.641125 
L 378.297879 220.957461 
L 378.891439 220.679675 
L 379.485 220.669278 
L 380.078561 220.922257 
L 380.672121 221.428994 
L 381.384394 222.350398 
L 382.215379 223.810799 
L 383.283788 226.181752 
L 384.945758 230.531306 
L 387.082576 236.066687 
L 388.150985 238.280733 
L 388.98197 239.567058 
L 389.694242 240.301165 
L 390.287803 240.624202 
L 390.881364 240.668175 
L 391.356212 240.495975 
L 391.949773 240.018396 
L 392.543333 239.251513 
L 393.255606 237.961558 
L 394.086591 235.981238 
L 395.155 232.782022 
L 396.579545 227.673122 
L 400.615758 212.633761 
L 401.684167 209.692888 
L 402.515152 207.961345 
L 403.227424 206.912358 
L 403.820985 206.361784 
L 404.414545 206.110721 
L 404.889394 206.124293 
L 405.482955 206.402283 
L 406.076515 206.956562 
L 406.788788 207.956637 
L 407.619773 209.524138 
L 408.688182 212.026236 
L 412.843106 222.407416 
L 413.674091 223.713275 
L 414.386364 224.436976 
L 414.979924 224.726956 
L 415.454773 224.740543 
L 415.929621 224.55339 
L 416.523182 224.033135 
L 417.116742 223.196461 
L 417.829015 221.788403 
L 418.66 219.629203 
L 419.728409 216.156609 
L 421.152955 210.681955 
L 424.002045 199.530642 
L 425.070455 196.306555 
L 425.901439 194.491776 
L 426.495 193.646427 
L 426.969848 193.271592 
L 427.444697 193.183166 
L 427.800833 193.31315 
L 428.275682 193.756774 
L 428.75053 194.516039 
L 429.344091 195.914447 
L 430.056364 198.248981 
L 430.887348 201.850484 
L 431.837045 207.04086 
L 432.193182 209.254369 
L 432.193182 209.254369 
" style="fill:none;stroke:#eb6934;stroke-linecap:square;stroke-width:1.5;"/>
   </g>
   <g id="patch_3">
    <path d="M 58.25 293.56 
L 58.25 57.552 
" style="fill:none;stroke:#000000;stroke-linecap:square;stroke-linejoin:miter;stroke-width:1.5;"/>
   </g>
   <g id="patch_4">
    <path d="M 58.25 293.56 
L 450 293.56 
" style="fill:none;stroke:#000000;stroke-linecap:square;stroke-linejoin:miter;stroke-width:1.5;"/>
   </g>
   <g id="text_15">
    <!-- Gramacy &amp; Lee Interpolation -->
    <g transform="translate(95.384688 26.916812)scale(0.22 -0.22)">
     <defs>
      <path d="M 59.515625 10.40625 
L 59.515625 29.984375 
L 43.40625 29.984375 
L 43.40625 38.09375 
L 69.28125 38.09375 
L 69.28125 6.78125 
Q 63.578125 2.734375 56.6875 0.65625 
Q 49.8125 -1.421875 42 -1.421875 
Q 24.90625 -1.421875 15.25 8.5625 
Q 5.609375 18.5625 5.609375 36.375 
Q 5.609375 54.25 15.25 64.234375 
Q 24.90625 74.21875 42 74.21875 
Q 49.125 74.21875 55.546875 72.453125 
Q 61.96875 70.703125 67.390625 67.28125 
L 67.390625 56.78125 
Q 61.921875 61.421875 55.765625 63.765625 
Q 49.609375 66.109375 42.828125 66.109375 
Q 29.4375 66.109375 22.71875 58.640625 
Q 16.015625 51.171875 16.015625 36.375 
Q 16.015625 21.625 22.71875 14.15625 
Q 29.4375 6.6875 42.828125 6.6875 
Q 48.046875 6.6875 52.140625 7.59375 
Q 56.25 8.5 59.515625 10.40625 
z
" id="DejaVuSans-71"/>
      <path d="M 41.109375 46.296875 
Q 39.59375 47.171875 37.8125 47.578125 
Q 36.03125 48 33.890625 48 
Q 26.265625 48 22.1875 43.046875 
Q 18.109375 38.09375 18.109375 28.8125 
L 18.109375 0 
L 9.078125 0 
L 9.078125 54.6875 
L 18.109375 54.6875 
L 18.109375 46.1875 
Q 20.953125 51.171875 25.484375 53.578125 
Q 30.03125 56 36.53125 56 
Q 37.453125 56 38.578125 55.875 
Q 39.703125 55.765625 41.0625 55.515625 
z
" id="DejaVuSans-114"/>
      <path d="M 34.28125 27.484375 
Q 23.390625 27.484375 19.1875 25 
Q 14.984375 22.515625 14.984375 16.5 
Q 14.984375 11.71875 18.140625 8.90625 
Q 21.296875 6.109375 26.703125 6.109375 
Q 34.1875 6.109375 38.703125 11.40625 
Q 43.21875 16.703125 43.21875 25.484375 
L 43.21875 27.484375 
z
M 52.203125 31.203125 
L 52.203125 0 
L 43.21875 0 
L 43.21875 8.296875 
Q 40.140625 3.328125 35.546875 0.953125 
Q 30.953125 -1.421875 24.3125 -1.421875 
Q 15.921875 -1.421875 10.953125 3.296875 
Q 6 8.015625 6 15.921875 
Q 6 25.140625 12.171875 29.828125 
Q 18.359375 34.515625 30.609375 34.515625 
L 43.21875 34.515625 
L 43.21875 35.40625 
Q 43.21875 41.609375 39.140625 45 
Q 35.0625 48.390625 27.6875 48.390625 
Q 23 48.390625 18.546875 47.265625 
Q 14.109375 46.140625 10.015625 43.890625 
L 10.015625 52.203125 
Q 14.9375 54.109375 19.578125 55.046875 
Q 24.21875 56 28.609375 56 
Q 40.484375 56 46.34375 49.84375 
Q 52.203125 43.703125 52.203125 31.203125 
z
" id="DejaVuSans-97"/>
      <path d="M 52 44.1875 
Q 55.375 50.25 60.0625 53.125 
Q 64.75 56 71.09375 56 
Q 79.640625 56 84.28125 50.015625 
Q 88.921875 44.046875 88.921875 33.015625 
L 88.921875 0 
L 79.890625 0 
L 79.890625 32.71875 
Q 79.890625 40.578125 77.09375 44.375 
Q 74.3125 48.1875 68.609375 48.1875 
Q 61.625 48.1875 57.5625 43.546875 
Q 53.515625 38.921875 53.515625 30.90625 
L 53.515625 0 
L 44.484375 0 
L 44.484375 32.71875 
Q 44.484375 40.625 41.703125 44.40625 
Q 38.921875 48.1875 33.109375 48.1875 
Q 26.21875 48.1875 22.15625 43.53125 
Q 18.109375 38.875 18.109375 30.90625 
L 18.109375 0 
L 9.078125 0 
L 9.078125 54.6875 
L 18.109375 54.6875 
L 18.109375 46.1875 
Q 21.1875 51.21875 25.484375 53.609375 
Q 29.78125 56 35.6875 56 
Q 41.65625 56 45.828125 52.96875 
Q 50 49.953125 52 44.1875 
z
" id="DejaVuSans-109"/>
      <path d="M 48.78125 52.59375 
L 48.78125 44.1875 
Q 44.96875 46.296875 41.140625 47.34375 
Q 37.3125 48.390625 33.40625 48.390625 
Q 24.65625 48.390625 19.8125 42.84375 
Q 14.984375 37.3125 14.984375 27.296875 
Q 14.984375 17.28125 19.8125 11.734375 
Q 24.65625 6.203125 33.40625 6.203125 
Q 37.3125 6.203125 41.140625 7.25 
Q 44.96875 8.296875 48.78125 10.40625 
L 48.78125 2.09375 
Q 45.015625 0.34375 40.984375 -0.53125 
Q 36.96875 -1.421875 32.421875 -1.421875 
Q 20.0625 -1.421875 12.78125 6.34375 
Q 5.515625 14.109375 5.515625 27.296875 
Q 5.515625 40.671875 12.859375 48.328125 
Q 20.21875 56 33.015625 56 
Q 37.15625 56 41.109375 55.140625 
Q 45.0625 54.296875 48.78125 52.59375 
z
" id="DejaVuSans-99"/>
      <path id="DejaVuSans-32"/>
      <path d="M 24.3125 39.203125 
Q 19.875 35.25 17.796875 31.3125 
Q 15.71875 27.390625 15.71875 23.09375 
Q 15.71875 15.96875 20.890625 11.234375 
Q 26.078125 6.5 33.890625 6.5 
Q 38.53125 6.5 42.578125 8.03125 
Q 46.625 9.578125 50.203125 12.703125 
z
M 31.203125 44.671875 
L 56 19.28125 
Q 58.890625 23.640625 60.5 28.59375 
Q 62.109375 33.546875 62.40625 39.109375 
L 71.484375 39.109375 
Q 70.90625 32.671875 68.359375 26.359375 
Q 65.828125 20.0625 61.28125 13.921875 
L 74.90625 0 
L 62.59375 0 
L 55.609375 7.171875 
Q 50.53125 2.828125 44.96875 0.703125 
Q 39.40625 -1.421875 33.015625 -1.421875 
Q 21.234375 -1.421875 13.765625 5.296875 
Q 6.296875 12.015625 6.296875 22.515625 
Q 6.296875 28.765625 9.5625 34.25 
Q 12.84375 39.75 19.390625 44.578125 
Q 17.046875 47.65625 15.8125 50.703125 
Q 14.59375 53.765625 14.59375 56.6875 
Q 14.59375 64.59375 20.015625 69.40625 
Q 25.4375 74.21875 34.421875 74.21875 
Q 38.484375 74.21875 42.5 73.34375 
Q 46.53125 72.46875 50.6875 70.703125 
L 50.6875 61.8125 
Q 46.4375 64.109375 42.578125 65.296875 
Q 38.71875 66.5 35.40625 66.5 
Q 30.28125 66.5 27.078125 63.78125 
Q 23.875 61.078125 23.875 56.78125 
Q 23.875 54.296875 25.3125 51.78125 
Q 26.765625 49.265625 31.203125 44.671875 
z
" id="DejaVuSans-38"/>
      <path d="M 9.8125 72.90625 
L 19.671875 72.90625 
L 19.671875 8.296875 
L 55.171875 8.296875 
L 55.171875 0 
L 9.8125 0 
z
" id="DejaVuSans-76"/>
      <path d="M 56.203125 29.59375 
L 56.203125 25.203125 
L 14.890625 25.203125 
Q 15.484375 15.921875 20.484375 11.0625 
Q 25.484375 6.203125 34.421875 6.203125 
Q 39.59375 6.203125 44.453125 7.46875 
Q 49.3125 8.734375 54.109375 11.28125 
L 54.109375 2.78125 
Q 49.265625 0.734375 44.1875 -0.34375 
Q 39.109375 -1.421875 33.890625 -1.421875 
Q 20.796875 -1.421875 13.15625 6.1875 
Q 5.515625 13.8125 5.515625 26.8125 
Q 5.515625 40.234375 12.765625 48.109375 
Q 20.015625 56 32.328125 56 
Q 43.359375 56 49.78125 48.890625 
Q 56.203125 41.796875 56.203125 29.59375 
z
M 47.21875 32.234375 
Q 47.125 39.59375 43.09375 43.984375 
Q 39.0625 48.390625 32.421875 48.390625 
Q 24.90625 48.390625 20.390625 44.140625 
Q 15.875 39.890625 15.1875 32.171875 
z
" id="DejaVuSans-101"/>
      <path d="M 9.8125 72.90625 
L 19.671875 72.90625 
L 19.671875 0 
L 9.8125 0 
z
" id="DejaVuSans-73"/>
      <path d="M 54.890625 33.015625 
L 54.890625 0 
L 45.90625 0 
L 45.90625 32.71875 
Q 45.90625 40.484375 42.875 44.328125 
Q 39.84375 48.1875 33.796875 48.1875 
Q 26.515625 48.1875 22.3125 43.546875 
Q 18.109375 38.921875 18.109375 30.90625 
L 18.109375 0 
L 9.078125 0 
L 9.078125 54.6875 
L 18.109375 54.6875 
L 18.109375 46.1875 
Q 21.34375 51.125 25.703125 53.5625 
Q 30.078125 56 35.796875 56 
Q 45.21875 56 50.046875 50.171875 
Q 54.890625 44.34375 54.890625 33.015625 
z
" id="DejaVuSans-110"/>
      <path d="M 18.3125 70.21875 
L 18.3125 54.6875 
L 36.8125 54.6875 
L 36.8125 47.703125 
L 18.3125 47.703125 
L 18.3125 18.015625 
Q 18.3125 11.328125 20.140625 9.421875 
Q 21.96875 7.515625 27.59375 7.515625 
L 36.8125 7.515625 
L 36.8125 0 
L 27.59375 0 
Q 17.1875 0 13.234375 3.875 
Q 9.28125 7.765625 9.28125 18.015625 
L 9.28125 47.703125 
L 2.6875 47.703125 
L 2.6875 54.6875 
L 9.28125 54.6875 
L 9.28125 70.21875 
z
" id="DejaVuSans-116"/>
      <path d="M 18.109375 8.203125 
L 18.109375 -20.796875 
L 9.078125 -20.796875 
L 9.078125 54.6875 
L 18.109375 54.6875 
L 18.109375 46.390625 
Q 20.953125 51.265625 25.265625 53.625 
Q 29.59375 56 35.59375 56 
Q 45.5625 56 51.78125 48.09375 
Q 58.015625 40.1875 58.015625 27.296875 
Q 58.015625 14.40625 51.78125 6.484375 
Q 45.5625 -1.421875 35.59375 -1.421875 
Q 29.59375 -1.421875 25.265625 0.953125 
Q 20.953125 3.328125 18.109375 8.203125 
z
M 48.6875 27.296875 
Q 48.6875 37.203125 44.609375 42.84375 
Q 40.53125 48.484375 33.40625 48.484375 
Q 26.265625 48.484375 22.1875 42.84375 
Q 18.109375 37.203125 18.109375 27.296875 
Q 18.109375 17.390625 22.1875 11.75 
Q 26.265625 6.109375 33.40625 6.109375 
Q 40.53125 6.109375 44.609375 11.75 
Q 48.6875 17.390625 48.6875 27.296875 
z
" id="DejaVuSans-112"/>
      <path d="M 30.609375 48.390625 
Q 23.390625 48.390625 19.1875 42.75 
Q 14.984375 37.109375 14.984375 27.296875 
Q 14.984375 17.484375 19.15625 11.84375 
Q 23.34375 6.203125 30.609375 6.203125 
Q 37.796875 6.203125 41.984375 11.859375 
Q 46.1875 17.53125 46.1875 27.296875 
Q 46.1875 37.015625 41.984375 42.703125 
Q 37.796875 48.390625 30.609375 48.390625 
z
M 30.609375 56 
Q 42.328125 56 49.015625 48.375 
Q 55.71875 40.765625 55.71875 27.296875 
Q 55.71875 13.875 49.015625 6.21875 
Q 42.328125 -1.421875 30.609375 -1.421875 
Q 18.84375 -1.421875 12.171875 6.21875 
Q 5.515625 13.875 5.515625 27.296875 
Q 5.515625 40.765625 12.171875 48.375 
Q 18.84375 56 30.609375 56 
z
" id="DejaVuSans-111"/>
      <path d="M 9.421875 75.984375 
L 18.40625 75.984375 
L 18.40625 0 
L 9.421875 0 
z
" id="DejaVuSans-108"/>
      <path d="M 9.421875 54.6875 
L 18.40625 54.6875 
L 18.40625 0 
L 9.421875 0 
z
M 9.421875 75.984375 
L 18.40625 75.984375 
L 18.40625 64.59375 
L 9.421875 64.59375 
z
" id="DejaVuSans-105"/>
     </defs>
     <use xlink:href="#DejaVuSans-71"/>
     <use x="77.490234" xlink:href="#DejaVuSans-114"/>
     <use x="118.603516" xlink:href="#DejaVuSans-97"/>
     <use x="179.882812" xlink:href="#DejaVuSans-109"/>
     <use x="277.294922" xlink:href="#DejaVuSans-97"/>
     <use x="338.574219" xlink:href="#DejaVuSans-99"/>
     <use x="393.554688" xlink:href="#DejaVuSans-121"/>
     <use x="452.734375" xlink:href="#DejaVuSans-32"/>
     <use x="484.521484" xlink:href="#DejaVuSans-38"/>
     <use x="562.5" xlink:href="#DejaVuSans-32"/>
     <use x="594.287109" xlink:href="#DejaVuSans-76"/>
     <use x="648.25" xlink:href="#DejaVuSans-101"/>
     <use x="709.773438" xlink:href="#DejaVuSans-101"/>
     <use x="771.296875" xlink:href="#DejaVuSans-32"/>
     <use x="803.083984" xlink:href="#DejaVuSans-73"/>
     <use x="832.576172" xlink:href="#DejaVuSans-110"/>
     <use x="895.955078" xlink:href="#DejaVuSans-116"/>
     <use x="935.164062" xlink:href="#DejaVuSans-101"/>
     <use x="996.6875" xlink:href="#DejaVuSans-114"/>
     <use x="1037.800781" xlink:href="#DejaVuSans-112"/>
     <use x="1101.277344" xlink:href="#DejaVuSans-111"/>
     <use x="1162.458984" xlink:href="#DejaVuSans-108"/>
     <use x="1190.242188" xlink:href="#DejaVuSans-97"/>
     <use x="1251.521484" xlink:href="#DejaVuSans-116"/>
     <use x="1290.730469" xlink:href="#DejaVuSans-105"/>
     <use x="1318.513672" xlink:href="#DejaVuSans-111"/>
     <use x="1379.695312" xlink:href="#DejaVuSans-110"/>
    </g>
    <!--  (Paddy) -->
    <g transform="translate(208.689844 51.552)scale(0.22 -0.22)">
     <defs>
      <path d="M 31 75.875 
Q 24.46875 64.65625 21.28125 53.65625 
Q 18.109375 42.671875 18.109375 31.390625 
Q 18.109375 20.125 21.3125 9.0625 
Q 24.515625 -2 31 -13.1875 
L 23.1875 -13.1875 
Q 15.875 -1.703125 12.234375 9.375 
Q 8.59375 20.453125 8.59375 31.390625 
Q 8.59375 42.28125 12.203125 53.3125 
Q 15.828125 64.359375 23.1875 75.875 
z
" id="DejaVuSans-40"/>
      <path d="M 19.671875 64.796875 
L 19.671875 37.40625 
L 32.078125 37.40625 
Q 38.96875 37.40625 42.71875 40.96875 
Q 46.484375 44.53125 46.484375 51.125 
Q 46.484375 57.671875 42.71875 61.234375 
Q 38.96875 64.796875 32.078125 64.796875 
z
M 9.8125 72.90625 
L 32.078125 72.90625 
Q 44.34375 72.90625 50.609375 67.359375 
Q 56.890625 61.8125 56.890625 51.125 
Q 56.890625 40.328125 50.609375 34.8125 
Q 44.34375 29.296875 32.078125 29.296875 
L 19.671875 29.296875 
L 19.671875 0 
L 9.8125 0 
z
" id="DejaVuSans-80"/>
      <path d="M 45.40625 46.390625 
L 45.40625 75.984375 
L 54.390625 75.984375 
L 54.390625 0 
L 45.40625 0 
L 45.40625 8.203125 
Q 42.578125 3.328125 38.25 0.953125 
Q 33.9375 -1.421875 27.875 -1.421875 
Q 17.96875 -1.421875 11.734375 6.484375 
Q 5.515625 14.40625 5.515625 27.296875 
Q 5.515625 40.1875 11.734375 48.09375 
Q 17.96875 56 27.875 56 
Q 33.9375 56 38.25 53.625 
Q 42.578125 51.265625 45.40625 46.390625 
z
M 14.796875 27.296875 
Q 14.796875 17.390625 18.875 11.75 
Q 22.953125 6.109375 30.078125 6.109375 
Q 37.203125 6.109375 41.296875 11.75 
Q 45.40625 17.390625 45.40625 27.296875 
Q 45.40625 37.203125 41.296875 42.84375 
Q 37.203125 48.484375 30.078125 48.484375 
Q 22.953125 48.484375 18.875 42.84375 
Q 14.796875 37.203125 14.796875 27.296875 
z
" id="DejaVuSans-100"/>
      <path d="M 8.015625 75.875 
L 15.828125 75.875 
Q 23.140625 64.359375 26.78125 53.3125 
Q 30.421875 42.28125 30.421875 31.390625 
Q 30.421875 20.453125 26.78125 9.375 
Q 23.140625 -1.703125 15.828125 -13.1875 
L 8.015625 -13.1875 
Q 14.5 -2 17.703125 9.0625 
Q 20.90625 20.125 20.90625 31.390625 
Q 20.90625 42.671875 17.703125 53.65625 
Q 14.5 64.65625 8.015625 75.875 
z
" id="DejaVuSans-41"/>
     </defs>
     <use xlink:href="#DejaVuSans-32"/>
     <use x="31.787109" xlink:href="#DejaVuSans-40"/>
     <use x="70.800781" xlink:href="#DejaVuSans-80"/>
     <use x="126.603516" xlink:href="#DejaVuSans-97"/>
     <use x="187.882812" xlink:href="#DejaVuSans-100"/>
     <use x="251.359375" xlink:href="#DejaVuSans-100"/>
     <use x="314.835938" xlink:href="#DejaVuSans-121"/>
     <use x="374.015625" xlink:href="#DejaVuSans-41"/>
    </g>
   </g>
   <g id="legend_1">
    <g id="patch_5">
     <path d="M 310.6425 102.3795 
L 441.6 102.3795 
Q 444 102.3795 444 99.9795 
L 444 65.952 
Q 444 63.552 441.6 63.552 
L 310.6425 63.552 
Q 308.2425 63.552 308.2425 65.952 
L 308.2425 99.9795 
Q 308.2425 102.3795 310.6425 102.3795 
z
" style="fill:#ffffff;opacity:0.8;stroke:#cccccc;stroke-linejoin:miter;"/>
    </g>
    <g id="line2d_15">
     <path d="M 313.0425 73.270125 
L 337.0425 73.270125 
" style="fill:none;stroke:#808080;stroke-linecap:square;stroke-width:1.5;"/>
    </g>
    <g id="line2d_16"/>
    <g id="text_16">
     <!-- Gramacy &amp; Lee -->
     <g transform="translate(346.6425 77.470125)scale(0.12 -0.12)">
      <use xlink:href="#DejaVuSans-71"/>
      <use x="77.490234" xlink:href="#DejaVuSans-114"/>
      <use x="118.603516" xlink:href="#DejaVuSans-97"/>
      <use x="179.882812" xlink:href="#DejaVuSans-109"/>
      <use x="277.294922" xlink:href="#DejaVuSans-97"/>
      <use x="338.574219" xlink:href="#DejaVuSans-99"/>
      <use x="393.554688" xlink:href="#DejaVuSans-121"/>
      <use x="452.734375" xlink:href="#DejaVuSans-32"/>
      <use x="484.521484" xlink:href="#DejaVuSans-38"/>
      <use x="562.5" xlink:href="#DejaVuSans-32"/>
      <use x="594.287109" xlink:href="#DejaVuSans-76"/>
      <use x="648.25" xlink:href="#DejaVuSans-101"/>
      <use x="709.773438" xlink:href="#DejaVuSans-101"/>
     </g>
    </g>
    <g id="line2d_17">
     <path d="M 313.0425 90.883875 
L 337.0425 90.883875 
" style="fill:none;stroke:#eb6934;stroke-linecap:square;stroke-width:1.5;"/>
    </g>
    <g id="line2d_18"/>
    <g id="text_17">
     <!-- Paddy -->
     <g transform="translate(346.6425 95.083875)scale(0.12 -0.12)">
      <use xlink:href="#DejaVuSans-80"/>
      <use x="55.802734" xlink:href="#DejaVuSans-97"/>
      <use x="117.082031" xlink:href="#DejaVuSans-100"/>
      <use x="180.558594" xlink:href="#DejaVuSans-100"/>
      <use x="244.035156" xlink:href="#DejaVuSans-121"/>
     </g>
    </g>
   </g>
  </g>
 </g>
 <defs>
  <clipPath id="pfc0fb848c8">
   <rect height="236.008" width="391.75" x="58.25" y="57.552"/>
  </clipPath>
 </defs>
</svg>
