<?xml version="1.0" encoding="utf-8" standalone="no"?>
<!DOCTYPE svg PUBLIC "-//W3C//DTD SVG 1.1//EN"
  "http://www.w3.org/Graphics/SVG/1.1/DTD/svg11.dtd">
<!-- Created with matplotlib (https://matplotlib.org/) -->
<svg height="345.6pt" version="1.1" viewBox="0 0 460.8 345.6" width="460.8pt" xmlns="http://www.w3.org/2000/svg" xmlns:xlink="http://www.w3.org/1999/xlink">
 <metadata>
  <rdf:RDF xmlns:cc="http://creativecommons.org/ns#" xmlns:dc="http://purl.org/dc/elements/1.1/" xmlns:rdf="http://www.w3.org/1999/02/22-rdf-syntax-ns#">
   <cc:Work>
    <dc:type rdf:resource="http://purl.org/dc/dcmitype/StillImage"/>
    <dc:date>2022-08-16T11:43:29.942534</dc:date>
    <dc:format>image/svg+xml</dc:format>
    <dc:creator>
     <cc:Agent>
      <dc:title>Matplotlib v3.3.4, https://matplotlib.org/</dc:title>
     </cc:Agent>
    </dc:creator>
   </cc:Work>
  </rdf:RDF>
 </metadata>
 <defs>
  <style type="text/css">*{stroke-linecap:butt;stroke-linejoin:round;}</style>
 </defs>
 <g id="figure_1">
  <g id="patch_1">
   <path d="M 0 345.6 
L 460.8 345.6 
L 460.8 0 
L 0 0 
z
" style="fill:#ffffff;"/>
  </g>
  <g id="axes_1">
   <g id="patch_2">
    <path d="M 58.25 293.56 
L 450 293.56 
L 450 10.8 
L 58.25 10.8 
z
" style="fill:#ffffff;"/>
   </g>
   <g id="matplotlib.axis_1">
    <g id="xtick_1">
     <g id="line2d_1">
      <defs>
       <path d="M 0 0 
L 0 3.5 
" id="m03ddea06bb" style="stroke:#000000;stroke-width:0.8;"/>
      </defs>
      <g>
       <use style="stroke:#000000;stroke-width:0.8;" x="76.056818" xlink:href="#m03ddea06bb" y="293.56"/>
      </g>
     </g>
     <g id="text_1">
      <!-- −0.5 -->
      <g transform="translate(60.27299 310.437969)scale(0.13 -0.13)">
       <defs>
        <path d="M 10.59375 35.5 
L 73.1875 35.5 
L 73.1875 27.203125 
L 10.59375 27.203125 
z
" id="DejaVuSans-8722"/>
        <path d="M 31.78125 66.40625 
Q 24.171875 66.40625 20.328125 58.90625 
Q 16.5 51.421875 16.5 36.375 
Q 16.5 21.390625 20.328125 13.890625 
Q 24.171875 6.390625 31.78125 6.390625 
Q 39.453125 6.390625 43.28125 13.890625 
Q 47.125 21.390625 47.125 36.375 
Q 47.125 51.421875 43.28125 58.90625 
Q 39.453125 66.40625 31.78125 66.40625 
z
M 31.78125 74.21875 
Q 44.046875 74.21875 50.515625 64.515625 
Q 56.984375 54.828125 56.984375 36.375 
Q 56.984375 17.96875 50.515625 8.265625 
Q 44.046875 -1.421875 31.78125 -1.421875 
Q 19.53125 -1.421875 13.0625 8.265625 
Q 6.59375 17.96875 6.59375 36.375 
Q 6.59375 54.828125 13.0625 64.515625 
Q 19.53125 74.21875 31.78125 74.21875 
z
" id="DejaVuSans-48"/>
        <path d="M 10.6875 12.40625 
L 21 12.40625 
L 21 0 
L 10.6875 0 
z
" id="DejaVuSans-46"/>
        <path d="M 10.796875 72.90625 
L 49.515625 72.90625 
L 49.515625 64.59375 
L 19.828125 64.59375 
L 19.828125 46.734375 
Q 21.96875 47.46875 24.109375 47.828125 
Q 26.265625 48.1875 28.421875 48.1875 
Q 40.625 48.1875 47.75 41.5 
Q 54.890625 34.8125 54.890625 23.390625 
Q 54.890625 11.625 47.5625 5.09375 
Q 40.234375 -1.421875 26.90625 -1.421875 
Q 22.3125 -1.421875 17.546875 -0.640625 
Q 12.796875 0.140625 7.71875 1.703125 
L 7.71875 11.625 
Q 12.109375 9.234375 16.796875 8.0625 
Q 21.484375 6.890625 26.703125 6.890625 
Q 35.15625 6.890625 40.078125 11.328125 
Q 45.015625 15.765625 45.015625 23.390625 
Q 45.015625 31 40.078125 35.4375 
Q 35.15625 39.890625 26.703125 39.890625 
Q 22.75 39.890625 18.8125 39.015625 
Q 14.890625 38.140625 10.796875 36.28125 
z
" id="DejaVuSans-53"/>
       </defs>
       <use xlink:href="#DejaVuSans-8722"/>
       <use x="83.789062" xlink:href="#DejaVuSans-48"/>
       <use x="147.412109" xlink:href="#DejaVuSans-46"/>
       <use x="179.199219" xlink:href="#DejaVuSans-53"/>
      </g>
     </g>
    </g>
    <g id="xtick_2">
     <g id="line2d_2">
      <g>
       <use style="stroke:#000000;stroke-width:0.8;" x="135.412879" xlink:href="#m03ddea06bb" y="293.56"/>
      </g>
     </g>
     <g id="text_2">
      <!-- 0.0 -->
      <g transform="translate(125.075848 310.437969)scale(0.13 -0.13)">
       <use xlink:href="#DejaVuSans-48"/>
       <use x="63.623047" xlink:href="#DejaVuSans-46"/>
       <use x="95.410156" xlink:href="#DejaVuSans-48"/>
      </g>
     </g>
    </g>
    <g id="xtick_3">
     <g id="line2d_3">
      <g>
       <use style="stroke:#000000;stroke-width:0.8;" x="194.768939" xlink:href="#m03ddea06bb" y="293.56"/>
      </g>
     </g>
     <g id="text_3">
      <!-- 0.5 -->
      <g transform="translate(184.431908 310.437969)scale(0.13 -0.13)">
       <use xlink:href="#DejaVuSans-48"/>
       <use x="63.623047" xlink:href="#DejaVuSans-46"/>
       <use x="95.410156" xlink:href="#DejaVuSans-53"/>
      </g>
     </g>
    </g>
    <g id="xtick_4">
     <g id="line2d_4">
      <g>
       <use style="stroke:#000000;stroke-width:0.8;" x="254.125" xlink:href="#m03ddea06bb" y="293.56"/>
      </g>
     </g>
     <g id="text_4">
      <!-- 1.0 -->
      <g transform="translate(243.787969 310.437969)scale(0.13 -0.13)">
       <defs>
        <path d="M 12.40625 8.296875 
L 28.515625 8.296875 
L 28.515625 63.921875 
L 10.984375 60.40625 
L 10.984375 69.390625 
L 28.421875 72.90625 
L 38.28125 72.90625 
L 38.28125 8.296875 
L 54.390625 8.296875 
L 54.390625 0 
L 12.40625 0 
z
" id="DejaVuSans-49"/>
       </defs>
       <use xlink:href="#DejaVuSans-49"/>
       <use x="63.623047" xlink:href="#DejaVuSans-46"/>
       <use x="95.410156" xlink:href="#DejaVuSans-48"/>
      </g>
     </g>
    </g>
    <g id="xtick_5">
     <g id="line2d_5">
      <g>
       <use style="stroke:#000000;stroke-width:0.8;" x="313.481061" xlink:href="#m03ddea06bb" y="293.56"/>
      </g>
     </g>
     <g id="text_5">
      <!-- 1.5 -->
      <g transform="translate(303.144029 310.437969)scale(0.13 -0.13)">
       <use xlink:href="#DejaVuSans-49"/>
       <use x="63.623047" xlink:href="#DejaVuSans-46"/>
       <use x="95.410156" xlink:href="#DejaVuSans-53"/>
      </g>
     </g>
    </g>
    <g id="xtick_6">
     <g id="line2d_6">
      <g>
       <use style="stroke:#000000;stroke-width:0.8;" x="372.837121" xlink:href="#m03ddea06bb" y="293.56"/>
      </g>
     </g>
     <g id="text_6">
      <!-- 2.0 -->
      <g transform="translate(362.50009 310.437969)scale(0.13 -0.13)">
       <defs>
        <path d="M 19.1875 8.296875 
L 53.609375 8.296875 
L 53.609375 0 
L 7.328125 0 
L 7.328125 8.296875 
Q 12.9375 14.109375 22.625 23.890625 
Q 32.328125 33.6875 34.8125 36.53125 
Q 39.546875 41.84375 41.421875 45.53125 
Q 43.3125 49.21875 43.3125 52.78125 
Q 43.3125 58.59375 39.234375 62.25 
Q 35.15625 65.921875 28.609375 65.921875 
Q 23.96875 65.921875 18.8125 64.3125 
Q 13.671875 62.703125 7.8125 59.421875 
L 7.8125 69.390625 
Q 13.765625 71.78125 18.9375 73 
Q 24.125 74.21875 28.421875 74.21875 
Q 39.75 74.21875 46.484375 68.546875 
Q 53.21875 62.890625 53.21875 53.421875 
Q 53.21875 48.921875 51.53125 44.890625 
Q 49.859375 40.875 45.40625 35.40625 
Q 44.1875 33.984375 37.640625 27.21875 
Q 31.109375 20.453125 19.1875 8.296875 
z
" id="DejaVuSans-50"/>
       </defs>
       <use xlink:href="#DejaVuSans-50"/>
       <use x="63.623047" xlink:href="#DejaVuSans-46"/>
       <use x="95.410156" xlink:href="#DejaVuSans-48"/>
      </g>
     </g>
    </g>
    <g id="xtick_7">
     <g id="line2d_7">
      <g>
       <use style="stroke:#000000;stroke-width:0.8;" x="432.193182" xlink:href="#m03ddea06bb" y="293.56"/>
      </g>
     </g>
     <g id="text_7">
      <!-- 2.5 -->
      <g transform="translate(421.856151 310.437969)scale(0.13 -0.13)">
       <use xlink:href="#DejaVuSans-50"/>
       <use x="63.623047" xlink:href="#DejaVuSans-46"/>
       <use x="95.410156" xlink:href="#DejaVuSans-53"/>
      </g>
     </g>
    </g>
    <g id="text_8">
     <!-- x -->
     <g transform="translate(248.798125 330.81875)scale(0.18 -0.18)">
      <defs>
       <path d="M 54.890625 54.6875 
L 35.109375 28.078125 
L 55.90625 0 
L 45.3125 0 
L 29.390625 21.484375 
L 13.484375 0 
L 2.875 0 
L 24.125 28.609375 
L 4.6875 54.6875 
L 15.28125 54.6875 
L 29.78125 35.203125 
L 44.28125 54.6875 
z
" id="DejaVuSans-120"/>
      </defs>
      <use xlink:href="#DejaVuSans-120"/>
     </g>
    </g>
   </g>
   <g id="matplotlib.axis_2">
    <g id="ytick_1">
     <g id="line2d_8">
      <defs>
       <path d="M 0 0 
L -3.5 0 
" id="mb755af5a20" style="stroke:#000000;stroke-width:0.8;"/>
      </defs>
      <g>
       <use style="stroke:#000000;stroke-width:0.8;" x="58.25" xlink:href="#mb755af5a20" y="280.544266"/>
      </g>
     </g>
     <g id="text_9">
      <!-- −5 -->
      <g transform="translate(32.085156 285.48325)scale(0.13 -0.13)">
       <use xlink:href="#DejaVuSans-8722"/>
       <use x="83.789062" xlink:href="#DejaVuSans-53"/>
      </g>
     </g>
    </g>
    <g id="ytick_2">
     <g id="line2d_9">
      <g>
       <use style="stroke:#000000;stroke-width:0.8;" x="58.25" xlink:href="#mb755af5a20" y="221.378257"/>
      </g>
     </g>
     <g id="text_10">
      <!-- 0 -->
      <g transform="translate(42.97875 226.317241)scale(0.13 -0.13)">
       <use xlink:href="#DejaVuSans-48"/>
      </g>
     </g>
    </g>
    <g id="ytick_3">
     <g id="line2d_10">
      <g>
       <use style="stroke:#000000;stroke-width:0.8;" x="58.25" xlink:href="#mb755af5a20" y="162.212248"/>
      </g>
     </g>
     <g id="text_11">
      <!-- 5 -->
      <g transform="translate(42.97875 167.151233)scale(0.13 -0.13)">
       <use xlink:href="#DejaVuSans-53"/>
      </g>
     </g>
    </g>
    <g id="ytick_4">
     <g id="line2d_11">
      <g>
       <use style="stroke:#000000;stroke-width:0.8;" x="58.25" xlink:href="#mb755af5a20" y="103.04624"/>
      </g>
     </g>
     <g id="text_12">
      <!-- 10 -->
      <g transform="translate(34.7075 107.985224)scale(0.13 -0.13)">
       <use xlink:href="#DejaVuSans-49"/>
       <use x="63.623047" xlink:href="#DejaVuSans-48"/>
      </g>
     </g>
    </g>
    <g id="ytick_5">
     <g id="line2d_12">
      <g>
       <use style="stroke:#000000;stroke-width:0.8;" x="58.25" xlink:href="#mb755af5a20" y="43.880231"/>
      </g>
     </g>
     <g id="text_13">
      <!-- 15 -->
      <g transform="translate(34.7075 48.819216)scale(0.13 -0.13)">
       <use xlink:href="#DejaVuSans-49"/>
       <use x="63.623047" xlink:href="#DejaVuSans-53"/>
      </g>
     </g>
    </g>
    <g id="text_14">
     <!-- y -->
     <g transform="translate(24.341719 157.506875)rotate(-90)scale(0.18 -0.18)">
      <defs>
       <path d="M 32.171875 -5.078125 
Q 28.375 -14.84375 24.75 -17.8125 
Q 21.140625 -20.796875 15.09375 -20.796875 
L 7.90625 -20.796875 
L 7.90625 -13.28125 
L 13.1875 -13.28125 
Q 16.890625 -13.28125 18.9375 -11.515625 
Q 21 -9.765625 23.484375 -3.21875 
L 25.09375 0.875 
L 2.984375 54.6875 
L 12.5 54.6875 
L 29.59375 11.921875 
L 46.6875 54.6875 
L 56.203125 54.6875 
z
" id="DejaVuSans-121"/>
      </defs>
      <use xlink:href="#DejaVuSans-121"/>
     </g>
    </g>
   </g>
   <g id="line2d_13">
    <path clip-path="url(#p9197134e86)" d="M 76.056818 161.472673 
L 78.549773 157.186973 
L 79.49947 156.046989 
L 80.211742 155.534142 
L 80.805303 155.378863 
L 81.280152 155.453147 
L 81.755 155.716322 
L 82.348561 156.323572 
L 82.942121 157.248966 
L 83.654394 158.781973 
L 84.485379 161.137107 
L 85.435076 164.516737 
L 86.622197 169.597866 
L 88.521591 178.908955 
L 90.777121 189.729523 
L 91.964242 194.343515 
L 92.913939 197.141835 
L 93.626212 198.61613 
L 94.219773 199.397461 
L 94.694621 199.71722 
L 95.16947 199.760938 
L 95.644318 199.528659 
L 96.119167 199.024606 
L 96.712727 198.025617 
L 97.425 196.32094 
L 98.255985 193.716402 
L 99.324394 189.602863 
L 101.579924 179.689668 
L 102.885758 174.464222 
L 103.835455 171.489244 
L 104.547727 169.910591 
L 105.141288 169.106892 
L 105.616136 168.835563 
L 105.972273 168.86287 
L 106.328409 169.096001 
L 106.803258 169.736271 
L 107.278106 170.760454 
L 107.871667 172.5845 
L 108.583939 175.560101 
L 109.414924 180.064107 
L 110.483333 187.306404 
L 111.789167 197.856513 
L 115.706667 230.73933 
L 116.656364 236.370357 
L 117.368636 239.385759 
L 117.962197 240.96739 
L 118.318333 241.470202 
L 118.67447 241.617796 
L 118.911894 241.51152 
L 119.26803 241.035455 
L 119.624167 240.169557 
L 120.099015 238.393296 
L 120.692576 235.153898 
L 121.404848 229.75785 
L 122.235833 221.405451 
L 123.18553 209.26933 
L 124.253939 192.633925 
L 125.678485 166.497864 
L 127.934015 120.078988 
L 130.189545 75.234481 
L 131.495379 53.580797 
L 132.445076 40.969873 
L 133.276061 32.543491 
L 133.988333 27.462919 
L 134.581894 24.829303 
L 134.93803 23.967906 
L 135.294167 23.652727 
L 135.531591 23.747393 
L 135.769015 24.085974 
L 136.125152 25.049765 
L 136.6 27.178309 
L 137.193561 31.167193 
L 137.905833 37.82596 
L 138.736818 48.000767 
L 139.686515 62.450862 
L 140.873636 83.969147 
L 142.654318 120.91947 
L 145.978258 190.709073 
L 147.402803 215.48899 
L 148.471212 230.575025 
L 149.420909 241.083931 
L 150.251894 247.9112 
L 150.964167 251.985164 
L 151.557727 254.148105 
L 152.032576 255.098412 
L 152.388712 255.373638 
L 152.626136 255.3564 
L 152.982273 255.041057 
L 153.338409 254.393721 
L 153.813258 253.046978 
L 154.406818 250.655731 
L 155.237803 246.175796 
L 156.306212 238.935506 
L 158.086894 224.951858 
L 159.986288 210.463701 
L 161.173409 203.051176 
L 162.123106 198.515342 
L 162.835379 196.056087 
L 163.428939 194.662349 
L 163.903788 193.984519 
L 164.378636 193.694042 
L 164.734773 193.72635 
L 165.090909 193.967755 
L 165.565758 194.603369 
L 166.159318 195.873699 
L 166.871591 198.031499 
L 167.702576 201.294146 
L 168.889697 206.991302 
L 173.282045 229.25839 
L 174.231742 232.522934 
L 175.062727 234.573394 
L 175.656288 235.540585 
L 176.249848 236.081649 
L 176.724697 236.208016 
L 177.199545 236.067192 
L 177.674394 235.668161 
L 178.267955 234.825897 
L 178.980227 233.354893 
L 179.811212 231.093199 
L 180.998333 227.097203 
L 185.27197 211.758937 
L 186.221667 209.460073 
L 186.933939 208.217395 
L 187.5275 207.525512 
L 188.121061 207.157773 
L 188.595909 207.098971 
L 189.070758 207.247114 
L 189.664318 207.714713 
L 190.257879 208.479719 
L 190.970152 209.756132 
L 191.919848 211.977322 
L 193.10697 215.368836 
L 197.143182 227.437968 
L 198.092879 229.425071 
L 198.923864 230.678717 
L 199.636136 231.355194 
L 200.229697 231.626356 
L 200.823258 231.629955 
L 201.416818 231.371268 
L 202.010379 230.861779 
L 202.722652 229.944071 
L 203.553636 228.502514 
L 204.622045 226.186481 
L 206.402727 221.690471 
L 208.420833 216.750663 
L 209.489242 214.651052 
L 210.438939 213.256887 
L 211.151212 212.552612 
L 211.863485 212.163655 
L 212.457045 212.086657 
L 213.050606 212.233211 
L 213.644167 212.596596 
L 214.356439 213.301811 
L 215.187424 214.457338 
L 216.255833 216.37228 
L 217.799091 219.677014 
L 220.410758 225.282205 
L 221.479167 227.081159 
L 222.428864 228.265823 
L 223.259848 228.928266 
L 223.972121 229.197565 
L 224.565682 229.207178 
L 225.159242 229.023882 
L 225.871515 228.559602 
L 226.7025 227.708029 
L 227.652197 226.384667 
L 228.95803 224.118372 
L 232.87553 216.949146 
L 233.943939 215.601349 
L 234.774924 214.882463 
L 235.487197 214.521589 
L 236.19947 214.406638 
L 236.911742 214.538222 
L 237.624015 214.908316 
L 238.455 215.619421 
L 239.404697 216.751952 
L 240.591818 218.532956 
L 245.221591 225.900767 
L 246.171288 226.836397 
L 247.002273 227.364297 
L 247.714545 227.583174 
L 248.426818 227.580847 
L 249.139091 227.360183 
L 249.970076 226.841172 
L 250.919773 225.939513 
L 252.106894 224.442137 
L 253.887576 221.750508 
L 256.143106 218.416806 
L 257.330227 217.056821 
L 258.279924 216.28478 
L 259.110909 215.878489 
L 259.823182 215.743723 
L 260.535455 215.808947 
L 261.366439 216.13133 
L 262.197424 216.700521 
L 263.147121 217.613743 
L 264.452955 219.215881 
L 268.845303 224.978833 
L 269.913712 225.869406 
L 270.744697 226.309695 
L 271.575682 226.508165 
L 272.406667 226.45821 
L 273.237652 226.165152 
L 274.187348 225.554666 
L 275.255758 224.567892 
L 276.680303 222.899248 
L 280.360379 218.380065 
L 281.428788 217.453573 
L 282.378485 216.896738 
L 283.20947 216.641841 
L 284.040455 216.614142 
L 284.871439 216.812162 
L 285.821136 217.29865 
L 286.889545 218.13546 
L 288.195379 219.472203 
L 292.706439 224.403724 
L 293.774848 225.11762 
L 294.724545 225.486655 
L 295.55553 225.586458 
L 296.386515 225.474181 
L 297.336212 225.095377 
L 298.285909 224.474404 
L 299.47303 223.420258 
L 301.253712 221.482882 
L 303.746667 218.781272 
L 305.0525 217.705913 
L 306.120909 217.117213 
L 307.070606 216.850608 
L 308.020303 216.838435 
L 308.97 217.076422 
L 309.919697 217.544623 
L 311.106818 218.40031 
L 312.650076 219.814758 
L 315.736591 222.709045 
L 316.923712 223.509162 
L 317.992121 223.963696 
L 318.941818 224.123464 
L 319.891515 224.040914 
L 320.841212 223.719649 
L 321.909621 223.096187 
L 323.096742 222.133387 
L 324.758712 220.475447 
L 327.726515 217.483021 
L 329.032348 216.502004 
L 330.100758 215.961864 
L 331.050455 215.708748 
L 332.000152 215.677335 
L 332.949848 215.860761 
L 334.018258 216.297954 
L 335.324091 217.095493 
L 337.460909 218.722772 
L 339.360303 220.078734 
L 340.666136 220.740105 
L 341.734545 221.03329 
L 342.684242 221.075335 
L 343.633939 220.900248 
L 344.583636 220.51081 
L 345.652045 219.836645 
L 346.957879 218.732147 
L 348.857273 216.786287 
L 351.587652 214.010671 
L 352.893485 212.981264 
L 354.080606 212.319395 
L 355.149015 211.977275 
L 356.217424 211.880119 
L 357.285833 212.011911 
L 358.472955 212.384218 
L 360.134924 213.171419 
L 363.102727 214.627415 
L 364.408561 214.98797 
L 365.47697 215.056428 
L 366.545379 214.886554 
L 367.613788 214.465501 
L 368.682197 213.799555 
L 369.869318 212.803049 
L 371.412576 211.198503 
L 376.517197 205.59868 
L 377.82303 204.621866 
L 379.010152 204.007381 
L 380.197273 203.65819 
L 381.384394 203.550846 
L 382.808939 203.671758 
L 385.65803 204.241749 
L 387.201288 204.401622 
L 388.388409 204.312489 
L 389.456818 204.0219 
L 390.525227 203.505636 
L 391.712348 202.658005 
L 393.018182 201.409992 
L 394.561439 199.581768 
L 396.935682 196.341888 
L 399.666061 192.706681 
L 401.209318 191.00588 
L 402.633864 189.768911 
L 403.939697 188.931194 
L 405.24553 188.350384 
L 406.788788 187.911965 
L 411.062424 186.859129 
L 412.368258 186.199764 
L 413.555379 185.347489 
L 414.7425 184.227001 
L 416.048333 182.68287 
L 417.591591 180.48036 
L 419.609697 177.157221 
L 424.120758 169.564856 
L 425.782727 167.244516 
L 427.325985 165.448111 
L 428.869242 163.97775 
L 430.768636 162.49135 
L 432.193182 161.472673 
L 432.193182 161.472673 
" style="fill:none;stroke:#808080;stroke-linecap:square;stroke-width:1.5;"/>
   </g>
   <g id="line2d_14">
    <path clip-path="url(#p9197134e86)" d="M 76.056818 280.707273 
L 76.887803 275.424552 
L 77.8375 267.889647 
L 79.143333 255.653618 
L 83.41697 214.030735 
L 84.485379 206.197942 
L 85.435076 200.74734 
L 86.266061 197.238388 
L 86.978333 195.179317 
L 87.571894 194.115198 
L 88.046742 193.670502 
L 88.402879 193.561059 
L 88.759015 193.632283 
L 89.233864 193.987891 
L 89.827424 194.807166 
L 90.539697 196.250362 
L 91.489394 198.74569 
L 95.16947 209.093496 
L 96.000455 210.511264 
L 96.594015 211.160626 
L 97.187576 211.485137 
L 97.662424 211.50646 
L 98.137273 211.318572 
L 98.730833 210.801788 
L 99.443106 209.803736 
L 100.274091 208.20338 
L 101.461212 205.374396 
L 103.59803 200.209611 
L 104.429015 198.756941 
L 105.022576 198.075125 
L 105.497424 197.789662 
L 105.972273 197.764494 
L 106.447121 198.022363 
L 106.92197 198.581503 
L 107.51553 199.723785 
L 108.109091 201.371167 
L 108.821364 204.013819 
L 109.652348 207.976785 
L 110.720758 214.30665 
L 112.145303 224.330908 
L 115.231818 246.585685 
L 116.181515 251.740242 
L 116.893788 254.574899 
L 117.487348 256.117917 
L 117.962197 256.749541 
L 118.318333 256.844138 
L 118.67447 256.596589 
L 119.030606 255.993541 
L 119.505455 254.617331 
L 120.099015 251.949978 
L 120.692576 248.209098 
L 121.404848 242.298038 
L 122.235833 233.483247 
L 123.18553 221.031103 
L 124.372652 202.349408 
L 125.915909 174.222468 
L 130.189545 94.035827 
L 131.376667 76.911832 
L 132.326364 66.289715 
L 133.038636 60.392591 
L 133.632197 56.937926 
L 134.107045 55.166599 
L 134.463182 54.42776 
L 134.700606 54.217975 
L 134.93803 54.234731 
L 135.175455 54.477661 
L 135.531591 55.263934 
L 136.006439 57.090448 
L 136.6 60.593266 
L 137.312273 66.504024 
L 138.143258 75.572142 
L 139.092955 88.443468 
L 140.398788 109.57144 
L 142.416894 146.602725 
L 144.909848 191.465517 
L 146.215682 211.279886 
L 147.284091 224.521009 
L 148.233788 233.684887 
L 149.064773 239.558909 
L 149.777045 242.975597 
L 150.370606 244.69767 
L 150.845455 245.361151 
L 151.201591 245.45744 
L 151.557727 245.223349 
L 151.913864 244.673074 
L 152.388712 243.475143 
L 152.982273 241.291008 
L 153.694545 237.783147 
L 154.644242 231.883852 
L 155.950076 222.233142 
L 159.392727 196.039049 
L 160.461136 189.69696 
L 161.410833 185.305375 
L 162.241818 182.53987 
L 162.835379 181.207334 
L 163.428939 180.413536 
L 163.903788 180.16055 
L 164.259924 180.187881 
L 164.734773 180.503628 
L 165.209621 181.124072 
L 165.803182 182.299379 
L 166.515455 184.239592 
L 167.465152 187.58871 
L 168.652273 192.697369 
L 170.670379 202.587535 
L 173.044621 213.982035 
L 174.587879 220.290422 
L 175.893712 224.696634 
L 177.080833 227.939704 
L 178.267955 230.510871 
L 179.336364 232.326447 
L 180.404773 233.749184 
L 181.591894 234.953588 
L 182.779015 235.825295 
L 183.847424 236.344204 
L 184.797121 236.578542 
L 185.628106 236.579058 
L 186.459091 236.350867 
L 187.171364 235.939503 
L 187.883636 235.296132 
L 188.714621 234.209549 
L 189.545606 232.714802 
L 190.376591 230.769581 
L 191.326288 227.955089 
L 192.394697 224.0095 
L 193.581818 218.680018 
L 195.006364 211.12727 
L 197.02447 198.995989 
L 199.754848 182.712623 
L 200.94197 176.845935 
L 201.891667 173.102649 
L 202.722652 170.683466 
L 203.316212 169.506988 
L 203.791061 168.920559 
L 204.265909 168.662525 
L 204.622045 168.689748 
L 204.978182 168.908821 
L 205.45303 169.501121 
L 206.046591 170.722428 
L 206.640152 172.468755 
L 207.352424 175.230217 
L 208.302121 179.95671 
L 209.37053 186.504473 
L 210.795076 196.730277 
L 215.187424 229.502235 
L 216.374545 236.168921 
L 217.324242 240.256972 
L 218.036515 242.511291 
L 218.630076 243.833451 
L 219.223636 244.64348 
L 219.698485 244.925619 
L 220.054621 244.928075 
L 220.52947 244.66092 
L 221.004318 244.09763 
L 221.597879 243.004058 
L 222.310152 241.176369 
L 223.259848 238.00767 
L 224.565682 232.692575 
L 228.008333 218.150558 
L 228.95803 215.158108 
L 229.789015 213.198613 
L 230.501288 212.074384 
L 231.094848 211.553686 
L 231.569697 211.415543 
L 232.044545 211.524537 
L 232.519394 211.876269 
L 233.112955 212.644533 
L 233.825227 214.0159 
L 234.656212 216.162526 
L 235.724621 219.606824 
L 237.505303 226.280458 
L 239.404697 233.15043 
L 240.473106 236.223067 
L 241.304091 237.98767 
L 242.016364 238.979798 
L 242.609924 239.403873 
L 243.084773 239.466562 
L 243.559621 239.277963 
L 244.03447 238.836903 
L 244.62803 237.934654 
L 245.340303 236.355153 
L 246.171288 233.87711 
L 247.120985 230.317355 
L 248.426818 224.468225 
L 252.819167 203.900087 
L 253.768864 200.74469 
L 254.599848 198.6851 
L 255.312121 197.500388 
L 255.905682 196.945479 
L 256.38053 196.790707 
L 256.855379 196.893442 
L 257.330227 197.250639 
L 257.923788 198.045172 
L 258.636061 199.483202 
L 259.467045 201.76993 
L 260.416742 205.069684 
L 261.722576 210.497434 
L 266.589773 231.791724 
L 267.658182 235.18625 
L 268.607879 237.544114 
L 269.438864 239.077056 
L 270.151136 240.00459 
L 270.863409 240.596535 
L 271.575682 240.88458 
L 272.287955 240.90997 
L 273.118939 240.673119 
L 274.187348 240.081229 
L 277.155152 238.25868 
L 277.986136 238.052075 
L 278.817121 238.081248 
L 279.648106 238.370468 
L 280.479091 238.921945 
L 281.428788 239.846272 
L 282.615909 241.34275 
L 285.702424 245.4573 
L 286.533409 246.150187 
L 287.245682 246.452113 
L 287.839242 246.452269 
L 288.432803 246.190993 
L 289.026364 245.641948 
L 289.619924 244.783875 
L 290.332197 243.324885 
L 291.163182 241.013708 
L 292.112879 237.572924 
L 293.181288 232.740273 
L 294.487121 225.647675 
L 296.267803 214.554642 
L 299.354318 195.178428 
L 300.660152 188.486776 
L 301.609848 184.645447 
L 302.440833 182.136236 
L 303.153106 180.682259 
L 303.746667 179.987957 
L 304.221515 179.779103 
L 304.577652 179.825886 
L 305.0525 180.158304 
L 305.527348 180.795078 
L 306.120909 182.006887 
L 306.833182 184.040517 
L 307.664167 187.143876 
L 308.732576 192.120572 
L 310.157121 200.01802 
L 314.54947 225.338854 
L 315.617879 229.932519 
L 316.567576 233.072558 
L 317.279848 234.778361 
L 317.873409 235.753019 
L 318.46697 236.314512 
L 318.941818 236.466959 
L 319.416667 236.35996 
L 319.891515 236.00065 
L 320.485076 235.212126 
L 321.197348 233.802254 
L 322.028333 231.588387 
L 323.096742 228.004974 
L 324.521288 222.357518 
L 327.845227 208.837276 
L 329.032348 205.026052 
L 329.982045 202.674452 
L 330.81303 201.2044 
L 331.525303 200.411201 
L 332.118864 200.08784 
L 332.593712 200.050246 
L 333.068561 200.206351 
L 333.662121 200.66621 
L 334.255682 201.406935 
L 334.967955 202.640252 
L 335.917652 204.803088 
L 337.104773 208.180315 
L 338.766742 213.717611 
L 342.209394 225.410265 
L 343.633939 229.391686 
L 344.821061 232.080013 
L 345.88947 233.972363 
L 346.839167 235.244949 
L 347.788864 236.16632 
L 348.738561 236.78921 
L 349.80697 237.218297 
L 351.350227 237.553932 
L 353.249621 237.99257 
L 354.31803 238.474089 
L 355.267727 239.141393 
L 356.217424 240.084715 
L 357.167121 241.335285 
L 358.23553 243.124548 
L 359.422652 245.573038 
L 360.847197 249.068449 
L 362.865303 254.716163 
L 365.951818 263.376481 
L 367.257652 266.422097 
L 368.326061 268.41486 
L 369.275758 269.72228 
L 369.98803 270.380669 
L 370.700303 270.742711 
L 371.293864 270.808865 
L 371.887424 270.656188 
L 372.480985 270.283198 
L 373.193258 269.546886 
L 374.024242 268.300098 
L 374.973939 266.391794 
L 376.042348 263.688442 
L 377.348182 259.717981 
L 379.128864 253.491747 
L 383.283788 238.643485 
L 384.708333 234.482268 
L 385.895455 231.653931 
L 386.963864 229.661795 
L 387.913561 228.33917 
L 388.744545 227.513925 
L 389.57553 226.971587 
L 390.406515 226.673649 
L 391.356212 226.568347 
L 392.662045 226.673067 
L 394.561439 226.830427 
L 395.511136 226.674138 
L 396.342121 226.299307 
L 397.173106 225.639047 
L 398.004091 224.643813 
L 398.835076 223.277266 
L 399.784773 221.234892 
L 400.853182 218.322844 
L 402.040303 214.378502 
L 403.583561 208.361547 
L 408.094621 190.045771 
L 409.16303 186.911689 
L 409.994015 185.120264 
L 410.706288 184.111493 
L 411.299848 183.678454 
L 411.774697 183.614253 
L 412.249545 183.809602 
L 412.724394 184.269648 
L 413.317955 185.220157 
L 414.030227 186.907799 
L 414.861212 189.607097 
L 415.810909 193.585961 
L 416.879318 199.048415 
L 418.303864 207.536851 
L 422.458788 233.17724 
L 423.527197 238.172319 
L 424.358182 241.186664 
L 425.070455 243.071718 
L 425.664015 244.110223 
L 426.138864 244.577626 
L 426.613712 244.715278 
L 426.969848 244.600701 
L 427.444697 244.158575 
L 427.919545 243.390372 
L 428.513106 241.985226 
L 429.225379 239.681393 
L 430.056364 236.221052 
L 431.124773 230.748698 
L 432.193182 224.436751 
L 432.193182 224.436751 
" style="fill:none;stroke:#3a3a3a;stroke-linecap:square;stroke-width:1.5;"/>
   </g>
   <g id="patch_3">
    <path d="M 58.25 293.56 
L 58.25 10.8 
" style="fill:none;stroke:#000000;stroke-linecap:square;stroke-linejoin:miter;stroke-width:1.5;"/>
   </g>
   <g id="patch_4">
    <path d="M 58.25 293.56 
L 450 293.56 
" style="fill:none;stroke:#000000;stroke-linecap:square;stroke-linejoin:miter;stroke-width:1.5;"/>
   </g>
   <g id="legend_1">
    <g id="patch_5">
     <path d="M 310.6425 55.6275 
L 441.6 55.6275 
Q 444 55.6275 444 53.2275 
L 444 19.2 
Q 444 16.8 441.6 16.8 
L 310.6425 16.8 
Q 308.2425 16.8 308.2425 19.2 
L 308.2425 53.2275 
Q 308.2425 55.6275 310.6425 55.6275 
z
" style="fill:#ffffff;opacity:0.8;stroke:#cccccc;stroke-linejoin:miter;"/>
    </g>
    <g id="line2d_15">
     <path d="M 313.0425 26.518125 
L 337.0425 26.518125 
" style="fill:none;stroke:#808080;stroke-linecap:square;stroke-width:1.5;"/>
    </g>
    <g id="line2d_16"/>
    <g id="text_15">
     <!-- Gramacy &amp; Lee -->
     <g transform="translate(346.6425 30.718125)scale(0.12 -0.12)">
      <defs>
       <path d="M 59.515625 10.40625 
L 59.515625 29.984375 
L 43.40625 29.984375 
L 43.40625 38.09375 
L 69.28125 38.09375 
L 69.28125 6.78125 
Q 63.578125 2.734375 56.6875 0.65625 
Q 49.8125 -1.421875 42 -1.421875 
Q 24.90625 -1.421875 15.25 8.5625 
Q 5.609375 18.5625 5.609375 36.375 
Q 5.609375 54.25 15.25 64.234375 
Q 24.90625 74.21875 42 74.21875 
Q 49.125 74.21875 55.546875 72.453125 
Q 61.96875 70.703125 67.390625 67.28125 
L 67.390625 56.78125 
Q 61.921875 61.421875 55.765625 63.765625 
Q 49.609375 66.109375 42.828125 66.109375 
Q 29.4375 66.109375 22.71875 58.640625 
Q 16.015625 51.171875 16.015625 36.375 
Q 16.015625 21.625 22.71875 14.15625 
Q 29.4375 6.6875 42.828125 6.6875 
Q 48.046875 6.6875 52.140625 7.59375 
Q 56.25 8.5 59.515625 10.40625 
z
" id="DejaVuSans-71"/>
       <path d="M 41.109375 46.296875 
Q 39.59375 47.171875 37.8125 47.578125 
Q 36.03125 48 33.890625 48 
Q 26.265625 48 22.1875 43.046875 
Q 18.109375 38.09375 18.109375 28.8125 
L 18.109375 0 
L 9.078125 0 
L 9.078125 54.6875 
L 18.109375 54.6875 
L 18.109375 46.1875 
Q 20.953125 51.171875 25.484375 53.578125 
Q 30.03125 56 36.53125 56 
Q 37.453125 56 38.578125 55.875 
Q 39.703125 55.765625 41.0625 55.515625 
z
" id="DejaVuSans-114"/>
       <path d="M 34.28125 27.484375 
Q 23.390625 27.484375 19.1875 25 
Q 14.984375 22.515625 14.984375 16.5 
Q 14.984375 11.71875 18.140625 8.90625 
Q 21.296875 6.109375 26.703125 6.109375 
Q 34.1875 6.109375 38.703125 11.40625 
Q 43.21875 16.703125 43.21875 25.484375 
L 43.21875 27.484375 
z
M 52.203125 31.203125 
L 52.203125 0 
L 43.21875 0 
L 43.21875 8.296875 
Q 40.140625 3.328125 35.546875 0.953125 
Q 30.953125 -1.421875 24.3125 -1.421875 
Q 15.921875 -1.421875 10.953125 3.296875 
Q 6 8.015625 6 15.921875 
Q 6 25.140625 12.171875 29.828125 
Q 18.359375 34.515625 30.609375 34.515625 
L 43.21875 34.515625 
L 43.21875 35.40625 
Q 43.21875 41.609375 39.140625 45 
Q 35.0625 48.390625 27.6875 48.390625 
Q 23 48.390625 18.546875 47.265625 
Q 14.109375 46.140625 10.015625 43.890625 
L 10.015625 52.203125 
Q 14.9375 54.109375 19.578125 55.046875 
Q 24.21875 56 28.609375 56 
Q 40.484375 56 46.34375 49.84375 
Q 52.203125 43.703125 52.203125 31.203125 
z
" id="DejaVuSans-97"/>
       <path d="M 52 44.1875 
Q 55.375 50.25 60.0625 53.125 
Q 64.75 56 71.09375 56 
Q 79.640625 56 84.28125 50.015625 
Q 88.921875 44.046875 88.921875 33.015625 
L 88.921875 0 
L 79.890625 0 
L 79.890625 32.71875 
Q 79.890625 40.578125 77.09375 44.375 
Q 74.3125 48.1875 68.609375 48.1875 
Q 61.625 48.1875 57.5625 43.546875 
Q 53.515625 38.921875 53.515625 30.90625 
L 53.515625 0 
L 44.484375 0 
L 44.484375 32.71875 
Q 44.484375 40.625 41.703125 44.40625 
Q 38.921875 48.1875 33.109375 48.1875 
Q 26.21875 48.1875 22.15625 43.53125 
Q 18.109375 38.875 18.109375 30.90625 
L 18.109375 0 
L 9.078125 0 
L 9.078125 54.6875 
L 18.109375 54.6875 
L 18.109375 46.1875 
Q 21.1875 51.21875 25.484375 53.609375 
Q 29.78125 56 35.6875 56 
Q 41.65625 56 45.828125 52.96875 
Q 50 49.953125 52 44.1875 
z
" id="DejaVuSans-109"/>
       <path d="M 48.78125 52.59375 
L 48.78125 44.1875 
Q 44.96875 46.296875 41.140625 47.34375 
Q 37.3125 48.390625 33.40625 48.390625 
Q 24.65625 48.390625 19.8125 42.84375 
Q 14.984375 37.3125 14.984375 27.296875 
Q 14.984375 17.28125 19.8125 11.734375 
Q 24.65625 6.203125 33.40625 6.203125 
Q 37.3125 6.203125 41.140625 7.25 
Q 44.96875 8.296875 48.78125 10.40625 
L 48.78125 2.09375 
Q 45.015625 0.34375 40.984375 -0.53125 
Q 36.96875 -1.421875 32.421875 -1.421875 
Q 20.0625 -1.421875 12.78125 6.34375 
Q 5.515625 14.109375 5.515625 27.296875 
Q 5.515625 40.671875 12.859375 48.328125 
Q 20.21875 56 33.015625 56 
Q 37.15625 56 41.109375 55.140625 
Q 45.0625 54.296875 48.78125 52.59375 
z
" id="DejaVuSans-99"/>
       <path id="DejaVuSans-32"/>
       <path d="M 24.3125 39.203125 
Q 19.875 35.25 17.796875 31.3125 
Q 15.71875 27.390625 15.71875 23.09375 
Q 15.71875 15.96875 20.890625 11.234375 
Q 26.078125 6.5 33.890625 6.5 
Q 38.53125 6.5 42.578125 8.03125 
Q 46.625 9.578125 50.203125 12.703125 
z
M 31.203125 44.671875 
L 56 19.28125 
Q 58.890625 23.640625 60.5 28.59375 
Q 62.109375 33.546875 62.40625 39.109375 
L 71.484375 39.109375 
Q 70.90625 32.671875 68.359375 26.359375 
Q 65.828125 20.0625 61.28125 13.921875 
L 74.90625 0 
L 62.59375 0 
L 55.609375 7.171875 
Q 50.53125 2.828125 44.96875 0.703125 
Q 39.40625 -1.421875 33.015625 -1.421875 
Q 21.234375 -1.421875 13.765625 5.296875 
Q 6.296875 12.015625 6.296875 22.515625 
Q 6.296875 28.765625 9.5625 34.25 
Q 12.84375 39.75 19.390625 44.578125 
Q 17.046875 47.65625 15.8125 50.703125 
Q 14.59375 53.765625 14.59375 56.6875 
Q 14.59375 64.59375 20.015625 69.40625 
Q 25.4375 74.21875 34.421875 74.21875 
Q 38.484375 74.21875 42.5 73.34375 
Q 46.53125 72.46875 50.6875 70.703125 
L 50.6875 61.8125 
Q 46.4375 64.109375 42.578125 65.296875 
Q 38.71875 66.5 35.40625 66.5 
Q 30.28125 66.5 27.078125 63.78125 
Q 23.875 61.078125 23.875 56.78125 
Q 23.875 54.296875 25.3125 51.78125 
Q 26.765625 49.265625 31.203125 44.671875 
z
" id="DejaVuSans-38"/>
       <path d="M 9.8125 72.90625 
L 19.671875 72.90625 
L 19.671875 8.296875 
L 55.171875 8.296875 
L 55.171875 0 
L 9.8125 0 
z
" id="DejaVuSans-76"/>
       <path d="M 56.203125 29.59375 
L 56.203125 25.203125 
L 14.890625 25.203125 
Q 15.484375 15.921875 20.484375 11.0625 
Q 25.484375 6.203125 34.421875 6.203125 
Q 39.59375 6.203125 44.453125 7.46875 
Q 49.3125 8.734375 54.109375 11.28125 
L 54.109375 2.78125 
Q 49.265625 0.734375 44.1875 -0.34375 
Q 39.109375 -1.421875 33.890625 -1.421875 
Q 20.796875 -1.421875 13.15625 6.1875 
Q 5.515625 13.8125 5.515625 26.8125 
Q 5.515625 40.234375 12.765625 48.109375 
Q 20.015625 56 32.328125 56 
Q 43.359375 56 49.78125 48.890625 
Q 56.203125 41.796875 56.203125 29.59375 
z
M 47.21875 32.234375 
Q 47.125 39.59375 43.09375 43.984375 
Q 39.0625 48.390625 32.421875 48.390625 
Q 24.90625 48.390625 20.390625 44.140625 
Q 15.875 39.890625 15.1875 32.171875 
z
" id="DejaVuSans-101"/>
      </defs>
      <use xlink:href="#DejaVuSans-71"/>
      <use x="77.490234" xlink:href="#DejaVuSans-114"/>
      <use x="118.603516" xlink:href="#DejaVuSans-97"/>
      <use x="179.882812" xlink:href="#DejaVuSans-109"/>
      <use x="277.294922" xlink:href="#DejaVuSans-97"/>
      <use x="338.574219" xlink:href="#DejaVuSans-99"/>
      <use x="393.554688" xlink:href="#DejaVuSans-121"/>
      <use x="452.734375" xlink:href="#DejaVuSans-32"/>
      <use x="484.521484" xlink:href="#DejaVuSans-38"/>
      <use x="562.5" xlink:href="#DejaVuSans-32"/>
      <use x="594.287109" xlink:href="#DejaVuSans-76"/>
      <use x="648.25" xlink:href="#DejaVuSans-101"/>
      <use x="709.773438" xlink:href="#DejaVuSans-101"/>
     </g>
    </g>
    <g id="line2d_17">
     <path d="M 313.0425 44.131875 
L 337.0425 44.131875 
" style="fill:none;stroke:#3a3a3a;stroke-linecap:square;stroke-width:1.5;"/>
    </g>
    <g id="line2d_18"/>
    <g id="text_16">
     <!-- Random -->
     <g transform="translate(346.6425 48.331875)scale(0.12 -0.12)">
      <defs>
       <path d="M 44.390625 34.1875 
Q 47.5625 33.109375 50.5625 29.59375 
Q 53.5625 26.078125 56.59375 19.921875 
L 66.609375 0 
L 56 0 
L 46.6875 18.703125 
Q 43.0625 26.03125 39.671875 28.421875 
Q 36.28125 30.8125 30.421875 30.8125 
L 19.671875 30.8125 
L 19.671875 0 
L 9.8125 0 
L 9.8125 72.90625 
L 32.078125 72.90625 
Q 44.578125 72.90625 50.734375 67.671875 
Q 56.890625 62.453125 56.890625 51.90625 
Q 56.890625 45.015625 53.6875 40.46875 
Q 50.484375 35.9375 44.390625 34.1875 
z
M 19.671875 64.796875 
L 19.671875 38.921875 
L 32.078125 38.921875 
Q 39.203125 38.921875 42.84375 42.21875 
Q 46.484375 45.515625 46.484375 51.90625 
Q 46.484375 58.296875 42.84375 61.546875 
Q 39.203125 64.796875 32.078125 64.796875 
z
" id="DejaVuSans-82"/>
       <path d="M 54.890625 33.015625 
L 54.890625 0 
L 45.90625 0 
L 45.90625 32.71875 
Q 45.90625 40.484375 42.875 44.328125 
Q 39.84375 48.1875 33.796875 48.1875 
Q 26.515625 48.1875 22.3125 43.546875 
Q 18.109375 38.921875 18.109375 30.90625 
L 18.109375 0 
L 9.078125 0 
L 9.078125 54.6875 
L 18.109375 54.6875 
L 18.109375 46.1875 
Q 21.34375 51.125 25.703125 53.5625 
Q 30.078125 56 35.796875 56 
Q 45.21875 56 50.046875 50.171875 
Q 54.890625 44.34375 54.890625 33.015625 
z
" id="DejaVuSans-110"/>
       <path d="M 45.40625 46.390625 
L 45.40625 75.984375 
L 54.390625 75.984375 
L 54.390625 0 
L 45.40625 0 
L 45.40625 8.203125 
Q 42.578125 3.328125 38.25 0.953125 
Q 33.9375 -1.421875 27.875 -1.421875 
Q 17.96875 -1.421875 11.734375 6.484375 
Q 5.515625 14.40625 5.515625 27.296875 
Q 5.515625 40.1875 11.734375 48.09375 
Q 17.96875 56 27.875 56 
Q 33.9375 56 38.25 53.625 
Q 42.578125 51.265625 45.40625 46.390625 
z
M 14.796875 27.296875 
Q 14.796875 17.390625 18.875 11.75 
Q 22.953125 6.109375 30.078125 6.109375 
Q 37.203125 6.109375 41.296875 11.75 
Q 45.40625 17.390625 45.40625 27.296875 
Q 45.40625 37.203125 41.296875 42.84375 
Q 37.203125 48.484375 30.078125 48.484375 
Q 22.953125 48.484375 18.875 42.84375 
Q 14.796875 37.203125 14.796875 27.296875 
z
" id="DejaVuSans-100"/>
       <path d="M 30.609375 48.390625 
Q 23.390625 48.390625 19.1875 42.75 
Q 14.984375 37.109375 14.984375 27.296875 
Q 14.984375 17.484375 19.15625 11.84375 
Q 23.34375 6.203125 30.609375 6.203125 
Q 37.796875 6.203125 41.984375 11.859375 
Q 46.1875 17.53125 46.1875 27.296875 
Q 46.1875 37.015625 41.984375 42.703125 
Q 37.796875 48.390625 30.609375 48.390625 
z
M 30.609375 56 
Q 42.328125 56 49.015625 48.375 
Q 55.71875 40.765625 55.71875 27.296875 
Q 55.71875 13.875 49.015625 6.21875 
Q 42.328125 -1.421875 30.609375 -1.421875 
Q 18.84375 -1.421875 12.171875 6.21875 
Q 5.515625 13.875 5.515625 27.296875 
Q 5.515625 40.765625 12.171875 48.375 
Q 18.84375 56 30.609375 56 
z
" id="DejaVuSans-111"/>
      </defs>
      <use xlink:href="#DejaVuSans-82"/>
      <use x="67.232422" xlink:href="#DejaVuSans-97"/>
      <use x="128.511719" xlink:href="#DejaVuSans-110"/>
      <use x="191.890625" xlink:href="#DejaVuSans-100"/>
      <use x="255.367188" xlink:href="#DejaVuSans-111"/>
      <use x="316.548828" xlink:href="#DejaVuSans-109"/>
     </g>
    </g>
   </g>
  </g>
 </g>
 <defs>
  <clipPath id="p9197134e86">
   <rect height="282.76" width="391.75" x="58.25" y="10.8"/>
  </clipPath>
 </defs>
</svg>
