<?xml version="1.0" encoding="utf-8" standalone="no"?>
<!DOCTYPE svg PUBLIC "-//W3C//DTD SVG 1.1//EN"
  "http://www.w3.org/Graphics/SVG/1.1/DTD/svg11.dtd">
<!-- Created with matplotlib (https://matplotlib.org/) -->
<svg height="345.6pt" version="1.1" viewBox="0 0 460.8 345.6" width="460.8pt" xmlns="http://www.w3.org/2000/svg" xmlns:xlink="http://www.w3.org/1999/xlink">
 <metadata>
  <rdf:RDF xmlns:cc="http://creativecommons.org/ns#" xmlns:dc="http://purl.org/dc/elements/1.1/" xmlns:rdf="http://www.w3.org/1999/02/22-rdf-syntax-ns#">
   <cc:Work>
    <dc:type rdf:resource="http://purl.org/dc/dcmitype/StillImage"/>
    <dc:date>2022-08-16T11:43:28.750220</dc:date>
    <dc:format>image/svg+xml</dc:format>
    <dc:creator>
     <cc:Agent>
      <dc:title>Matplotlib v3.3.4, https://matplotlib.org/</dc:title>
     </cc:Agent>
    </dc:creator>
   </cc:Work>
  </rdf:RDF>
 </metadata>
 <defs>
  <style type="text/css">*{stroke-linecap:butt;stroke-linejoin:round;}</style>
 </defs>
 <g id="figure_1">
  <g id="patch_1">
   <path d="M 0 345.6 
L 460.8 345.6 
L 460.8 0 
L 0 0 
z
" style="fill:#ffffff;"/>
  </g>
  <g id="axes_1">
   <g id="patch_2">
    <path d="M 55.37 293.56 
L 438.042932 293.56 
L 438.042932 33.36 
L 55.37 33.36 
z
" style="fill:#ffffff;"/>
   </g>
   <g id="PathCollection_1">
    <defs>
     <path d="M 0 3 
C 0.795609 3 1.55874 2.683901 2.12132 2.12132 
C 2.683901 1.55874 3 0.795609 3 0 
C 3 -0.795609 2.683901 -1.55874 2.12132 -2.12132 
C 1.55874 -2.683901 0.795609 -3 0 -3 
C -0.795609 -3 -1.55874 -2.683901 -2.12132 -2.12132 
C -2.683901 -1.55874 -3 -0.795609 -3 0 
C -3 0.795609 -2.683901 1.55874 -2.12132 2.12132 
C -1.55874 2.683901 -0.795609 3 0 3 
z
" id="m9ecdca2d53" style="stroke:#eb6934;"/>
    </defs>
    <g clip-path="url(#p0299a1b204)">
     <use style="fill:#e6a157;stroke:#eb6934;" x="84.1305" xlink:href="#m9ecdca2d53" y="276.313553"/>
     <use style="fill:#e6a157;stroke:#eb6934;" x="91.603461" xlink:href="#m9ecdca2d53" y="258.443974"/>
     <use style="fill:#e6a157;stroke:#eb6934;" x="82.141147" xlink:href="#m9ecdca2d53" y="262.22072"/>
     <use style="fill:#e6a157;stroke:#eb6934;" x="94.45484" xlink:href="#m9ecdca2d53" y="238.294681"/>
     <use style="fill:#e6a157;stroke:#eb6934;" x="94.6071" xlink:href="#m9ecdca2d53" y="233.451828"/>
     <use style="fill:#e6a157;stroke:#eb6934;" x="78.088489" xlink:href="#m9ecdca2d53" y="255.793262"/>
     <use style="fill:#e6a157;stroke:#eb6934;" x="93.015164" xlink:href="#m9ecdca2d53" y="239.814458"/>
     <use style="fill:#e6a157;stroke:#eb6934;" x="88.742936" xlink:href="#m9ecdca2d53" y="255.882328"/>
     <use style="fill:#e6a157;stroke:#eb6934;" x="77.523553" xlink:href="#m9ecdca2d53" y="268.487953"/>
     <use style="fill:#e6a157;stroke:#eb6934;" x="93.045927" xlink:href="#m9ecdca2d53" y="242.1231"/>
     <use style="fill:#e6a157;stroke:#eb6934;" x="91.21358" xlink:href="#m9ecdca2d53" y="266.435169"/>
     <use style="fill:#e6a157;stroke:#eb6934;" x="83.199208" xlink:href="#m9ecdca2d53" y="247.144073"/>
     <use style="fill:#e6a157;stroke:#eb6934;" x="72.764224" xlink:href="#m9ecdca2d53" y="253.86679"/>
     <use style="fill:#e6a157;stroke:#eb6934;" x="79.63113" xlink:href="#m9ecdca2d53" y="255.861121"/>
     <use style="fill:#e6a157;stroke:#eb6934;" x="86.683406" xlink:href="#m9ecdca2d53" y="252.901813"/>
     <use style="fill:#e6a157;stroke:#eb6934;" x="82.033208" xlink:href="#m9ecdca2d53" y="278.174741"/>
     <use style="fill:#e6a157;stroke:#eb6934;" x="90.240262" xlink:href="#m9ecdca2d53" y="246.667026"/>
     <use style="fill:#e6a157;stroke:#eb6934;" x="101.525565" xlink:href="#m9ecdca2d53" y="238.218745"/>
     <use style="fill:#e6a157;stroke:#eb6934;" x="90.9562" xlink:href="#m9ecdca2d53" y="255.762752"/>
     <use style="fill:#e6a157;stroke:#eb6934;" x="108.281381" xlink:href="#m9ecdca2d53" y="281.732727"/>
     <use style="fill:#e6a157;stroke:#eb6934;" x="80.272905" xlink:href="#m9ecdca2d53" y="271.295161"/>
     <use style="fill:#e6a157;stroke:#eb6934;" x="86.890054" xlink:href="#m9ecdca2d53" y="219.450396"/>
     <use style="fill:#e6a157;stroke:#eb6934;" x="94.167686" xlink:href="#m9ecdca2d53" y="233.977266"/>
     <use style="fill:#e6a157;stroke:#eb6934;" x="101.50342" xlink:href="#m9ecdca2d53" y="250.055861"/>
     <use style="fill:#e6a157;stroke:#eb6934;" x="95.211855" xlink:href="#m9ecdca2d53" y="259.114721"/>
     <use style="fill:#e6a157;stroke:#eb6934;" x="97.754397" xlink:href="#m9ecdca2d53" y="234.004556"/>
     <use style="fill:#e6a157;stroke:#eb6934;" x="92.971085" xlink:href="#m9ecdca2d53" y="258.924658"/>
     <use style="fill:#e6a157;stroke:#eb6934;" x="86.039979" xlink:href="#m9ecdca2d53" y="252.899594"/>
     <use style="fill:#e6a157;stroke:#eb6934;" x="92.933981" xlink:href="#m9ecdca2d53" y="237.56549"/>
     <use style="fill:#e6a157;stroke:#eb6934;" x="83.736111" xlink:href="#m9ecdca2d53" y="240.471212"/>
     <use style="fill:#e6a157;stroke:#eb6934;" x="87.216876" xlink:href="#m9ecdca2d53" y="258.633829"/>
     <use style="fill:#e6a157;stroke:#eb6934;" x="84.360127" xlink:href="#m9ecdca2d53" y="260.570928"/>
     <use style="fill:#e6a157;stroke:#eb6934;" x="100.199398" xlink:href="#m9ecdca2d53" y="258.795422"/>
     <use style="fill:#e6a157;stroke:#eb6934;" x="87.114609" xlink:href="#m9ecdca2d53" y="250.23662"/>
     <use style="fill:#e6a157;stroke:#eb6934;" x="108.155052" xlink:href="#m9ecdca2d53" y="251.678718"/>
     <use style="fill:#e6a157;stroke:#eb6934;" x="94.534669" xlink:href="#m9ecdca2d53" y="253.291939"/>
     <use style="fill:#e6a157;stroke:#eb6934;" x="97.507363" xlink:href="#m9ecdca2d53" y="249.480825"/>
     <use style="fill:#e6a157;stroke:#eb6934;" x="82.559084" xlink:href="#m9ecdca2d53" y="276.693467"/>
     <use style="fill:#e6a157;stroke:#eb6934;" x="88.542432" xlink:href="#m9ecdca2d53" y="244.162334"/>
     <use style="fill:#e6a157;stroke:#eb6934;" x="90.688452" xlink:href="#m9ecdca2d53" y="264.762553"/>
     <use style="fill:#e6a157;stroke:#eb6934;" x="86.501674" xlink:href="#m9ecdca2d53" y="256.628257"/>
     <use style="fill:#e6a157;stroke:#eb6934;" x="83.380201" xlink:href="#m9ecdca2d53" y="275.841422"/>
     <use style="fill:#e6a157;stroke:#eb6934;" x="75.975419" xlink:href="#m9ecdca2d53" y="268.553405"/>
     <use style="fill:#e6a157;stroke:#eb6934;" x="87.019031" xlink:href="#m9ecdca2d53" y="259.345987"/>
     <use style="fill:#e6a157;stroke:#eb6934;" x="89.767018" xlink:href="#m9ecdca2d53" y="262.278637"/>
     <use style="fill:#e6a157;stroke:#eb6934;" x="79.529824" xlink:href="#m9ecdca2d53" y="242.091199"/>
     <use style="fill:#e6a157;stroke:#eb6934;" x="83.160603" xlink:href="#m9ecdca2d53" y="258.017824"/>
     <use style="fill:#e6a157;stroke:#eb6934;" x="102.02515" xlink:href="#m9ecdca2d53" y="255.216328"/>
     <use style="fill:#e6a157;stroke:#eb6934;" x="89.229936" xlink:href="#m9ecdca2d53" y="265.49118"/>
     <use style="fill:#e6a157;stroke:#eb6934;" x="86.773254" xlink:href="#m9ecdca2d53" y="231.918319"/>
     <use style="fill:#e6a157;stroke:#eb6934;" x="88.943789" xlink:href="#m9ecdca2d53" y="248.092558"/>
     <use style="fill:#e6a157;stroke:#eb6934;" x="86.747607" xlink:href="#m9ecdca2d53" y="267.14068"/>
     <use style="fill:#e6a157;stroke:#eb6934;" x="91.38704" xlink:href="#m9ecdca2d53" y="239.956076"/>
     <use style="fill:#e6a157;stroke:#eb6934;" x="84.76218" xlink:href="#m9ecdca2d53" y="256.037094"/>
     <use style="fill:#e6a157;stroke:#eb6934;" x="80.220004" xlink:href="#m9ecdca2d53" y="240.859252"/>
     <use style="fill:#e6a157;stroke:#eb6934;" x="88.187263" xlink:href="#m9ecdca2d53" y="248.828641"/>
     <use style="fill:#e6a157;stroke:#eb6934;" x="84.709722" xlink:href="#m9ecdca2d53" y="272.429631"/>
     <use style="fill:#e6a157;stroke:#eb6934;" x="91.249668" xlink:href="#m9ecdca2d53" y="273.741143"/>
     <use style="fill:#e6a157;stroke:#eb6934;" x="91.361744" xlink:href="#m9ecdca2d53" y="271.85614"/>
     <use style="fill:#e6a157;stroke:#eb6934;" x="89.600199" xlink:href="#m9ecdca2d53" y="247.711306"/>
     <use style="fill:#e6a157;stroke:#eb6934;" x="89.810906" xlink:href="#m9ecdca2d53" y="258.302478"/>
     <use style="fill:#e6a157;stroke:#eb6934;" x="83.495815" xlink:href="#m9ecdca2d53" y="269.906115"/>
     <use style="fill:#e6a157;stroke:#eb6934;" x="86.682304" xlink:href="#m9ecdca2d53" y="251.236526"/>
     <use style="fill:#e6a157;stroke:#eb6934;" x="87.210618" xlink:href="#m9ecdca2d53" y="229.094864"/>
     <use style="fill:#e6a157;stroke:#eb6934;" x="94.083409" xlink:href="#m9ecdca2d53" y="254.542493"/>
     <use style="fill:#e6a157;stroke:#eb6934;" x="86.986975" xlink:href="#m9ecdca2d53" y="267.635122"/>
     <use style="fill:#e6a157;stroke:#eb6934;" x="89.422141" xlink:href="#m9ecdca2d53" y="255.891504"/>
     <use style="fill:#e6a157;stroke:#eb6934;" x="83.82878" xlink:href="#m9ecdca2d53" y="250.117304"/>
     <use style="fill:#e6a157;stroke:#eb6934;" x="85.691665" xlink:href="#m9ecdca2d53" y="269.589148"/>
     <use style="fill:#e6a157;stroke:#eb6934;" x="85.17755" xlink:href="#m9ecdca2d53" y="243.09943"/>
     <use style="fill:#e6a157;stroke:#eb6934;" x="83.454112" xlink:href="#m9ecdca2d53" y="213.990672"/>
     <use style="fill:#e6a157;stroke:#eb6934;" x="98.891562" xlink:href="#m9ecdca2d53" y="246.36475"/>
     <use style="fill:#e6a157;stroke:#eb6934;" x="80.119325" xlink:href="#m9ecdca2d53" y="242.937426"/>
     <use style="fill:#e6a157;stroke:#eb6934;" x="94.878277" xlink:href="#m9ecdca2d53" y="215.351715"/>
     <use style="fill:#e6a157;stroke:#eb6934;" x="89.542263" xlink:href="#m9ecdca2d53" y="240.794345"/>
     <use style="fill:#e6a157;stroke:#eb6934;" x="89.170783" xlink:href="#m9ecdca2d53" y="264.791261"/>
     <use style="fill:#e6a157;stroke:#eb6934;" x="93.580953" xlink:href="#m9ecdca2d53" y="266.927097"/>
     <use style="fill:#e6a157;stroke:#eb6934;" x="83.638381" xlink:href="#m9ecdca2d53" y="235.682454"/>
     <use style="fill:#e6a157;stroke:#eb6934;" x="87.989133" xlink:href="#m9ecdca2d53" y="259.288972"/>
     <use style="fill:#e6a157;stroke:#eb6934;" x="91.854488" xlink:href="#m9ecdca2d53" y="261.873625"/>
     <use style="fill:#e6a157;stroke:#eb6934;" x="77.477316" xlink:href="#m9ecdca2d53" y="244.46889"/>
     <use style="fill:#e6a157;stroke:#eb6934;" x="77.51352" xlink:href="#m9ecdca2d53" y="259.247422"/>
     <use style="fill:#e6a157;stroke:#eb6934;" x="91.208109" xlink:href="#m9ecdca2d53" y="243.01476"/>
     <use style="fill:#e6a157;stroke:#eb6934;" x="100.070283" xlink:href="#m9ecdca2d53" y="259.777995"/>
     <use style="fill:#e6a157;stroke:#eb6934;" x="103.212581" xlink:href="#m9ecdca2d53" y="235.04922"/>
     <use style="fill:#e6a157;stroke:#eb6934;" x="98.257951" xlink:href="#m9ecdca2d53" y="227.646119"/>
     <use style="fill:#e6a157;stroke:#eb6934;" x="99.282866" xlink:href="#m9ecdca2d53" y="241.369314"/>
     <use style="fill:#e6a157;stroke:#eb6934;" x="95.52503" xlink:href="#m9ecdca2d53" y="234.802935"/>
     <use style="fill:#e6a157;stroke:#eb6934;" x="96.262982" xlink:href="#m9ecdca2d53" y="237.450121"/>
     <use style="fill:#e6a157;stroke:#eb6934;" x="104.854635" xlink:href="#m9ecdca2d53" y="255.831824"/>
     <use style="fill:#e6a157;stroke:#eb6934;" x="111.849142" xlink:href="#m9ecdca2d53" y="247.546135"/>
     <use style="fill:#e6a157;stroke:#eb6934;" x="85.985587" xlink:href="#m9ecdca2d53" y="232.426767"/>
     <use style="fill:#e6a157;stroke:#eb6934;" x="103.260469" xlink:href="#m9ecdca2d53" y="237.929524"/>
     <use style="fill:#e6a157;stroke:#eb6934;" x="81.224567" xlink:href="#m9ecdca2d53" y="251.099695"/>
     <use style="fill:#e6a157;stroke:#eb6934;" x="79.811007" xlink:href="#m9ecdca2d53" y="254.10601"/>
     <use style="fill:#e6a157;stroke:#eb6934;" x="91.840739" xlink:href="#m9ecdca2d53" y="248.625076"/>
     <use style="fill:#e6a157;stroke:#eb6934;" x="82.217403" xlink:href="#m9ecdca2d53" y="247.45446"/>
     <use style="fill:#e6a157;stroke:#eb6934;" x="103.420202" xlink:href="#m9ecdca2d53" y="261.092085"/>
     <use style="fill:#e6a157;stroke:#eb6934;" x="95.191266" xlink:href="#m9ecdca2d53" y="242.103798"/>
     <use style="fill:#e6a157;stroke:#eb6934;" x="99.534146" xlink:href="#m9ecdca2d53" y="203.378165"/>
    </g>
   </g>
   <g id="PathCollection_2">
    <defs>
     <path d="M 0 3 
C 0.795609 3 1.55874 2.683901 2.12132 2.12132 
C 2.683901 1.55874 3 0.795609 3 0 
C 3 -0.795609 2.683901 -1.55874 2.12132 -2.12132 
C 1.55874 -2.683901 0.795609 -3 0 -3 
C -0.795609 -3 -1.55874 -2.683901 -2.12132 -2.12132 
C -2.683901 -1.55874 -3 -0.795609 -3 0 
C -3 0.795609 -2.683901 1.55874 -2.12132 2.12132 
C -1.55874 2.683901 -0.795609 3 0 3 
z
" id="m8d9a4959fa" style="stroke:#1f77b4;"/>
    </defs>
    <g clip-path="url(#p0299a1b204)">
     <use style="fill:#8ac6d1;stroke:#1f77b4;" x="319.178092" xlink:href="#m8d9a4959fa" y="224.322309"/>
     <use style="fill:#8ac6d1;stroke:#1f77b4;" x="293.849952" xlink:href="#m8d9a4959fa" y="244.199938"/>
     <use style="fill:#8ac6d1;stroke:#1f77b4;" x="301.660129" xlink:href="#m8d9a4959fa" y="239.730052"/>
     <use style="fill:#8ac6d1;stroke:#1f77b4;" x="288.930552" xlink:href="#m8d9a4959fa" y="214.778285"/>
     <use style="fill:#8ac6d1;stroke:#1f77b4;" x="301.659897" xlink:href="#m8d9a4959fa" y="236.276752"/>
     <use style="fill:#8ac6d1;stroke:#1f77b4;" x="294.73481" xlink:href="#m8d9a4959fa" y="236.500818"/>
     <use style="fill:#8ac6d1;stroke:#1f77b4;" x="305.126345" xlink:href="#m8d9a4959fa" y="214.28311"/>
     <use style="fill:#8ac6d1;stroke:#1f77b4;" x="292.492738" xlink:href="#m8d9a4959fa" y="237.604846"/>
     <use style="fill:#8ac6d1;stroke:#1f77b4;" x="285.51" xlink:href="#m8d9a4959fa" y="223.938692"/>
     <use style="fill:#8ac6d1;stroke:#1f77b4;" x="301.298536" xlink:href="#m8d9a4959fa" y="215.8037"/>
     <use style="fill:#8ac6d1;stroke:#1f77b4;" x="298.433562" xlink:href="#m8d9a4959fa" y="208.375494"/>
     <use style="fill:#8ac6d1;stroke:#1f77b4;" x="303.258635" xlink:href="#m8d9a4959fa" y="219.164083"/>
     <use style="fill:#8ac6d1;stroke:#1f77b4;" x="297.538174" xlink:href="#m8d9a4959fa" y="210.260797"/>
     <use style="fill:#8ac6d1;stroke:#1f77b4;" x="299.677415" xlink:href="#m8d9a4959fa" y="213.100509"/>
     <use style="fill:#8ac6d1;stroke:#1f77b4;" x="300.253533" xlink:href="#m8d9a4959fa" y="220.491341"/>
     <use style="fill:#8ac6d1;stroke:#1f77b4;" x="288.670351" xlink:href="#m8d9a4959fa" y="240.025756"/>
     <use style="fill:#8ac6d1;stroke:#1f77b4;" x="298.661491" xlink:href="#m8d9a4959fa" y="253.121206"/>
     <use style="fill:#8ac6d1;stroke:#1f77b4;" x="288.704676" xlink:href="#m8d9a4959fa" y="222.982193"/>
     <use style="fill:#8ac6d1;stroke:#1f77b4;" x="290.021326" xlink:href="#m8d9a4959fa" y="223.62596"/>
     <use style="fill:#8ac6d1;stroke:#1f77b4;" x="288.88342" xlink:href="#m8d9a4959fa" y="226.569545"/>
     <use style="fill:#8ac6d1;stroke:#1f77b4;" x="297.303715" xlink:href="#m8d9a4959fa" y="247.347239"/>
     <use style="fill:#8ac6d1;stroke:#1f77b4;" x="296.606498" xlink:href="#m8d9a4959fa" y="235.628289"/>
     <use style="fill:#8ac6d1;stroke:#1f77b4;" x="291.656706" xlink:href="#m8d9a4959fa" y="253.468965"/>
     <use style="fill:#8ac6d1;stroke:#1f77b4;" x="287.752445" xlink:href="#m8d9a4959fa" y="239.373989"/>
     <use style="fill:#8ac6d1;stroke:#1f77b4;" x="280.648686" xlink:href="#m8d9a4959fa" y="226.410562"/>
     <use style="fill:#8ac6d1;stroke:#1f77b4;" x="289.83022" xlink:href="#m8d9a4959fa" y="216.978577"/>
     <use style="fill:#8ac6d1;stroke:#1f77b4;" x="291.786253" xlink:href="#m8d9a4959fa" y="217.006382"/>
     <use style="fill:#8ac6d1;stroke:#1f77b4;" x="291.970087" xlink:href="#m8d9a4959fa" y="245.384282"/>
     <use style="fill:#8ac6d1;stroke:#1f77b4;" x="284.868172" xlink:href="#m8d9a4959fa" y="209.482222"/>
     <use style="fill:#8ac6d1;stroke:#1f77b4;" x="302.777886" xlink:href="#m8d9a4959fa" y="241.959488"/>
     <use style="fill:#8ac6d1;stroke:#1f77b4;" x="299.030982" xlink:href="#m8d9a4959fa" y="237.887417"/>
     <use style="fill:#8ac6d1;stroke:#1f77b4;" x="298.887657" xlink:href="#m8d9a4959fa" y="240.539349"/>
     <use style="fill:#8ac6d1;stroke:#1f77b4;" x="288.539313" xlink:href="#m8d9a4959fa" y="214.968167"/>
     <use style="fill:#8ac6d1;stroke:#1f77b4;" x="288.182777" xlink:href="#m8d9a4959fa" y="232.213894"/>
     <use style="fill:#8ac6d1;stroke:#1f77b4;" x="278.85284" xlink:href="#m8d9a4959fa" y="247.601124"/>
     <use style="fill:#8ac6d1;stroke:#1f77b4;" x="267.675126" xlink:href="#m8d9a4959fa" y="208.721456"/>
     <use style="fill:#8ac6d1;stroke:#1f77b4;" x="268.075222" xlink:href="#m8d9a4959fa" y="227.711355"/>
     <use style="fill:#8ac6d1;stroke:#1f77b4;" x="269.928775" xlink:href="#m8d9a4959fa" y="242.9939"/>
     <use style="fill:#8ac6d1;stroke:#1f77b4;" x="304.70627" xlink:href="#m8d9a4959fa" y="192.95403"/>
     <use style="fill:#8ac6d1;stroke:#1f77b4;" x="307.152664" xlink:href="#m8d9a4959fa" y="234.747415"/>
     <use style="fill:#8ac6d1;stroke:#1f77b4;" x="295.4004" xlink:href="#m8d9a4959fa" y="242.208672"/>
     <use style="fill:#8ac6d1;stroke:#1f77b4;" x="279.187919" xlink:href="#m8d9a4959fa" y="223.923086"/>
     <use style="fill:#8ac6d1;stroke:#1f77b4;" x="269.855348" xlink:href="#m8d9a4959fa" y="253.228029"/>
     <use style="fill:#8ac6d1;stroke:#1f77b4;" x="269.479183" xlink:href="#m8d9a4959fa" y="246.151835"/>
     <use style="fill:#8ac6d1;stroke:#1f77b4;" x="284.644398" xlink:href="#m8d9a4959fa" y="233.914803"/>
     <use style="fill:#8ac6d1;stroke:#1f77b4;" x="282.752524" xlink:href="#m8d9a4959fa" y="244.735292"/>
     <use style="fill:#8ac6d1;stroke:#1f77b4;" x="268.36976" xlink:href="#m8d9a4959fa" y="236.462281"/>
     <use style="fill:#8ac6d1;stroke:#1f77b4;" x="266.98038" xlink:href="#m8d9a4959fa" y="253.337385"/>
     <use style="fill:#8ac6d1;stroke:#1f77b4;" x="279.534547" xlink:href="#m8d9a4959fa" y="215.176937"/>
     <use style="fill:#8ac6d1;stroke:#1f77b4;" x="294.710952" xlink:href="#m8d9a4959fa" y="228.922165"/>
     <use style="fill:#8ac6d1;stroke:#1f77b4;" x="300.332421" xlink:href="#m8d9a4959fa" y="246.075688"/>
     <use style="fill:#8ac6d1;stroke:#1f77b4;" x="273.844275" xlink:href="#m8d9a4959fa" y="218.063542"/>
     <use style="fill:#8ac6d1;stroke:#1f77b4;" x="273.797515" xlink:href="#m8d9a4959fa" y="206.838341"/>
     <use style="fill:#8ac6d1;stroke:#1f77b4;" x="271.10214" xlink:href="#m8d9a4959fa" y="226.648705"/>
     <use style="fill:#8ac6d1;stroke:#1f77b4;" x="268.519935" xlink:href="#m8d9a4959fa" y="241.6992"/>
     <use style="fill:#8ac6d1;stroke:#1f77b4;" x="267.926464" xlink:href="#m8d9a4959fa" y="239.200103"/>
     <use style="fill:#8ac6d1;stroke:#1f77b4;" x="269.741814" xlink:href="#m8d9a4959fa" y="227.528451"/>
     <use style="fill:#8ac6d1;stroke:#1f77b4;" x="268.50825" xlink:href="#m8d9a4959fa" y="203.763643"/>
     <use style="fill:#8ac6d1;stroke:#1f77b4;" x="283.207764" xlink:href="#m8d9a4959fa" y="233.429999"/>
     <use style="fill:#8ac6d1;stroke:#1f77b4;" x="294.877468" xlink:href="#m8d9a4959fa" y="243.443502"/>
     <use style="fill:#8ac6d1;stroke:#1f77b4;" x="266.501634" xlink:href="#m8d9a4959fa" y="215.013204"/>
     <use style="fill:#8ac6d1;stroke:#1f77b4;" x="282.377692" xlink:href="#m8d9a4959fa" y="221.993578"/>
     <use style="fill:#8ac6d1;stroke:#1f77b4;" x="277.439401" xlink:href="#m8d9a4959fa" y="196.872425"/>
     <use style="fill:#8ac6d1;stroke:#1f77b4;" x="267.867116" xlink:href="#m8d9a4959fa" y="218.933749"/>
     <use style="fill:#8ac6d1;stroke:#1f77b4;" x="269.034327" xlink:href="#m8d9a4959fa" y="256.680937"/>
     <use style="fill:#8ac6d1;stroke:#1f77b4;" x="268.129767" xlink:href="#m8d9a4959fa" y="209.531426"/>
     <use style="fill:#8ac6d1;stroke:#1f77b4;" x="268.71978" xlink:href="#m8d9a4959fa" y="229.236072"/>
     <use style="fill:#8ac6d1;stroke:#1f77b4;" x="270.066347" xlink:href="#m8d9a4959fa" y="243.546661"/>
     <use style="fill:#8ac6d1;stroke:#1f77b4;" x="288.729657" xlink:href="#m8d9a4959fa" y="225.79484"/>
     <use style="fill:#8ac6d1;stroke:#1f77b4;" x="305.682304" xlink:href="#m8d9a4959fa" y="239.835374"/>
     <use style="fill:#8ac6d1;stroke:#1f77b4;" x="273.698036" xlink:href="#m8d9a4959fa" y="206.998252"/>
     <use style="fill:#8ac6d1;stroke:#1f77b4;" x="270.843852" xlink:href="#m8d9a4959fa" y="235.951594"/>
     <use style="fill:#8ac6d1;stroke:#1f77b4;" x="304.956912" xlink:href="#m8d9a4959fa" y="230.608184"/>
     <use style="fill:#8ac6d1;stroke:#1f77b4;" x="300.304618" xlink:href="#m8d9a4959fa" y="215.068386"/>
     <use style="fill:#8ac6d1;stroke:#1f77b4;" x="273.623847" xlink:href="#m8d9a4959fa" y="235.179419"/>
     <use style="fill:#8ac6d1;stroke:#1f77b4;" x="290.526255" xlink:href="#m8d9a4959fa" y="210.593984"/>
     <use style="fill:#8ac6d1;stroke:#1f77b4;" x="274.106505" xlink:href="#m8d9a4959fa" y="234.431884"/>
     <use style="fill:#8ac6d1;stroke:#1f77b4;" x="285.353586" xlink:href="#m8d9a4959fa" y="257.538931"/>
     <use style="fill:#8ac6d1;stroke:#1f77b4;" x="272.113685" xlink:href="#m8d9a4959fa" y="224.345062"/>
     <use style="fill:#8ac6d1;stroke:#1f77b4;" x="295.395769" xlink:href="#m8d9a4959fa" y="221.956057"/>
     <use style="fill:#8ac6d1;stroke:#1f77b4;" x="303.112714" xlink:href="#m8d9a4959fa" y="233.086457"/>
     <use style="fill:#8ac6d1;stroke:#1f77b4;" x="276.20259" xlink:href="#m8d9a4959fa" y="234.447153"/>
     <use style="fill:#8ac6d1;stroke:#1f77b4;" x="269.401703" xlink:href="#m8d9a4959fa" y="229.969041"/>
     <use style="fill:#8ac6d1;stroke:#1f77b4;" x="299.346591" xlink:href="#m8d9a4959fa" y="197.99941"/>
     <use style="fill:#8ac6d1;stroke:#1f77b4;" x="282.97455" xlink:href="#m8d9a4959fa" y="226.117352"/>
     <use style="fill:#8ac6d1;stroke:#1f77b4;" x="267.508827" xlink:href="#m8d9a4959fa" y="258.311708"/>
     <use style="fill:#8ac6d1;stroke:#1f77b4;" x="297.860033" xlink:href="#m8d9a4959fa" y="234.56756"/>
     <use style="fill:#8ac6d1;stroke:#1f77b4;" x="295.923534" xlink:href="#m8d9a4959fa" y="233.703538"/>
     <use style="fill:#8ac6d1;stroke:#1f77b4;" x="284.160697" xlink:href="#m8d9a4959fa" y="239.734829"/>
     <use style="fill:#8ac6d1;stroke:#1f77b4;" x="284.098572" xlink:href="#m8d9a4959fa" y="256.866098"/>
     <use style="fill:#8ac6d1;stroke:#1f77b4;" x="273.453221" xlink:href="#m8d9a4959fa" y="239.96503"/>
     <use style="fill:#8ac6d1;stroke:#1f77b4;" x="273.080414" xlink:href="#m8d9a4959fa" y="231.986663"/>
     <use style="fill:#8ac6d1;stroke:#1f77b4;" x="281.982023" xlink:href="#m8d9a4959fa" y="225.934992"/>
     <use style="fill:#8ac6d1;stroke:#1f77b4;" x="296.926866" xlink:href="#m8d9a4959fa" y="210.483366"/>
     <use style="fill:#8ac6d1;stroke:#1f77b4;" x="298.196895" xlink:href="#m8d9a4959fa" y="231.871392"/>
     <use style="fill:#8ac6d1;stroke:#1f77b4;" x="285.58711" xlink:href="#m8d9a4959fa" y="246.758849"/>
     <use style="fill:#8ac6d1;stroke:#1f77b4;" x="273.233548" xlink:href="#m8d9a4959fa" y="222.811954"/>
     <use style="fill:#8ac6d1;stroke:#1f77b4;" x="278.920251" xlink:href="#m8d9a4959fa" y="221.102494"/>
     <use style="fill:#8ac6d1;stroke:#1f77b4;" x="268.807196" xlink:href="#m8d9a4959fa" y="220.103756"/>
     <use style="fill:#8ac6d1;stroke:#1f77b4;" x="268.473535" xlink:href="#m8d9a4959fa" y="215.79795"/>
    </g>
   </g>
   <g id="PathCollection_3">
    <defs>
     <path d="M 0 3 
C 0.795609 3 1.55874 2.683901 2.12132 2.12132 
C 2.683901 1.55874 3 0.795609 3 0 
C 3 -0.795609 2.683901 -1.55874 2.12132 -2.12132 
C 1.55874 -2.683901 0.795609 -3 0 -3 
C -0.795609 -3 -1.55874 -2.683901 -2.12132 -2.12132 
C -2.683901 -1.55874 -3 -0.795609 -3 0 
C -3 0.795609 -2.683901 1.55874 -2.12132 2.12132 
C -1.55874 2.683901 -0.795609 3 0 3 
z
" id="m1c124397ea" style="stroke:#3a3a3a;"/>
    </defs>
    <g clip-path="url(#p0299a1b204)">
     <use style="fill:#808080;stroke:#3a3a3a;" x="401.177269" xlink:href="#m1c124397ea" y="90.133911"/>
     <use style="fill:#808080;stroke:#3a3a3a;" x="403.763874" xlink:href="#m1c124397ea" y="56.70546"/>
     <use style="fill:#808080;stroke:#3a3a3a;" x="402.497429" xlink:href="#m1c124397ea" y="112.995568"/>
     <use style="fill:#808080;stroke:#3a3a3a;" x="403.635669" xlink:href="#m1c124397ea" y="81.012823"/>
     <use style="fill:#808080;stroke:#3a3a3a;" x="404.301161" xlink:href="#m1c124397ea" y="84.063426"/>
     <use style="fill:#808080;stroke:#3a3a3a;" x="403.478356" xlink:href="#m1c124397ea" y="45.187273"/>
     <use style="fill:#808080;stroke:#3a3a3a;" x="402.560021" xlink:href="#m1c124397ea" y="105.30269"/>
     <use style="fill:#808080;stroke:#3a3a3a;" x="403.084181" xlink:href="#m1c124397ea" y="50.361569"/>
     <use style="fill:#808080;stroke:#3a3a3a;" x="402.214334" xlink:href="#m1c124397ea" y="83.856625"/>
     <use style="fill:#808080;stroke:#3a3a3a;" x="403.396047" xlink:href="#m1c124397ea" y="80.104236"/>
     <use style="fill:#808080;stroke:#3a3a3a;" x="403.416103" xlink:href="#m1c124397ea" y="91.047797"/>
     <use style="fill:#808080;stroke:#3a3a3a;" x="403.19535" xlink:href="#m1c124397ea" y="95.9623"/>
     <use style="fill:#808080;stroke:#3a3a3a;" x="403.451453" xlink:href="#m1c124397ea" y="75.748288"/>
     <use style="fill:#808080;stroke:#3a3a3a;" x="402.74505" xlink:href="#m1c124397ea" y="82.243724"/>
     <use style="fill:#808080;stroke:#3a3a3a;" x="403.082035" xlink:href="#m1c124397ea" y="90.53091"/>
     <use style="fill:#808080;stroke:#3a3a3a;" x="402.656824" xlink:href="#m1c124397ea" y="140.096021"/>
     <use style="fill:#808080;stroke:#3a3a3a;" x="402.983198" xlink:href="#m1c124397ea" y="95.034103"/>
     <use style="fill:#808080;stroke:#3a3a3a;" x="403.331965" xlink:href="#m1c124397ea" y="87.936163"/>
     <use style="fill:#808080;stroke:#3a3a3a;" x="403.803615" xlink:href="#m1c124397ea" y="94.294207"/>
     <use style="fill:#808080;stroke:#3a3a3a;" x="403.735423" xlink:href="#m1c124397ea" y="94.26862"/>
     <use style="fill:#808080;stroke:#3a3a3a;" x="403.897373" xlink:href="#m1c124397ea" y="72.048537"/>
     <use style="fill:#808080;stroke:#3a3a3a;" x="403.48881" xlink:href="#m1c124397ea" y="119.77894"/>
     <use style="fill:#808080;stroke:#3a3a3a;" x="402.970397" xlink:href="#m1c124397ea" y="83.488248"/>
     <use style="fill:#808080;stroke:#3a3a3a;" x="403.288698" xlink:href="#m1c124397ea" y="70.934076"/>
     <use style="fill:#808080;stroke:#3a3a3a;" x="403.521328" xlink:href="#m1c124397ea" y="81.794105"/>
     <use style="fill:#808080;stroke:#3a3a3a;" x="403.547972" xlink:href="#m1c124397ea" y="54.999235"/>
     <use style="fill:#808080;stroke:#3a3a3a;" x="403.594528" xlink:href="#m1c124397ea" y="72.305491"/>
     <use style="fill:#808080;stroke:#3a3a3a;" x="403.49817" xlink:href="#m1c124397ea" y="96.859786"/>
     <use style="fill:#808080;stroke:#3a3a3a;" x="403.622302" xlink:href="#m1c124397ea" y="89.459962"/>
     <use style="fill:#808080;stroke:#3a3a3a;" x="404.117761" xlink:href="#m1c124397ea" y="97.43483"/>
     <use style="fill:#808080;stroke:#3a3a3a;" x="403.185298" xlink:href="#m1c124397ea" y="83.795885"/>
     <use style="fill:#808080;stroke:#3a3a3a;" x="403.653907" xlink:href="#m1c124397ea" y="92.251153"/>
     <use style="fill:#808080;stroke:#3a3a3a;" x="403.484807" xlink:href="#m1c124397ea" y="114.79809"/>
     <use style="fill:#808080;stroke:#3a3a3a;" x="403.288382" xlink:href="#m1c124397ea" y="117.723121"/>
     <use style="fill:#808080;stroke:#3a3a3a;" x="402.926882" xlink:href="#m1c124397ea" y="92.752892"/>
     <use style="fill:#808080;stroke:#3a3a3a;" x="403.041905" xlink:href="#m1c124397ea" y="107.757066"/>
     <use style="fill:#808080;stroke:#3a3a3a;" x="403.694433" xlink:href="#m1c124397ea" y="94.654124"/>
     <use style="fill:#808080;stroke:#3a3a3a;" x="404.963746" xlink:href="#m1c124397ea" y="124.855673"/>
     <use style="fill:#808080;stroke:#3a3a3a;" x="403.676743" xlink:href="#m1c124397ea" y="100.10911"/>
     <use style="fill:#808080;stroke:#3a3a3a;" x="403.573515" xlink:href="#m1c124397ea" y="115.136633"/>
     <use style="fill:#808080;stroke:#3a3a3a;" x="403.805113" xlink:href="#m1c124397ea" y="87.052431"/>
     <use style="fill:#808080;stroke:#3a3a3a;" x="404.283868" xlink:href="#m1c124397ea" y="160.052916"/>
     <use style="fill:#808080;stroke:#3a3a3a;" x="403.608592" xlink:href="#m1c124397ea" y="76.923228"/>
     <use style="fill:#808080;stroke:#3a3a3a;" x="403.241137" xlink:href="#m1c124397ea" y="57.022825"/>
     <use style="fill:#808080;stroke:#3a3a3a;" x="402.214869" xlink:href="#m1c124397ea" y="104.751597"/>
     <use style="fill:#808080;stroke:#3a3a3a;" x="402.159699" xlink:href="#m1c124397ea" y="56.63655"/>
     <use style="fill:#808080;stroke:#3a3a3a;" x="401.943981" xlink:href="#m1c124397ea" y="113.738824"/>
     <use style="fill:#808080;stroke:#3a3a3a;" x="402.997988" xlink:href="#m1c124397ea" y="90.495466"/>
     <use style="fill:#808080;stroke:#3a3a3a;" x="402.779706" xlink:href="#m1c124397ea" y="90.656708"/>
     <use style="fill:#808080;stroke:#3a3a3a;" x="402.845918" xlink:href="#m1c124397ea" y="78.040316"/>
     <use style="fill:#808080;stroke:#3a3a3a;" x="402.274275" xlink:href="#m1c124397ea" y="112.95237"/>
     <use style="fill:#808080;stroke:#3a3a3a;" x="403.201873" xlink:href="#m1c124397ea" y="78.613025"/>
     <use style="fill:#808080;stroke:#3a3a3a;" x="402.668011" xlink:href="#m1c124397ea" y="101.719074"/>
     <use style="fill:#808080;stroke:#3a3a3a;" x="402.578178" xlink:href="#m1c124397ea" y="105.103629"/>
     <use style="fill:#808080;stroke:#3a3a3a;" x="402.568448" xlink:href="#m1c124397ea" y="73.216923"/>
     <use style="fill:#808080;stroke:#3a3a3a;" x="403.469694" xlink:href="#m1c124397ea" y="124.085424"/>
     <use style="fill:#808080;stroke:#3a3a3a;" x="403.186047" xlink:href="#m1c124397ea" y="85.961109"/>
     <use style="fill:#808080;stroke:#3a3a3a;" x="402.807641" xlink:href="#m1c124397ea" y="87.287827"/>
     <use style="fill:#808080;stroke:#3a3a3a;" x="402.619813" xlink:href="#m1c124397ea" y="101.271921"/>
     <use style="fill:#808080;stroke:#3a3a3a;" x="402.34247" xlink:href="#m1c124397ea" y="109.357448"/>
     <use style="fill:#808080;stroke:#3a3a3a;" x="402.016261" xlink:href="#m1c124397ea" y="77.651017"/>
     <use style="fill:#808080;stroke:#3a3a3a;" x="402.415294" xlink:href="#m1c124397ea" y="105.819602"/>
     <use style="fill:#808080;stroke:#3a3a3a;" x="402.054582" xlink:href="#m1c124397ea" y="69.240783"/>
     <use style="fill:#808080;stroke:#3a3a3a;" x="402.869801" xlink:href="#m1c124397ea" y="116.469758"/>
     <use style="fill:#808080;stroke:#3a3a3a;" x="402.927405" xlink:href="#m1c124397ea" y="95.907501"/>
     <use style="fill:#808080;stroke:#3a3a3a;" x="403.316718" xlink:href="#m1c124397ea" y="63.873835"/>
     <use style="fill:#808080;stroke:#3a3a3a;" x="403.190752" xlink:href="#m1c124397ea" y="73.87467"/>
     <use style="fill:#808080;stroke:#3a3a3a;" x="403.616942" xlink:href="#m1c124397ea" y="60.082667"/>
     <use style="fill:#808080;stroke:#3a3a3a;" x="403.850256" xlink:href="#m1c124397ea" y="94.222888"/>
     <use style="fill:#808080;stroke:#3a3a3a;" x="404.685883" xlink:href="#m1c124397ea" y="55.075609"/>
     <use style="fill:#808080;stroke:#3a3a3a;" x="403.324071" xlink:href="#m1c124397ea" y="72.762494"/>
     <use style="fill:#808080;stroke:#3a3a3a;" x="403.207421" xlink:href="#m1c124397ea" y="153.708055"/>
     <use style="fill:#808080;stroke:#3a3a3a;" x="402.132825" xlink:href="#m1c124397ea" y="94.501508"/>
     <use style="fill:#808080;stroke:#3a3a3a;" x="402.760662" xlink:href="#m1c124397ea" y="94.618285"/>
     <use style="fill:#808080;stroke:#3a3a3a;" x="402.789216" xlink:href="#m1c124397ea" y="76.896415"/>
     <use style="fill:#808080;stroke:#3a3a3a;" x="403.302692" xlink:href="#m1c124397ea" y="132.165293"/>
     <use style="fill:#808080;stroke:#3a3a3a;" x="403.552453" xlink:href="#m1c124397ea" y="74.406503"/>
     <use style="fill:#808080;stroke:#3a3a3a;" x="403.371134" xlink:href="#m1c124397ea" y="152.684208"/>
     <use style="fill:#808080;stroke:#3a3a3a;" x="403.801319" xlink:href="#m1c124397ea" y="93.940932"/>
     <use style="fill:#808080;stroke:#3a3a3a;" x="403.621154" xlink:href="#m1c124397ea" y="107.395776"/>
     <use style="fill:#808080;stroke:#3a3a3a;" x="403.143145" xlink:href="#m1c124397ea" y="113.313285"/>
     <use style="fill:#808080;stroke:#3a3a3a;" x="403.284834" xlink:href="#m1c124397ea" y="98.917856"/>
     <use style="fill:#808080;stroke:#3a3a3a;" x="403.501402" xlink:href="#m1c124397ea" y="104.145824"/>
     <use style="fill:#808080;stroke:#3a3a3a;" x="403.312745" xlink:href="#m1c124397ea" y="103.148873"/>
     <use style="fill:#808080;stroke:#3a3a3a;" x="402.998392" xlink:href="#m1c124397ea" y="129.478306"/>
     <use style="fill:#808080;stroke:#3a3a3a;" x="403.125014" xlink:href="#m1c124397ea" y="102.579559"/>
     <use style="fill:#808080;stroke:#3a3a3a;" x="403.67868" xlink:href="#m1c124397ea" y="116.782992"/>
     <use style="fill:#808080;stroke:#3a3a3a;" x="404.70516" xlink:href="#m1c124397ea" y="106.403088"/>
     <use style="fill:#808080;stroke:#3a3a3a;" x="404.853774" xlink:href="#m1c124397ea" y="60.403893"/>
     <use style="fill:#808080;stroke:#3a3a3a;" x="404.147064" xlink:href="#m1c124397ea" y="68.601256"/>
     <use style="fill:#808080;stroke:#3a3a3a;" x="403.728434" xlink:href="#m1c124397ea" y="107.727897"/>
     <use style="fill:#808080;stroke:#3a3a3a;" x="403.31041" xlink:href="#m1c124397ea" y="77.67737"/>
     <use style="fill:#808080;stroke:#3a3a3a;" x="404.778528" xlink:href="#m1c124397ea" y="96.174666"/>
     <use style="fill:#808080;stroke:#3a3a3a;" x="404.929916" xlink:href="#m1c124397ea" y="120.725741"/>
     <use style="fill:#808080;stroke:#3a3a3a;" x="404.078643" xlink:href="#m1c124397ea" y="145.831697"/>
     <use style="fill:#808080;stroke:#3a3a3a;" x="403.852419" xlink:href="#m1c124397ea" y="119.995358"/>
     <use style="fill:#808080;stroke:#3a3a3a;" x="405.11568" xlink:href="#m1c124397ea" y="123.458243"/>
     <use style="fill:#808080;stroke:#3a3a3a;" x="403.898447" xlink:href="#m1c124397ea" y="125.382639"/>
     <use style="fill:#808080;stroke:#3a3a3a;" x="420.648708" xlink:href="#m1c124397ea" y="84.055414"/>
     <use style="fill:#808080;stroke:#3a3a3a;" x="404.581426" xlink:href="#m1c124397ea" y="122.130701"/>
    </g>
   </g>
   <g id="matplotlib.axis_1">
    <g id="xtick_1">
     <g id="line2d_1">
      <defs>
       <path d="M 0 0 
L 0 3.5 
" id="m56c1b2023f" style="stroke:#000000;stroke-width:0.8;"/>
      </defs>
      <g>
       <use style="stroke:#000000;stroke-width:0.8;" x="102.953431" xlink:href="#m56c1b2023f" y="293.56"/>
      </g>
     </g>
     <g id="text_1">
      <!-- 300 -->
      <g transform="translate(90.546556 310.437969)scale(0.13 -0.13)">
       <defs>
        <path d="M 40.578125 39.3125 
Q 47.65625 37.796875 51.625 33 
Q 55.609375 28.21875 55.609375 21.1875 
Q 55.609375 10.40625 48.1875 4.484375 
Q 40.765625 -1.421875 27.09375 -1.421875 
Q 22.515625 -1.421875 17.65625 -0.515625 
Q 12.796875 0.390625 7.625 2.203125 
L 7.625 11.71875 
Q 11.71875 9.328125 16.59375 8.109375 
Q 21.484375 6.890625 26.8125 6.890625 
Q 36.078125 6.890625 40.9375 10.546875 
Q 45.796875 14.203125 45.796875 21.1875 
Q 45.796875 27.640625 41.28125 31.265625 
Q 36.765625 34.90625 28.71875 34.90625 
L 20.21875 34.90625 
L 20.21875 43.015625 
L 29.109375 43.015625 
Q 36.375 43.015625 40.234375 45.921875 
Q 44.09375 48.828125 44.09375 54.296875 
Q 44.09375 59.90625 40.109375 62.90625 
Q 36.140625 65.921875 28.71875 65.921875 
Q 24.65625 65.921875 20.015625 65.03125 
Q 15.375 64.15625 9.8125 62.3125 
L 9.8125 71.09375 
Q 15.4375 72.65625 20.34375 73.4375 
Q 25.25 74.21875 29.59375 74.21875 
Q 40.828125 74.21875 47.359375 69.109375 
Q 53.90625 64.015625 53.90625 55.328125 
Q 53.90625 49.265625 50.4375 45.09375 
Q 46.96875 40.921875 40.578125 39.3125 
z
" id="DejaVuSans-51"/>
        <path d="M 31.78125 66.40625 
Q 24.171875 66.40625 20.328125 58.90625 
Q 16.5 51.421875 16.5 36.375 
Q 16.5 21.390625 20.328125 13.890625 
Q 24.171875 6.390625 31.78125 6.390625 
Q 39.453125 6.390625 43.28125 13.890625 
Q 47.125 21.390625 47.125 36.375 
Q 47.125 51.421875 43.28125 58.90625 
Q 39.453125 66.40625 31.78125 66.40625 
z
M 31.78125 74.21875 
Q 44.046875 74.21875 50.515625 64.515625 
Q 56.984375 54.828125 56.984375 36.375 
Q 56.984375 17.96875 50.515625 8.265625 
Q 44.046875 -1.421875 31.78125 -1.421875 
Q 19.53125 -1.421875 13.0625 8.265625 
Q 6.59375 17.96875 6.59375 36.375 
Q 6.59375 54.828125 13.0625 64.515625 
Q 19.53125 74.21875 31.78125 74.21875 
z
" id="DejaVuSans-48"/>
       </defs>
       <use xlink:href="#DejaVuSans-51"/>
       <use x="63.623047" xlink:href="#DejaVuSans-48"/>
       <use x="127.246094" xlink:href="#DejaVuSans-48"/>
      </g>
     </g>
    </g>
    <g id="xtick_2">
     <g id="line2d_2">
      <g>
       <use style="stroke:#000000;stroke-width:0.8;" x="158.751152" xlink:href="#m56c1b2023f" y="293.56"/>
      </g>
     </g>
     <g id="text_2">
      <!-- 400 -->
      <g transform="translate(146.344277 310.437969)scale(0.13 -0.13)">
       <defs>
        <path d="M 37.796875 64.3125 
L 12.890625 25.390625 
L 37.796875 25.390625 
z
M 35.203125 72.90625 
L 47.609375 72.90625 
L 47.609375 25.390625 
L 58.015625 25.390625 
L 58.015625 17.1875 
L 47.609375 17.1875 
L 47.609375 0 
L 37.796875 0 
L 37.796875 17.1875 
L 4.890625 17.1875 
L 4.890625 26.703125 
z
" id="DejaVuSans-52"/>
       </defs>
       <use xlink:href="#DejaVuSans-52"/>
       <use x="63.623047" xlink:href="#DejaVuSans-48"/>
       <use x="127.246094" xlink:href="#DejaVuSans-48"/>
      </g>
     </g>
    </g>
    <g id="xtick_3">
     <g id="line2d_3">
      <g>
       <use style="stroke:#000000;stroke-width:0.8;" x="214.548872" xlink:href="#m56c1b2023f" y="293.56"/>
      </g>
     </g>
     <g id="text_3">
      <!-- 500 -->
      <g transform="translate(202.141997 310.437969)scale(0.13 -0.13)">
       <defs>
        <path d="M 10.796875 72.90625 
L 49.515625 72.90625 
L 49.515625 64.59375 
L 19.828125 64.59375 
L 19.828125 46.734375 
Q 21.96875 47.46875 24.109375 47.828125 
Q 26.265625 48.1875 28.421875 48.1875 
Q 40.625 48.1875 47.75 41.5 
Q 54.890625 34.8125 54.890625 23.390625 
Q 54.890625 11.625 47.5625 5.09375 
Q 40.234375 -1.421875 26.90625 -1.421875 
Q 22.3125 -1.421875 17.546875 -0.640625 
Q 12.796875 0.140625 7.71875 1.703125 
L 7.71875 11.625 
Q 12.109375 9.234375 16.796875 8.0625 
Q 21.484375 6.890625 26.703125 6.890625 
Q 35.15625 6.890625 40.078125 11.328125 
Q 45.015625 15.765625 45.015625 23.390625 
Q 45.015625 31 40.078125 35.4375 
Q 35.15625 39.890625 26.703125 39.890625 
Q 22.75 39.890625 18.8125 39.015625 
Q 14.890625 38.140625 10.796875 36.28125 
z
" id="DejaVuSans-53"/>
       </defs>
       <use xlink:href="#DejaVuSans-53"/>
       <use x="63.623047" xlink:href="#DejaVuSans-48"/>
       <use x="127.246094" xlink:href="#DejaVuSans-48"/>
      </g>
     </g>
    </g>
    <g id="xtick_4">
     <g id="line2d_4">
      <g>
       <use style="stroke:#000000;stroke-width:0.8;" x="270.346593" xlink:href="#m56c1b2023f" y="293.56"/>
      </g>
     </g>
     <g id="text_4">
      <!-- 600 -->
      <g transform="translate(257.939718 310.437969)scale(0.13 -0.13)">
       <defs>
        <path d="M 33.015625 40.375 
Q 26.375 40.375 22.484375 35.828125 
Q 18.609375 31.296875 18.609375 23.390625 
Q 18.609375 15.53125 22.484375 10.953125 
Q 26.375 6.390625 33.015625 6.390625 
Q 39.65625 6.390625 43.53125 10.953125 
Q 47.40625 15.53125 47.40625 23.390625 
Q 47.40625 31.296875 43.53125 35.828125 
Q 39.65625 40.375 33.015625 40.375 
z
M 52.59375 71.296875 
L 52.59375 62.3125 
Q 48.875 64.0625 45.09375 64.984375 
Q 41.3125 65.921875 37.59375 65.921875 
Q 27.828125 65.921875 22.671875 59.328125 
Q 17.53125 52.734375 16.796875 39.40625 
Q 19.671875 43.65625 24.015625 45.921875 
Q 28.375 48.1875 33.59375 48.1875 
Q 44.578125 48.1875 50.953125 41.515625 
Q 57.328125 34.859375 57.328125 23.390625 
Q 57.328125 12.15625 50.6875 5.359375 
Q 44.046875 -1.421875 33.015625 -1.421875 
Q 20.359375 -1.421875 13.671875 8.265625 
Q 6.984375 17.96875 6.984375 36.375 
Q 6.984375 53.65625 15.1875 63.9375 
Q 23.390625 74.21875 37.203125 74.21875 
Q 40.921875 74.21875 44.703125 73.484375 
Q 48.484375 72.75 52.59375 71.296875 
z
" id="DejaVuSans-54"/>
       </defs>
       <use xlink:href="#DejaVuSans-54"/>
       <use x="63.623047" xlink:href="#DejaVuSans-48"/>
       <use x="127.246094" xlink:href="#DejaVuSans-48"/>
      </g>
     </g>
    </g>
    <g id="xtick_5">
     <g id="line2d_5">
      <g>
       <use style="stroke:#000000;stroke-width:0.8;" x="326.144314" xlink:href="#m56c1b2023f" y="293.56"/>
      </g>
     </g>
     <g id="text_5">
      <!-- 700 -->
      <g transform="translate(313.737439 310.437969)scale(0.13 -0.13)">
       <defs>
        <path d="M 8.203125 72.90625 
L 55.078125 72.90625 
L 55.078125 68.703125 
L 28.609375 0 
L 18.3125 0 
L 43.21875 64.59375 
L 8.203125 64.59375 
z
" id="DejaVuSans-55"/>
       </defs>
       <use xlink:href="#DejaVuSans-55"/>
       <use x="63.623047" xlink:href="#DejaVuSans-48"/>
       <use x="127.246094" xlink:href="#DejaVuSans-48"/>
      </g>
     </g>
    </g>
    <g id="xtick_6">
     <g id="line2d_6">
      <g>
       <use style="stroke:#000000;stroke-width:0.8;" x="381.942035" xlink:href="#m56c1b2023f" y="293.56"/>
      </g>
     </g>
     <g id="text_6">
      <!-- 800 -->
      <g transform="translate(369.53516 310.437969)scale(0.13 -0.13)">
       <defs>
        <path d="M 31.78125 34.625 
Q 24.75 34.625 20.71875 30.859375 
Q 16.703125 27.09375 16.703125 20.515625 
Q 16.703125 13.921875 20.71875 10.15625 
Q 24.75 6.390625 31.78125 6.390625 
Q 38.8125 6.390625 42.859375 10.171875 
Q 46.921875 13.96875 46.921875 20.515625 
Q 46.921875 27.09375 42.890625 30.859375 
Q 38.875 34.625 31.78125 34.625 
z
M 21.921875 38.8125 
Q 15.578125 40.375 12.03125 44.71875 
Q 8.5 49.078125 8.5 55.328125 
Q 8.5 64.0625 14.71875 69.140625 
Q 20.953125 74.21875 31.78125 74.21875 
Q 42.671875 74.21875 48.875 69.140625 
Q 55.078125 64.0625 55.078125 55.328125 
Q 55.078125 49.078125 51.53125 44.71875 
Q 48 40.375 41.703125 38.8125 
Q 48.828125 37.15625 52.796875 32.3125 
Q 56.78125 27.484375 56.78125 20.515625 
Q 56.78125 9.90625 50.3125 4.234375 
Q 43.84375 -1.421875 31.78125 -1.421875 
Q 19.734375 -1.421875 13.25 4.234375 
Q 6.78125 9.90625 6.78125 20.515625 
Q 6.78125 27.484375 10.78125 32.3125 
Q 14.796875 37.15625 21.921875 38.8125 
z
M 18.3125 54.390625 
Q 18.3125 48.734375 21.84375 45.5625 
Q 25.390625 42.390625 31.78125 42.390625 
Q 38.140625 42.390625 41.71875 45.5625 
Q 45.3125 48.734375 45.3125 54.390625 
Q 45.3125 60.0625 41.71875 63.234375 
Q 38.140625 66.40625 31.78125 66.40625 
Q 25.390625 66.40625 21.84375 63.234375 
Q 18.3125 60.0625 18.3125 54.390625 
z
" id="DejaVuSans-56"/>
       </defs>
       <use xlink:href="#DejaVuSans-56"/>
       <use x="63.623047" xlink:href="#DejaVuSans-48"/>
       <use x="127.246094" xlink:href="#DejaVuSans-48"/>
      </g>
     </g>
    </g>
    <g id="xtick_7">
     <g id="line2d_7">
      <g>
       <use style="stroke:#000000;stroke-width:0.8;" x="437.739755" xlink:href="#m56c1b2023f" y="293.56"/>
      </g>
     </g>
     <g id="text_7">
      <!-- 900 -->
      <g transform="translate(425.33288 310.437969)scale(0.13 -0.13)">
       <defs>
        <path d="M 10.984375 1.515625 
L 10.984375 10.5 
Q 14.703125 8.734375 18.5 7.8125 
Q 22.3125 6.890625 25.984375 6.890625 
Q 35.75 6.890625 40.890625 13.453125 
Q 46.046875 20.015625 46.78125 33.40625 
Q 43.953125 29.203125 39.59375 26.953125 
Q 35.25 24.703125 29.984375 24.703125 
Q 19.046875 24.703125 12.671875 31.3125 
Q 6.296875 37.9375 6.296875 49.421875 
Q 6.296875 60.640625 12.9375 67.421875 
Q 19.578125 74.21875 30.609375 74.21875 
Q 43.265625 74.21875 49.921875 64.515625 
Q 56.59375 54.828125 56.59375 36.375 
Q 56.59375 19.140625 48.40625 8.859375 
Q 40.234375 -1.421875 26.421875 -1.421875 
Q 22.703125 -1.421875 18.890625 -0.6875 
Q 15.09375 0.046875 10.984375 1.515625 
z
M 30.609375 32.421875 
Q 37.25 32.421875 41.125 36.953125 
Q 45.015625 41.5 45.015625 49.421875 
Q 45.015625 57.28125 41.125 61.84375 
Q 37.25 66.40625 30.609375 66.40625 
Q 23.96875 66.40625 20.09375 61.84375 
Q 16.21875 57.28125 16.21875 49.421875 
Q 16.21875 41.5 20.09375 36.953125 
Q 23.96875 32.421875 30.609375 32.421875 
z
" id="DejaVuSans-57"/>
       </defs>
       <use xlink:href="#DejaVuSans-57"/>
       <use x="63.623047" xlink:href="#DejaVuSans-48"/>
       <use x="127.246094" xlink:href="#DejaVuSans-48"/>
      </g>
     </g>
    </g>
    <g id="text_8">
     <!-- Runtime (Seconds) -->
     <g transform="translate(161.421622 330.81875)scale(0.18 -0.18)">
      <defs>
       <path d="M 44.390625 34.1875 
Q 47.5625 33.109375 50.5625 29.59375 
Q 53.5625 26.078125 56.59375 19.921875 
L 66.609375 0 
L 56 0 
L 46.6875 18.703125 
Q 43.0625 26.03125 39.671875 28.421875 
Q 36.28125 30.8125 30.421875 30.8125 
L 19.671875 30.8125 
L 19.671875 0 
L 9.8125 0 
L 9.8125 72.90625 
L 32.078125 72.90625 
Q 44.578125 72.90625 50.734375 67.671875 
Q 56.890625 62.453125 56.890625 51.90625 
Q 56.890625 45.015625 53.6875 40.46875 
Q 50.484375 35.9375 44.390625 34.1875 
z
M 19.671875 64.796875 
L 19.671875 38.921875 
L 32.078125 38.921875 
Q 39.203125 38.921875 42.84375 42.21875 
Q 46.484375 45.515625 46.484375 51.90625 
Q 46.484375 58.296875 42.84375 61.546875 
Q 39.203125 64.796875 32.078125 64.796875 
z
" id="DejaVuSans-82"/>
       <path d="M 8.5 21.578125 
L 8.5 54.6875 
L 17.484375 54.6875 
L 17.484375 21.921875 
Q 17.484375 14.15625 20.5 10.265625 
Q 23.53125 6.390625 29.59375 6.390625 
Q 36.859375 6.390625 41.078125 11.03125 
Q 45.3125 15.671875 45.3125 23.6875 
L 45.3125 54.6875 
L 54.296875 54.6875 
L 54.296875 0 
L 45.3125 0 
L 45.3125 8.40625 
Q 42.046875 3.421875 37.71875 1 
Q 33.40625 -1.421875 27.6875 -1.421875 
Q 18.265625 -1.421875 13.375 4.4375 
Q 8.5 10.296875 8.5 21.578125 
z
M 31.109375 56 
z
" id="DejaVuSans-117"/>
       <path d="M 54.890625 33.015625 
L 54.890625 0 
L 45.90625 0 
L 45.90625 32.71875 
Q 45.90625 40.484375 42.875 44.328125 
Q 39.84375 48.1875 33.796875 48.1875 
Q 26.515625 48.1875 22.3125 43.546875 
Q 18.109375 38.921875 18.109375 30.90625 
L 18.109375 0 
L 9.078125 0 
L 9.078125 54.6875 
L 18.109375 54.6875 
L 18.109375 46.1875 
Q 21.34375 51.125 25.703125 53.5625 
Q 30.078125 56 35.796875 56 
Q 45.21875 56 50.046875 50.171875 
Q 54.890625 44.34375 54.890625 33.015625 
z
" id="DejaVuSans-110"/>
       <path d="M 18.3125 70.21875 
L 18.3125 54.6875 
L 36.8125 54.6875 
L 36.8125 47.703125 
L 18.3125 47.703125 
L 18.3125 18.015625 
Q 18.3125 11.328125 20.140625 9.421875 
Q 21.96875 7.515625 27.59375 7.515625 
L 36.8125 7.515625 
L 36.8125 0 
L 27.59375 0 
Q 17.1875 0 13.234375 3.875 
Q 9.28125 7.765625 9.28125 18.015625 
L 9.28125 47.703125 
L 2.6875 47.703125 
L 2.6875 54.6875 
L 9.28125 54.6875 
L 9.28125 70.21875 
z
" id="DejaVuSans-116"/>
       <path d="M 9.421875 54.6875 
L 18.40625 54.6875 
L 18.40625 0 
L 9.421875 0 
z
M 9.421875 75.984375 
L 18.40625 75.984375 
L 18.40625 64.59375 
L 9.421875 64.59375 
z
" id="DejaVuSans-105"/>
       <path d="M 52 44.1875 
Q 55.375 50.25 60.0625 53.125 
Q 64.75 56 71.09375 56 
Q 79.640625 56 84.28125 50.015625 
Q 88.921875 44.046875 88.921875 33.015625 
L 88.921875 0 
L 79.890625 0 
L 79.890625 32.71875 
Q 79.890625 40.578125 77.09375 44.375 
Q 74.3125 48.1875 68.609375 48.1875 
Q 61.625 48.1875 57.5625 43.546875 
Q 53.515625 38.921875 53.515625 30.90625 
L 53.515625 0 
L 44.484375 0 
L 44.484375 32.71875 
Q 44.484375 40.625 41.703125 44.40625 
Q 38.921875 48.1875 33.109375 48.1875 
Q 26.21875 48.1875 22.15625 43.53125 
Q 18.109375 38.875 18.109375 30.90625 
L 18.109375 0 
L 9.078125 0 
L 9.078125 54.6875 
L 18.109375 54.6875 
L 18.109375 46.1875 
Q 21.1875 51.21875 25.484375 53.609375 
Q 29.78125 56 35.6875 56 
Q 41.65625 56 45.828125 52.96875 
Q 50 49.953125 52 44.1875 
z
" id="DejaVuSans-109"/>
       <path d="M 56.203125 29.59375 
L 56.203125 25.203125 
L 14.890625 25.203125 
Q 15.484375 15.921875 20.484375 11.0625 
Q 25.484375 6.203125 34.421875 6.203125 
Q 39.59375 6.203125 44.453125 7.46875 
Q 49.3125 8.734375 54.109375 11.28125 
L 54.109375 2.78125 
Q 49.265625 0.734375 44.1875 -0.34375 
Q 39.109375 -1.421875 33.890625 -1.421875 
Q 20.796875 -1.421875 13.15625 6.1875 
Q 5.515625 13.8125 5.515625 26.8125 
Q 5.515625 40.234375 12.765625 48.109375 
Q 20.015625 56 32.328125 56 
Q 43.359375 56 49.78125 48.890625 
Q 56.203125 41.796875 56.203125 29.59375 
z
M 47.21875 32.234375 
Q 47.125 39.59375 43.09375 43.984375 
Q 39.0625 48.390625 32.421875 48.390625 
Q 24.90625 48.390625 20.390625 44.140625 
Q 15.875 39.890625 15.1875 32.171875 
z
" id="DejaVuSans-101"/>
       <path id="DejaVuSans-32"/>
       <path d="M 31 75.875 
Q 24.46875 64.65625 21.28125 53.65625 
Q 18.109375 42.671875 18.109375 31.390625 
Q 18.109375 20.125 21.3125 9.0625 
Q 24.515625 -2 31 -13.1875 
L 23.1875 -13.1875 
Q 15.875 -1.703125 12.234375 9.375 
Q 8.59375 20.453125 8.59375 31.390625 
Q 8.59375 42.28125 12.203125 53.3125 
Q 15.828125 64.359375 23.1875 75.875 
z
" id="DejaVuSans-40"/>
       <path d="M 53.515625 70.515625 
L 53.515625 60.890625 
Q 47.90625 63.578125 42.921875 64.890625 
Q 37.9375 66.21875 33.296875 66.21875 
Q 25.25 66.21875 20.875 63.09375 
Q 16.5 59.96875 16.5 54.203125 
Q 16.5 49.359375 19.40625 46.890625 
Q 22.3125 44.4375 30.421875 42.921875 
L 36.375 41.703125 
Q 47.40625 39.59375 52.65625 34.296875 
Q 57.90625 29 57.90625 20.125 
Q 57.90625 9.515625 50.796875 4.046875 
Q 43.703125 -1.421875 29.984375 -1.421875 
Q 24.8125 -1.421875 18.96875 -0.25 
Q 13.140625 0.921875 6.890625 3.21875 
L 6.890625 13.375 
Q 12.890625 10.015625 18.65625 8.296875 
Q 24.421875 6.59375 29.984375 6.59375 
Q 38.421875 6.59375 43.015625 9.90625 
Q 47.609375 13.234375 47.609375 19.390625 
Q 47.609375 24.75 44.3125 27.78125 
Q 41.015625 30.8125 33.5 32.328125 
L 27.484375 33.5 
Q 16.453125 35.6875 11.515625 40.375 
Q 6.59375 45.0625 6.59375 53.421875 
Q 6.59375 63.09375 13.40625 68.65625 
Q 20.21875 74.21875 32.171875 74.21875 
Q 37.3125 74.21875 42.625 73.28125 
Q 47.953125 72.359375 53.515625 70.515625 
z
" id="DejaVuSans-83"/>
       <path d="M 48.78125 52.59375 
L 48.78125 44.1875 
Q 44.96875 46.296875 41.140625 47.34375 
Q 37.3125 48.390625 33.40625 48.390625 
Q 24.65625 48.390625 19.8125 42.84375 
Q 14.984375 37.3125 14.984375 27.296875 
Q 14.984375 17.28125 19.8125 11.734375 
Q 24.65625 6.203125 33.40625 6.203125 
Q 37.3125 6.203125 41.140625 7.25 
Q 44.96875 8.296875 48.78125 10.40625 
L 48.78125 2.09375 
Q 45.015625 0.34375 40.984375 -0.53125 
Q 36.96875 -1.421875 32.421875 -1.421875 
Q 20.0625 -1.421875 12.78125 6.34375 
Q 5.515625 14.109375 5.515625 27.296875 
Q 5.515625 40.671875 12.859375 48.328125 
Q 20.21875 56 33.015625 56 
Q 37.15625 56 41.109375 55.140625 
Q 45.0625 54.296875 48.78125 52.59375 
z
" id="DejaVuSans-99"/>
       <path d="M 30.609375 48.390625 
Q 23.390625 48.390625 19.1875 42.75 
Q 14.984375 37.109375 14.984375 27.296875 
Q 14.984375 17.484375 19.15625 11.84375 
Q 23.34375 6.203125 30.609375 6.203125 
Q 37.796875 6.203125 41.984375 11.859375 
Q 46.1875 17.53125 46.1875 27.296875 
Q 46.1875 37.015625 41.984375 42.703125 
Q 37.796875 48.390625 30.609375 48.390625 
z
M 30.609375 56 
Q 42.328125 56 49.015625 48.375 
Q 55.71875 40.765625 55.71875 27.296875 
Q 55.71875 13.875 49.015625 6.21875 
Q 42.328125 -1.421875 30.609375 -1.421875 
Q 18.84375 -1.421875 12.171875 6.21875 
Q 5.515625 13.875 5.515625 27.296875 
Q 5.515625 40.765625 12.171875 48.375 
Q 18.84375 56 30.609375 56 
z
" id="DejaVuSans-111"/>
       <path d="M 45.40625 46.390625 
L 45.40625 75.984375 
L 54.390625 75.984375 
L 54.390625 0 
L 45.40625 0 
L 45.40625 8.203125 
Q 42.578125 3.328125 38.25 0.953125 
Q 33.9375 -1.421875 27.875 -1.421875 
Q 17.96875 -1.421875 11.734375 6.484375 
Q 5.515625 14.40625 5.515625 27.296875 
Q 5.515625 40.1875 11.734375 48.09375 
Q 17.96875 56 27.875 56 
Q 33.9375 56 38.25 53.625 
Q 42.578125 51.265625 45.40625 46.390625 
z
M 14.796875 27.296875 
Q 14.796875 17.390625 18.875 11.75 
Q 22.953125 6.109375 30.078125 6.109375 
Q 37.203125 6.109375 41.296875 11.75 
Q 45.40625 17.390625 45.40625 27.296875 
Q 45.40625 37.203125 41.296875 42.84375 
Q 37.203125 48.484375 30.078125 48.484375 
Q 22.953125 48.484375 18.875 42.84375 
Q 14.796875 37.203125 14.796875 27.296875 
z
" id="DejaVuSans-100"/>
       <path d="M 44.28125 53.078125 
L 44.28125 44.578125 
Q 40.484375 46.53125 36.375 47.5 
Q 32.28125 48.484375 27.875 48.484375 
Q 21.1875 48.484375 17.84375 46.4375 
Q 14.5 44.390625 14.5 40.28125 
Q 14.5 37.15625 16.890625 35.375 
Q 19.28125 33.59375 26.515625 31.984375 
L 29.59375 31.296875 
Q 39.15625 29.25 43.1875 25.515625 
Q 47.21875 21.78125 47.21875 15.09375 
Q 47.21875 7.46875 41.1875 3.015625 
Q 35.15625 -1.421875 24.609375 -1.421875 
Q 20.21875 -1.421875 15.453125 -0.5625 
Q 10.6875 0.296875 5.421875 2 
L 5.421875 11.28125 
Q 10.40625 8.6875 15.234375 7.390625 
Q 20.0625 6.109375 24.8125 6.109375 
Q 31.15625 6.109375 34.5625 8.28125 
Q 37.984375 10.453125 37.984375 14.40625 
Q 37.984375 18.0625 35.515625 20.015625 
Q 33.0625 21.96875 24.703125 23.78125 
L 21.578125 24.515625 
Q 13.234375 26.265625 9.515625 29.90625 
Q 5.8125 33.546875 5.8125 39.890625 
Q 5.8125 47.609375 11.28125 51.796875 
Q 16.75 56 26.8125 56 
Q 31.78125 56 36.171875 55.265625 
Q 40.578125 54.546875 44.28125 53.078125 
z
" id="DejaVuSans-115"/>
       <path d="M 8.015625 75.875 
L 15.828125 75.875 
Q 23.140625 64.359375 26.78125 53.3125 
Q 30.421875 42.28125 30.421875 31.390625 
Q 30.421875 20.453125 26.78125 9.375 
Q 23.140625 -1.703125 15.828125 -13.1875 
L 8.015625 -13.1875 
Q 14.5 -2 17.703125 9.0625 
Q 20.90625 20.125 20.90625 31.390625 
Q 20.90625 42.671875 17.703125 53.65625 
Q 14.5 64.65625 8.015625 75.875 
z
" id="DejaVuSans-41"/>
      </defs>
      <use xlink:href="#DejaVuSans-82"/>
      <use x="64.982422" xlink:href="#DejaVuSans-117"/>
      <use x="128.361328" xlink:href="#DejaVuSans-110"/>
      <use x="191.740234" xlink:href="#DejaVuSans-116"/>
      <use x="230.949219" xlink:href="#DejaVuSans-105"/>
      <use x="258.732422" xlink:href="#DejaVuSans-109"/>
      <use x="356.144531" xlink:href="#DejaVuSans-101"/>
      <use x="417.667969" xlink:href="#DejaVuSans-32"/>
      <use x="449.455078" xlink:href="#DejaVuSans-40"/>
      <use x="488.46875" xlink:href="#DejaVuSans-83"/>
      <use x="551.945312" xlink:href="#DejaVuSans-101"/>
      <use x="613.46875" xlink:href="#DejaVuSans-99"/>
      <use x="668.449219" xlink:href="#DejaVuSans-111"/>
      <use x="729.630859" xlink:href="#DejaVuSans-110"/>
      <use x="793.009766" xlink:href="#DejaVuSans-100"/>
      <use x="856.486328" xlink:href="#DejaVuSans-115"/>
      <use x="908.585938" xlink:href="#DejaVuSans-41"/>
     </g>
    </g>
   </g>
   <g id="matplotlib.axis_2">
    <g id="ytick_1">
     <g id="line2d_8">
      <defs>
       <path d="M 0 0 
L -3.5 0 
" id="m17e12b6016" style="stroke:#000000;stroke-width:0.8;"/>
      </defs>
      <g>
       <use style="stroke:#000000;stroke-width:0.8;" x="55.37" xlink:href="#m17e12b6016" y="279.978251"/>
      </g>
     </g>
     <g id="text_9">
      <!-- 2 -->
      <g transform="translate(40.09875 284.917235)scale(0.13 -0.13)">
       <defs>
        <path d="M 19.1875 8.296875 
L 53.609375 8.296875 
L 53.609375 0 
L 7.328125 0 
L 7.328125 8.296875 
Q 12.9375 14.109375 22.625 23.890625 
Q 32.328125 33.6875 34.8125 36.53125 
Q 39.546875 41.84375 41.421875 45.53125 
Q 43.3125 49.21875 43.3125 52.78125 
Q 43.3125 58.59375 39.234375 62.25 
Q 35.15625 65.921875 28.609375 65.921875 
Q 23.96875 65.921875 18.8125 64.3125 
Q 13.671875 62.703125 7.8125 59.421875 
L 7.8125 69.390625 
Q 13.765625 71.78125 18.9375 73 
Q 24.125 74.21875 28.421875 74.21875 
Q 39.75 74.21875 46.484375 68.546875 
Q 53.21875 62.890625 53.21875 53.421875 
Q 53.21875 48.921875 51.53125 44.890625 
Q 49.859375 40.875 45.40625 35.40625 
Q 44.1875 33.984375 37.640625 27.21875 
Q 31.109375 20.453125 19.1875 8.296875 
z
" id="DejaVuSans-50"/>
       </defs>
       <use xlink:href="#DejaVuSans-50"/>
      </g>
     </g>
    </g>
    <g id="ytick_2">
     <g id="line2d_9">
      <g>
       <use style="stroke:#000000;stroke-width:0.8;" x="55.37" xlink:href="#m17e12b6016" y="224.715571"/>
      </g>
     </g>
     <g id="text_10">
      <!-- 4 -->
      <g transform="translate(40.09875 229.654555)scale(0.13 -0.13)">
       <use xlink:href="#DejaVuSans-52"/>
      </g>
     </g>
    </g>
    <g id="ytick_3">
     <g id="line2d_10">
      <g>
       <use style="stroke:#000000;stroke-width:0.8;" x="55.37" xlink:href="#m17e12b6016" y="169.452891"/>
      </g>
     </g>
     <g id="text_11">
      <!-- 6 -->
      <g transform="translate(40.09875 174.391875)scale(0.13 -0.13)">
       <use xlink:href="#DejaVuSans-54"/>
      </g>
     </g>
    </g>
    <g id="ytick_4">
     <g id="line2d_11">
      <g>
       <use style="stroke:#000000;stroke-width:0.8;" x="55.37" xlink:href="#m17e12b6016" y="114.19021"/>
      </g>
     </g>
     <g id="text_12">
      <!-- 8 -->
      <g transform="translate(40.09875 119.129195)scale(0.13 -0.13)">
       <use xlink:href="#DejaVuSans-56"/>
      </g>
     </g>
    </g>
    <g id="ytick_5">
     <g id="line2d_12">
      <g>
       <use style="stroke:#000000;stroke-width:0.8;" x="55.37" xlink:href="#m17e12b6016" y="58.92753"/>
      </g>
     </g>
     <g id="text_13">
      <!-- 10 -->
      <g transform="translate(31.8275 63.866514)scale(0.13 -0.13)">
       <defs>
        <path d="M 12.40625 8.296875 
L 28.515625 8.296875 
L 28.515625 63.921875 
L 10.984375 60.40625 
L 10.984375 69.390625 
L 28.421875 72.90625 
L 38.28125 72.90625 
L 38.28125 8.296875 
L 54.390625 8.296875 
L 54.390625 0 
L 12.40625 0 
z
" id="DejaVuSans-49"/>
       </defs>
       <use xlink:href="#DejaVuSans-49"/>
       <use x="63.623047" xlink:href="#DejaVuSans-48"/>
      </g>
     </g>
    </g>
    <g id="text_14">
     <!-- MSE -->
     <g transform="translate(24.292031 181.561016)rotate(-90)scale(0.17 -0.17)">
      <defs>
       <path d="M 9.8125 72.90625 
L 24.515625 72.90625 
L 43.109375 23.296875 
L 61.8125 72.90625 
L 76.515625 72.90625 
L 76.515625 0 
L 66.890625 0 
L 66.890625 64.015625 
L 48.09375 14.015625 
L 38.1875 14.015625 
L 19.390625 64.015625 
L 19.390625 0 
L 9.8125 0 
z
" id="DejaVuSans-77"/>
       <path d="M 9.8125 72.90625 
L 55.90625 72.90625 
L 55.90625 64.59375 
L 19.671875 64.59375 
L 19.671875 43.015625 
L 54.390625 43.015625 
L 54.390625 34.71875 
L 19.671875 34.71875 
L 19.671875 8.296875 
L 56.78125 8.296875 
L 56.78125 0 
L 9.8125 0 
z
" id="DejaVuSans-69"/>
      </defs>
      <use xlink:href="#DejaVuSans-77"/>
      <use x="86.279297" xlink:href="#DejaVuSans-83"/>
      <use x="149.755859" xlink:href="#DejaVuSans-69"/>
     </g>
    </g>
   </g>
   <g id="patch_3">
    <path d="M 55.37 293.56 
L 55.37 33.36 
" style="fill:none;stroke:#000000;stroke-linecap:square;stroke-linejoin:miter;stroke-width:1.5;"/>
   </g>
   <g id="patch_4">
    <path d="M 55.37 293.56 
L 438.042932 293.56 
" style="fill:none;stroke:#000000;stroke-linecap:square;stroke-linejoin:miter;stroke-width:1.5;"/>
   </g>
   <g id="text_15">
    <!-- Gramacy &amp; Lee Interpolation -->
    <g transform="translate(87.966154 27.36)scale(0.22 -0.22)">
     <defs>
      <path d="M 59.515625 10.40625 
L 59.515625 29.984375 
L 43.40625 29.984375 
L 43.40625 38.09375 
L 69.28125 38.09375 
L 69.28125 6.78125 
Q 63.578125 2.734375 56.6875 0.65625 
Q 49.8125 -1.421875 42 -1.421875 
Q 24.90625 -1.421875 15.25 8.5625 
Q 5.609375 18.5625 5.609375 36.375 
Q 5.609375 54.25 15.25 64.234375 
Q 24.90625 74.21875 42 74.21875 
Q 49.125 74.21875 55.546875 72.453125 
Q 61.96875 70.703125 67.390625 67.28125 
L 67.390625 56.78125 
Q 61.921875 61.421875 55.765625 63.765625 
Q 49.609375 66.109375 42.828125 66.109375 
Q 29.4375 66.109375 22.71875 58.640625 
Q 16.015625 51.171875 16.015625 36.375 
Q 16.015625 21.625 22.71875 14.15625 
Q 29.4375 6.6875 42.828125 6.6875 
Q 48.046875 6.6875 52.140625 7.59375 
Q 56.25 8.5 59.515625 10.40625 
z
" id="DejaVuSans-71"/>
      <path d="M 41.109375 46.296875 
Q 39.59375 47.171875 37.8125 47.578125 
Q 36.03125 48 33.890625 48 
Q 26.265625 48 22.1875 43.046875 
Q 18.109375 38.09375 18.109375 28.8125 
L 18.109375 0 
L 9.078125 0 
L 9.078125 54.6875 
L 18.109375 54.6875 
L 18.109375 46.1875 
Q 20.953125 51.171875 25.484375 53.578125 
Q 30.03125 56 36.53125 56 
Q 37.453125 56 38.578125 55.875 
Q 39.703125 55.765625 41.0625 55.515625 
z
" id="DejaVuSans-114"/>
      <path d="M 34.28125 27.484375 
Q 23.390625 27.484375 19.1875 25 
Q 14.984375 22.515625 14.984375 16.5 
Q 14.984375 11.71875 18.140625 8.90625 
Q 21.296875 6.109375 26.703125 6.109375 
Q 34.1875 6.109375 38.703125 11.40625 
Q 43.21875 16.703125 43.21875 25.484375 
L 43.21875 27.484375 
z
M 52.203125 31.203125 
L 52.203125 0 
L 43.21875 0 
L 43.21875 8.296875 
Q 40.140625 3.328125 35.546875 0.953125 
Q 30.953125 -1.421875 24.3125 -1.421875 
Q 15.921875 -1.421875 10.953125 3.296875 
Q 6 8.015625 6 15.921875 
Q 6 25.140625 12.171875 29.828125 
Q 18.359375 34.515625 30.609375 34.515625 
L 43.21875 34.515625 
L 43.21875 35.40625 
Q 43.21875 41.609375 39.140625 45 
Q 35.0625 48.390625 27.6875 48.390625 
Q 23 48.390625 18.546875 47.265625 
Q 14.109375 46.140625 10.015625 43.890625 
L 10.015625 52.203125 
Q 14.9375 54.109375 19.578125 55.046875 
Q 24.21875 56 28.609375 56 
Q 40.484375 56 46.34375 49.84375 
Q 52.203125 43.703125 52.203125 31.203125 
z
" id="DejaVuSans-97"/>
      <path d="M 32.171875 -5.078125 
Q 28.375 -14.84375 24.75 -17.8125 
Q 21.140625 -20.796875 15.09375 -20.796875 
L 7.90625 -20.796875 
L 7.90625 -13.28125 
L 13.1875 -13.28125 
Q 16.890625 -13.28125 18.9375 -11.515625 
Q 21 -9.765625 23.484375 -3.21875 
L 25.09375 0.875 
L 2.984375 54.6875 
L 12.5 54.6875 
L 29.59375 11.921875 
L 46.6875 54.6875 
L 56.203125 54.6875 
z
" id="DejaVuSans-121"/>
      <path d="M 24.3125 39.203125 
Q 19.875 35.25 17.796875 31.3125 
Q 15.71875 27.390625 15.71875 23.09375 
Q 15.71875 15.96875 20.890625 11.234375 
Q 26.078125 6.5 33.890625 6.5 
Q 38.53125 6.5 42.578125 8.03125 
Q 46.625 9.578125 50.203125 12.703125 
z
M 31.203125 44.671875 
L 56 19.28125 
Q 58.890625 23.640625 60.5 28.59375 
Q 62.109375 33.546875 62.40625 39.109375 
L 71.484375 39.109375 
Q 70.90625 32.671875 68.359375 26.359375 
Q 65.828125 20.0625 61.28125 13.921875 
L 74.90625 0 
L 62.59375 0 
L 55.609375 7.171875 
Q 50.53125 2.828125 44.96875 0.703125 
Q 39.40625 -1.421875 33.015625 -1.421875 
Q 21.234375 -1.421875 13.765625 5.296875 
Q 6.296875 12.015625 6.296875 22.515625 
Q 6.296875 28.765625 9.5625 34.25 
Q 12.84375 39.75 19.390625 44.578125 
Q 17.046875 47.65625 15.8125 50.703125 
Q 14.59375 53.765625 14.59375 56.6875 
Q 14.59375 64.59375 20.015625 69.40625 
Q 25.4375 74.21875 34.421875 74.21875 
Q 38.484375 74.21875 42.5 73.34375 
Q 46.53125 72.46875 50.6875 70.703125 
L 50.6875 61.8125 
Q 46.4375 64.109375 42.578125 65.296875 
Q 38.71875 66.5 35.40625 66.5 
Q 30.28125 66.5 27.078125 63.78125 
Q 23.875 61.078125 23.875 56.78125 
Q 23.875 54.296875 25.3125 51.78125 
Q 26.765625 49.265625 31.203125 44.671875 
z
" id="DejaVuSans-38"/>
      <path d="M 9.8125 72.90625 
L 19.671875 72.90625 
L 19.671875 8.296875 
L 55.171875 8.296875 
L 55.171875 0 
L 9.8125 0 
z
" id="DejaVuSans-76"/>
      <path d="M 9.8125 72.90625 
L 19.671875 72.90625 
L 19.671875 0 
L 9.8125 0 
z
" id="DejaVuSans-73"/>
      <path d="M 18.109375 8.203125 
L 18.109375 -20.796875 
L 9.078125 -20.796875 
L 9.078125 54.6875 
L 18.109375 54.6875 
L 18.109375 46.390625 
Q 20.953125 51.265625 25.265625 53.625 
Q 29.59375 56 35.59375 56 
Q 45.5625 56 51.78125 48.09375 
Q 58.015625 40.1875 58.015625 27.296875 
Q 58.015625 14.40625 51.78125 6.484375 
Q 45.5625 -1.421875 35.59375 -1.421875 
Q 29.59375 -1.421875 25.265625 0.953125 
Q 20.953125 3.328125 18.109375 8.203125 
z
M 48.6875 27.296875 
Q 48.6875 37.203125 44.609375 42.84375 
Q 40.53125 48.484375 33.40625 48.484375 
Q 26.265625 48.484375 22.1875 42.84375 
Q 18.109375 37.203125 18.109375 27.296875 
Q 18.109375 17.390625 22.1875 11.75 
Q 26.265625 6.109375 33.40625 6.109375 
Q 40.53125 6.109375 44.609375 11.75 
Q 48.6875 17.390625 48.6875 27.296875 
z
" id="DejaVuSans-112"/>
      <path d="M 9.421875 75.984375 
L 18.40625 75.984375 
L 18.40625 0 
L 9.421875 0 
z
" id="DejaVuSans-108"/>
     </defs>
     <use xlink:href="#DejaVuSans-71"/>
     <use x="77.490234" xlink:href="#DejaVuSans-114"/>
     <use x="118.603516" xlink:href="#DejaVuSans-97"/>
     <use x="179.882812" xlink:href="#DejaVuSans-109"/>
     <use x="277.294922" xlink:href="#DejaVuSans-97"/>
     <use x="338.574219" xlink:href="#DejaVuSans-99"/>
     <use x="393.554688" xlink:href="#DejaVuSans-121"/>
     <use x="452.734375" xlink:href="#DejaVuSans-32"/>
     <use x="484.521484" xlink:href="#DejaVuSans-38"/>
     <use x="562.5" xlink:href="#DejaVuSans-32"/>
     <use x="594.287109" xlink:href="#DejaVuSans-76"/>
     <use x="648.25" xlink:href="#DejaVuSans-101"/>
     <use x="709.773438" xlink:href="#DejaVuSans-101"/>
     <use x="771.296875" xlink:href="#DejaVuSans-32"/>
     <use x="803.083984" xlink:href="#DejaVuSans-73"/>
     <use x="832.576172" xlink:href="#DejaVuSans-110"/>
     <use x="895.955078" xlink:href="#DejaVuSans-116"/>
     <use x="935.164062" xlink:href="#DejaVuSans-101"/>
     <use x="996.6875" xlink:href="#DejaVuSans-114"/>
     <use x="1037.800781" xlink:href="#DejaVuSans-112"/>
     <use x="1101.277344" xlink:href="#DejaVuSans-111"/>
     <use x="1162.458984" xlink:href="#DejaVuSans-108"/>
     <use x="1190.242188" xlink:href="#DejaVuSans-97"/>
     <use x="1251.521484" xlink:href="#DejaVuSans-116"/>
     <use x="1290.730469" xlink:href="#DejaVuSans-105"/>
     <use x="1318.513672" xlink:href="#DejaVuSans-111"/>
     <use x="1379.695312" xlink:href="#DejaVuSans-110"/>
    </g>
   </g>
   <g id="legend_1">
    <g id="patch_5">
     <path d="M 335.786057 287.56 
L 429.642932 287.56 
Q 432.042932 287.56 432.042932 285.16 
L 432.042932 233.51875 
Q 432.042932 231.11875 429.642932 231.11875 
L 335.786057 231.11875 
Q 333.386057 231.11875 333.386057 233.51875 
L 333.386057 285.16 
Q 333.386057 287.56 335.786057 287.56 
z
" style="fill:#ffffff;opacity:0.8;stroke:#cccccc;stroke-linejoin:miter;"/>
    </g>
    <g id="PathCollection_4">
     <g>
      <use style="fill:#e6a157;stroke:#eb6934;" x="350.186057" xlink:href="#m9ecdca2d53" y="241.886875"/>
     </g>
    </g>
    <g id="text_16">
     <!-- Paddy -->
     <g transform="translate(371.786057 245.036875)scale(0.12 -0.12)">
      <defs>
       <path d="M 19.671875 64.796875 
L 19.671875 37.40625 
L 32.078125 37.40625 
Q 38.96875 37.40625 42.71875 40.96875 
Q 46.484375 44.53125 46.484375 51.125 
Q 46.484375 57.671875 42.71875 61.234375 
Q 38.96875 64.796875 32.078125 64.796875 
z
M 9.8125 72.90625 
L 32.078125 72.90625 
Q 44.34375 72.90625 50.609375 67.359375 
Q 56.890625 61.8125 56.890625 51.125 
Q 56.890625 40.328125 50.609375 34.8125 
Q 44.34375 29.296875 32.078125 29.296875 
L 19.671875 29.296875 
L 19.671875 0 
L 9.8125 0 
z
" id="DejaVuSans-80"/>
      </defs>
      <use xlink:href="#DejaVuSans-80"/>
      <use x="55.802734" xlink:href="#DejaVuSans-97"/>
      <use x="117.082031" xlink:href="#DejaVuSans-100"/>
      <use x="180.558594" xlink:href="#DejaVuSans-100"/>
      <use x="244.035156" xlink:href="#DejaVuSans-121"/>
     </g>
    </g>
    <g id="PathCollection_5">
     <g>
      <use style="fill:#8ac6d1;stroke:#1f77b4;" x="350.186057" xlink:href="#m8d9a4959fa" y="259.500625"/>
     </g>
    </g>
    <g id="text_17">
     <!-- Hyperopt -->
     <g transform="translate(371.786057 262.650625)scale(0.12 -0.12)">
      <defs>
       <path d="M 9.8125 72.90625 
L 19.671875 72.90625 
L 19.671875 43.015625 
L 55.515625 43.015625 
L 55.515625 72.90625 
L 65.375 72.90625 
L 65.375 0 
L 55.515625 0 
L 55.515625 34.71875 
L 19.671875 34.71875 
L 19.671875 0 
L 9.8125 0 
z
" id="DejaVuSans-72"/>
      </defs>
      <use xlink:href="#DejaVuSans-72"/>
      <use x="75.195312" xlink:href="#DejaVuSans-121"/>
      <use x="134.375" xlink:href="#DejaVuSans-112"/>
      <use x="197.851562" xlink:href="#DejaVuSans-101"/>
      <use x="259.375" xlink:href="#DejaVuSans-114"/>
      <use x="298.238281" xlink:href="#DejaVuSans-111"/>
      <use x="359.419922" xlink:href="#DejaVuSans-112"/>
      <use x="422.896484" xlink:href="#DejaVuSans-116"/>
     </g>
    </g>
    <g id="PathCollection_6">
     <g>
      <use style="fill:#808080;stroke:#3a3a3a;" x="350.186057" xlink:href="#m1c124397ea" y="277.114375"/>
     </g>
    </g>
    <g id="text_18">
     <!-- Random -->
     <g transform="translate(371.786057 280.264375)scale(0.12 -0.12)">
      <use xlink:href="#DejaVuSans-82"/>
      <use x="67.232422" xlink:href="#DejaVuSans-97"/>
      <use x="128.511719" xlink:href="#DejaVuSans-110"/>
      <use x="191.890625" xlink:href="#DejaVuSans-100"/>
      <use x="255.367188" xlink:href="#DejaVuSans-111"/>
      <use x="316.548828" xlink:href="#DejaVuSans-109"/>
     </g>
    </g>
   </g>
  </g>
 </g>
 <defs>
  <clipPath id="p0299a1b204">
   <rect height="260.2" width="382.672932" x="55.37" y="33.36"/>
  </clipPath>
 </defs>
</svg>
